<svg id="award" xmlns="http://www.w3.org/2000/svg" xmlns:xlink="http://www.w3.org/1999/xlink" width="12" height="16" viewBox="0 0 12 16">
  <defs>
    <clipPath id="clip-path">
      <path id="_Icon_color" data-name="🎨 Icon color" d="M11.142,16a.9.9,0,0,1-.415-.1L5.859,13.386l-4.568,2.5A.916.916,0,0,1,.856,16a.886.886,0,0,1-.514-.16A.77.77,0,0,1,.027,15L2.006,7.818A4.617,4.617,0,0,1,.857,4.8,4.986,4.986,0,0,1,6,0a4.986,4.986,0,0,1,5.143,4.8A4.617,4.617,0,0,1,9.993,7.818L11.973,15a.77.77,0,0,1-.305.832A.906.906,0,0,1,11.142,16Zm-5.3-4.335a.915.915,0,0,1,.416.1L9.817,13.6,8.541,8.968a5.428,5.428,0,0,1-5.082,0L2.2,13.536l3.212-1.76A.886.886,0,0,1,5.845,11.665ZM6,1.6A3.324,3.324,0,0,0,2.571,4.8,3.324,3.324,0,0,0,6,8,3.324,3.324,0,0,0,9.428,4.8,3.324,3.324,0,0,0,6,1.6Z" transform="translate(0)" fill="#656565"/>
    </clipPath>
  </defs>
  <g id="Group_10" data-name="Group 10" transform="translate(0)">
    <path id="_Icon_color-2" data-name="🎨 Icon color" d="M11.142,16a.9.9,0,0,1-.415-.1L5.859,13.386l-4.568,2.5A.916.916,0,0,1,.856,16a.886.886,0,0,1-.514-.16A.77.77,0,0,1,.027,15L2.006,7.818A4.617,4.617,0,0,1,.857,4.8,4.986,4.986,0,0,1,6,0a4.986,4.986,0,0,1,5.143,4.8A4.617,4.617,0,0,1,9.993,7.818L11.973,15a.77.77,0,0,1-.305.832A.906.906,0,0,1,11.142,16Zm-5.3-4.335a.915.915,0,0,1,.416.1L9.817,13.6,8.541,8.968a5.428,5.428,0,0,1-5.082,0L2.2,13.536l3.212-1.76A.886.886,0,0,1,5.845,11.665ZM6,1.6A3.324,3.324,0,0,0,2.571,4.8,3.324,3.324,0,0,0,6,8,3.324,3.324,0,0,0,9.428,4.8,3.324,3.324,0,0,0,6,1.6Z" transform="translate(0)" fill="#656565"/>
  </g>
</svg>
