<svg xmlns="http://www.w3.org/2000/svg" width="17.8" height="21.533" viewBox="0 0 17.8 21.533">
  <g id="bell" transform="translate(-42.166 0.5)">
    <g id="Group_3253" data-name="Group 3253" transform="translate(42.666)">
      <path id="Path_5419" data-name="Path 5419" d="M58.865,14.8c-.534-.8-1.265-1.889-1.265-5V8.4a6.543,6.543,0,0,0-4.667-6.258V1.867a1.867,1.867,0,1,0-3.733,0v.275A6.543,6.543,0,0,0,44.533,8.4V9.8c0,3.107-.731,4.2-1.265,5a2.641,2.641,0,0,0-.6,1.538c0,1.521,3.172,2.055,5.743,2.239a2.78,2.78,0,0,0,5.314,0c2.571-.184,5.743-.718,5.743-2.239A2.641,2.641,0,0,0,58.865,14.8ZM50.133,1.867a.933.933,0,0,1,1.867,0v.075a5.88,5.88,0,0,0-1.867,0V1.867ZM51.066,19.6a1.85,1.85,0,0,1-1.628-.969c.661.028,1.236.036,1.628.036s.967-.008,1.629-.036A1.851,1.851,0,0,1,51.066,19.6Zm0-1.867c-4.274,0-7.467-.739-7.467-1.4a1.776,1.776,0,0,1,.444-1.019c.566-.846,1.423-2.124,1.423-5.515V8.4a5.6,5.6,0,1,1,11.2,0V9.8c0,3.391.857,4.669,1.423,5.515a1.776,1.776,0,0,1,.444,1.019C58.533,16.994,55.34,17.733,51.066,17.733Z" transform="translate(-42.666)" fill="#767676" stroke="#707070" stroke-width="1"/>
    </g>
  </g>
</svg>
