<svg xmlns="http://www.w3.org/2000/svg" width="22.75" height="20.75" viewBox="0 0 22.75 20.75">
  <g id="Blended_-_black" data-name="Blended -  black" transform="translate(-1.678 -1.741)">
    <g id="Blended">
      <g id="Group_3274" data-name="Group 3274" transform="translate(-681.572 -155.574)">
        <ellipse id="Ellipse_328" data-name="Ellipse 328" cx="10" cy="9.5" rx="10" ry="9.5" transform="translate(684 158.066)" fill="none" stroke="#303030" stroke-miterlimit="10" stroke-width="1.5"/>
        <line id="Line_47" data-name="Line 47" y1="19" transform="translate(694 158.066)" fill="none" stroke="#303030" stroke-miterlimit="10" stroke-width="1.5"/>
        <line id="Line_48" data-name="Line 48" x2="20.5" transform="translate(684 167.525)" fill="none" stroke="#303030" stroke-miterlimit="10" stroke-width="1.5"/>
        <path id="Path_5439" data-name="Path 5439" d="M749.624,158.078s-4.824,2.646-4.668,9.821,4.68,9.164,4.68,9.164" transform="translate(-56.199 -0.062)" fill="none" stroke="#303030" stroke-miterlimit="10" stroke-width="1.5"/>
        <path id="Path_5440" data-name="Path 5440" d="M805.965,158.078s4.824,2.646,4.668,9.821-4.68,9.242-4.68,9.242" transform="translate(-111.441 -0.062)" fill="none" stroke="#303030" stroke-miterlimit="10" stroke-width="1.5"/>
        <path id="Path_5441" data-name="Path 5441" d="M712.942,201.115s7.034,5.079,14.517,0" transform="translate(-26.685 -39.742)" fill="none" stroke="#303030" stroke-miterlimit="10" stroke-width="1.5"/>
        <path id="Path_5442" data-name="Path 5442" d="M712.942,331.349s7.034-5.285,14.517,0" transform="translate(-26.685 -157.653)" fill="none" stroke="#303030" stroke-miterlimit="10" stroke-width="1.5"/>
      </g>
    </g>
    <g id="Group_3279" data-name="Group 3279" transform="translate(-342.572 -140.509)">
      <circle id="Ellipse_329" data-name="Ellipse 329" cx="6" cy="6" r="6" transform="translate(355 151)" fill="#fff"/>
      <g id="people_alt-24px" transform="translate(356.826 152.607)">
        <g id="Bounding_Box" transform="translate(-0.36 0.2)">
          <rect id="Rectangle_1175" data-name="Rectangle 1175" width="11" height="8" transform="translate(-0.466 0.193)" fill="none"/>
        </g>
        <g id="Flat" transform="translate(0.777 0.946)">
          <g id="Group_2796" data-name="Group 2796">
            <path id="Path_5157" data-name="Path 5157" d="M6.692,7.384A1.692,1.692,0,1,0,5,5.692,1.691,1.691,0,0,0,6.692,7.384Zm0-2.538a.846.846,0,1,1-.846.846A.848.848,0,0,1,6.692,4.846Z" transform="translate(-3.308 -4)" fill="#2f2f2f"/>
            <path id="Path_5158" data-name="Path 5158" d="M4.384,13C3.254,13,1,13.567,1,14.692v1.269H7.767V14.692C7.767,13.567,5.513,13,4.384,13Zm2.538,2.115H1.846V14.7a3.709,3.709,0,0,1,2.538-.85,3.734,3.734,0,0,1,2.538.846Z" transform="translate(-1 -9.193)" fill="#2f2f2f"/>
          </g>
        </g>
      </g>
    </g>
  </g>
</svg>
