<svg xmlns="http://www.w3.org/2000/svg" width="24.416" height="16.32" viewBox="0 0 24.416 16.32">
  <g id="Group_3366" data-name="Group 3366" transform="translate(-1211.75 -1031)">
    <path id="Arrow-right_-_simple-line-icons" data-name="Arrow-right - simple-line-icons" d="M.49,14.32A.522.522,0,0,1,.3,14.285a.458.458,0,0,1-.161-.1.473.473,0,0,1,0-.672l6.4-6.4L.238.826A.466.466,0,0,1,.1.483.466.466,0,0,1,.238.14.466.466,0,0,1,.581,0,.466.466,0,0,1,.924.14L7.545,6.775a.473.473,0,0,1,0,.672L.826,14.18a.458.458,0,0,1-.161.1A.487.487,0,0,1,.49,14.32Z" transform="translate(1227.481 1032)" fill="#532a6e" stroke="#532a6e" stroke-miterlimit="10" stroke-width="2"/>
    <path id="Path_5398" data-name="Path 5398" d="M2578.871,1037.75H2558.25" transform="translate(-1345 1.231)" fill="none" stroke="#532a6e" stroke-linecap="round" stroke-width="3"/>
  </g>
</svg>
