<svg xmlns="http://www.w3.org/2000/svg" width="24.416" height="16.32" viewBox="0 0 24.416 16.32">
  <g id="Group_3366" data-name="Group 3366" transform="translate(1 1)">
    <path id="Arrow-right_-_simple-line-icons" data-name="Arrow-right - simple-line-icons" d="M7.2,14.32a.522.522,0,0,0,.189-.035.473.473,0,0,0,.161-.777l-6.4-6.4L7.447.826a.466.466,0,0,0,.14-.343A.466.466,0,0,0,7.447.14a.49.49,0,0,0-.686,0L.14,6.775a.473.473,0,0,0,0,.672L6.859,14.18a.458.458,0,0,0,.161.1A.487.487,0,0,0,7.2,14.32Z" transform="translate(0)" fill="#532a6e" stroke="#532a6e" stroke-miterlimit="10" stroke-width="2"/>
    <path id="Path_5398" data-name="Path 5398" d="M2558.25,1037.75h20.621" transform="translate(-2556.956 -1030.769)" fill="none" stroke="#532a6e" stroke-linecap="round" stroke-width="3"/>
  </g>
</svg>
