<svg xmlns="http://www.w3.org/2000/svg" width="23.771" height="21.1" viewBox="0 0 23.771 21.1">
  <g id="cart" transform="translate(0 -28.76)">
    <path id="Path_5420" data-name="Path 5420" d="M23.61,33.41a.844.844,0,0,0-.682-.351H5.826L4.9,29.4a.845.845,0,0,0-.845-.637H.845a.845.845,0,1,0,0,1.69h2.58L7.343,45.986a.845.845,0,0,0,.815.637h10.55a.845.845,0,0,0,0-1.69H8.826l-.39-1.547H20.117a.845.845,0,0,0,.8-.583l2.812-8.638A.844.844,0,0,0,23.61,33.41ZM19.5,41.7H8.01L6.251,34.749H21.767Z" fill="#767676"/>
    <circle id="Ellipse_327" data-name="Ellipse 327" cx="1.725" cy="1.725" r="1.725" transform="translate(6.33 45.564)" fill="#fff"/>
    <path id="Path_5421" data-name="Path 5421" d="M120.824,377.891a2.565,2.565,0,1,1,2.565-2.565h0A2.57,2.57,0,0,1,120.824,377.891Zm0-3.459a.88.88,0,1,0,.88.88h0a.88.88,0,0,0-.88-.865Z" transform="translate(-112.769 -328.031)" fill="#767676"/>
    <circle id="Ellipse_328" data-name="Ellipse 328" cx="1.725" cy="1.725" r="1.725" transform="translate(16.984 45.564)" fill="#fff"/>
    <path id="Path_5422" data-name="Path 5422" d="M350.4,377.89a2.565,2.565,0,1,1,2.57-2.565A2.565,2.565,0,0,1,350.4,377.89Zm0-3.459a.88.88,0,1,0,.88.88h0a.88.88,0,0,0-.88-.865Z" transform="translate(-331.687 -328.03)" fill="#767676"/>
  </g>
</svg>
