<svg xmlns="http://www.w3.org/2000/svg" width="56.5" height="56.5" viewBox="0 0 56.5 56.5">
  <g id="TickCircleOutlined" transform="translate(-323.75 -323.75)">
    <path id="Path_173" data-name="Path 173" d="M352,324a28,28,0,1,0,28,28A28,28,0,0,0,352,324Zm-25.492,28A25.492,25.492,0,1,1,352,377.492,25.493,25.493,0,0,1,326.508,352Zm37.907-7.512a1.167,1.167,0,0,1,0,1.649L349.7,360.849a1.165,1.165,0,0,1-1.649,0l-8.027-8.025a1.167,1.167,0,0,1,1.652-1.649l7.2,7.2,13.885-13.887a1.167,1.167,0,0,1,1.649,0Z" transform="translate(0 0)" fill="#532a6e" stroke="#532a6e" stroke-width="0.5"/>
  </g>
</svg>
