<svg xmlns="http://www.w3.org/2000/svg" width="16.286" height="16.247" viewBox="0 0 16.286 16.247">
  <g id="Group_207" data-name="Group 207" transform="translate(0 -2.752)">
    <path id="_Icon_color" data-name="🎨 Icon color" d="M8.143,19A8.141,8.141,0,0,1,7.249,2.767c.011-.01.457-.014.894-.014.517,0,.884.006.894.014A8.141,8.141,0,0,1,8.143,19Zm0-14.25a6.107,6.107,0,1,0,6.107,6.107A6.114,6.114,0,0,0,8.143,4.75Zm2.714,7.012H8.143a.906.906,0,0,1-.905-.9V8.143a.9.9,0,1,1,1.81,0V9.952h1.81a.9.9,0,0,1,0,1.81Z" fill="#656565"/>
  </g>
</svg>
