<svg id="timer" xmlns="http://www.w3.org/2000/svg" xmlns:xlink="http://www.w3.org/1999/xlink" width="16.286" height="19" viewBox="0 0 16.286 19">
  <defs>
    <clipPath id="clip-path">
      <path id="_Icon_color" data-name="🎨 Icon color" d="M8.143,19A8.141,8.141,0,0,1,7.249,2.767a.12.12,0,0,0-.005-.024.1.1,0,0,1-.005-.029v-.9h-.9A.9.9,0,1,1,6.334,0H9.952a.9.9,0,0,1,0,1.809h-.9v.9a.1.1,0,0,1-.005.029.12.12,0,0,0-.005.024A8.141,8.141,0,0,1,8.143,19Zm0-14.25a6.107,6.107,0,1,0,6.107,6.107A6.114,6.114,0,0,0,8.143,4.75Zm2.714,7.012H8.143a.906.906,0,0,1-.9-.9V8.143a.9.9,0,0,1,1.809,0V9.952h1.809a.9.9,0,1,1,0,1.809Z" fill="#727272"/>
    </clipPath>
  </defs>
  <g id="Group_207" data-name="Group 207">
    <path id="_Icon_color-2" data-name="🎨 Icon color" d="M8.143,19A8.141,8.141,0,0,1,7.249,2.767a.12.12,0,0,0-.005-.024.1.1,0,0,1-.005-.029v-.9h-.9A.9.9,0,1,1,6.334,0H9.952a.9.9,0,0,1,0,1.809h-.9v.9a.1.1,0,0,1-.005.029.12.12,0,0,0-.005.024A8.141,8.141,0,0,1,8.143,19Zm0-14.25a6.107,6.107,0,1,0,6.107,6.107A6.114,6.114,0,0,0,8.143,4.75Zm2.714,7.012H8.143a.906.906,0,0,1-.9-.9V8.143a.9.9,0,0,1,1.809,0V9.952h1.809a.9.9,0,1,1,0,1.809Z" fill="#727272"/>
  </g>
</svg>
