<svg xmlns="http://www.w3.org/2000/svg" width="368.639" height="62.593" viewBox="0 0 368.639 62.593">
  <g id="CNM_-_Unmudl_Partnership_Logo" data-name="CNM - Unmudl Partnership Logo" transform="translate(-277.538 -128.953)">
    <g id="Layer_2" data-name="Layer 2" transform="translate(476.349 129.989)">
      <g id="Layer_1" data-name="Layer 1" transform="translate(0 0.011)">
        <path id="Path_193-3" data-name="Path 193-3" d="M208.08,84.994h4.874a.9.9,0,0,1,.9.9h0v2.16h.1a5.591,5.591,0,0,1,.925-1.3A6.883,6.883,0,0,1,216.3,85.6a8.279,8.279,0,0,1,1.889-.837,7.936,7.936,0,0,1,2.317-.325,9.6,9.6,0,0,1,4.265.81A6.165,6.165,0,0,1,227.3,87.5a9.128,9.128,0,0,1,1.228,3.38,26,26,0,0,1,.325,4.218v11.521a.905.905,0,0,1-.9.9h-5.128a.9.9,0,0,1-.9-.9h0V96.491q0-.97-.069-2.008a6.33,6.33,0,0,0-.418-1.922,2.989,2.989,0,0,0-3.127-1.993,4.3,4.3,0,0,0-2.175.487,3.316,3.316,0,0,0-1.275,1.295,5.354,5.354,0,0,0-.577,1.832,15.662,15.662,0,0,0-.141,2.133v10.3a.9.9,0,0,1-.9.9H208.08a.9.9,0,0,1-.9-.9h0V85.9a.9.9,0,0,1,.892-.907Z" transform="translate(-172.517 -70.313)" fill="#fff"/>
        <path id="Path_194-3" data-name="Path 194-3" d="M365.764,84.989h4.81a.905.905,0,0,1,.9.9v2.16h.105a5.678,5.678,0,0,1,.925-1.3,6.841,6.841,0,0,1,1.437-1.158,8.223,8.223,0,0,1,1.891-.837,8.031,8.031,0,0,1,2.317-.325,8.868,8.868,0,0,1,4.193.972,6.191,6.191,0,0,1,2.757,3.06,7.569,7.569,0,0,1,2.919-3.105,10.064,10.064,0,0,1,8.037-.149,6.28,6.28,0,0,1,2.458,2.088,8.821,8.821,0,0,1,1.3,3.105,17.664,17.664,0,0,1,.392,3.81v12.4a.9.9,0,0,1-.9.9h-5.148a.9.9,0,0,1-.9-.9h0V94.4a5.223,5.223,0,0,0-.669-2.7,2.543,2.543,0,0,0-2.387-1.133,4.606,4.606,0,0,0-2.008.393,3.346,3.346,0,0,0-1.3,1.081,4.569,4.569,0,0,0-.694,1.62,8.971,8.971,0,0,0-.209,1.947v11.005a.9.9,0,0,1-.9.9h-5.156a.9.9,0,0,1-.9-.9h0V95.6c0-.4-.017-.893-.045-1.482a5.965,5.965,0,0,0-.325-1.673,3.15,3.15,0,0,0-.905-1.35,2.656,2.656,0,0,0-1.83-.557,4.3,4.3,0,0,0-2.175.487,3.31,3.31,0,0,0-1.275,1.3,5.373,5.373,0,0,0-.581,1.83,15.69,15.69,0,0,0-.137,2.133v10.325a.9.9,0,0,1-.9.9H365.7a.9.9,0,0,1-.9-.9V85.959a.964.964,0,0,1,.959-.97Z" transform="translate(-303.766 -70.308)" fill="#fff"/>
        <path id="Path_195-3" data-name="Path 195-3" d="M625.216,110.288h-4.852a.9.9,0,0,1-.9-.9v-2.16h-.092a7.694,7.694,0,0,1-.95,1.3,6.255,6.255,0,0,1-1.412,1.156,8.085,8.085,0,0,1-1.891.837,7.875,7.875,0,0,1-2.317.325,9.715,9.715,0,0,1-4.285-.811,6.106,6.106,0,0,1-2.55-2.245,8.837,8.837,0,0,1-1.206-3.385,27.391,27.391,0,0,1-.33-4.219V88.665a.9.9,0,0,1,.893-.905h5.156a.9.9,0,0,1,.905.9V98.789q0,.972.07,2.008a6.3,6.3,0,0,0,.415,1.922,3.024,3.024,0,0,0,3.144,1.993,4.28,4.28,0,0,0,2.175-.485,3.335,3.335,0,0,0,1.275-1.3,5.357,5.357,0,0,0,.581-1.829,15.7,15.7,0,0,0,.137-2.133v-10.3a.9.9,0,0,1,.888-.905h5.15a.9.9,0,0,1,.888.9v20.723a.9.9,0,0,1-.89.907Z" transform="translate(-503.304 -73.079)" fill="#fff"/>
        <path id="Path_196-3" data-name="Path 196-3" d="M785.365,48.036h-4.589a.9.9,0,0,1-.9-.9V45.069h-.094A7.614,7.614,0,0,1,778.7,46.3a8.094,8.094,0,0,1-1.574,1.134,9.772,9.772,0,0,1-1.993.837,7.863,7.863,0,0,1-2.249.323,11.641,11.641,0,0,1-4.542-.855,10.143,10.143,0,0,1-3.513-2.413,10.788,10.788,0,0,1-2.25-3.681,13.431,13.431,0,0,1-.785-4.685,14.114,14.114,0,0,1,.718-4.517,12.461,12.461,0,0,1,2.039-3.823,9.992,9.992,0,0,1,3.216-2.664,9.129,9.129,0,0,1,4.32-.985,11.839,11.839,0,0,1,4.051.669,6.489,6.489,0,0,1,3.09,2.294h.094V13.9a.9.9,0,0,1,.9-.9h5.148a.9.9,0,0,1,.9.9V47.131a.9.9,0,0,1-.9.905Zm-5.494-11.26a5.839,5.839,0,0,0-1.461-4.126,6.118,6.118,0,0,0-8.2-.007,5.834,5.834,0,0,0-1.461,4.126,5.822,5.822,0,0,0,1.461,4.124,6.128,6.128,0,0,0,8.2,0,5.844,5.844,0,0,0,1.461-4.126Z" transform="translate(-634.341 -10.827)" fill="#fff"/>
        <path id="Path_197-3" data-name="Path 197-3" d="M936.672,13h5.15a.9.9,0,0,1,.893.9h0V47.131a.9.9,0,0,1-.9.9h-5.145a.9.9,0,0,1-.9-.9h0V13.9A.9.9,0,0,1,936.672,13Z" transform="translate(-779.209 -10.827)" fill="#fff"/>
        <path id="Path_198-6" data-name="Path 198-6" d="M33.682,93.338a16.642,16.642,0,0,1-.929,5.672,12.474,12.474,0,0,1-2.762,4.5,12.679,12.679,0,0,1-4.574,2.97,17.1,17.1,0,0,1-6.311,1.081,17.251,17.251,0,0,1-6.358-1.081,12.628,12.628,0,0,1-4.569-2.971,12.5,12.5,0,0,1-2.764-4.5,16.679,16.679,0,0,1-.93-5.672V88.259a3.818,3.818,0,1,1,7.636,0h0L12.1,93.042a8.462,8.462,0,0,0,.515,2.986A7.119,7.119,0,0,0,14.057,98.4a6.525,6.525,0,0,0,2.225,1.566,6.928,6.928,0,0,0,2.811.562,6.751,6.751,0,0,0,2.789-.562,6.567,6.567,0,0,0,2.2-1.566,7.059,7.059,0,0,0,1.442-2.367,8.387,8.387,0,0,0,.514-2.986V88.259h0a3.813,3.813,0,1,1,7.623-.2c0,.067,0,.136,0,.2h0Z" transform="translate(-3.734 -70.235)" fill="#fff"/>
        <circle id="Ellipse_6-6" data-name="Ellipse 6-6" cx="4.808" cy="4.808" r="4.808" transform="translate(0 1.079)" fill="#fff"/>
        <path id="Path_199-6" data-name="Path 199-6" d="M133.529,5.781v4.35a.576.576,0,0,1-.576.576.569.569,0,0,1-.355-.124L128.584,7.4a1.327,1.327,0,0,0-1.65,0l-4.015,3.179a.576.576,0,0,1-.919-.452V5.781a.587.587,0,0,1,.154-.395L126.8.434a1.338,1.338,0,0,1,1.882-.07h.008l.059.062,4.629,4.961a.564.564,0,0,1,.152.395Z" transform="translate(-101.589 -0.011)" fill="#fff"/>
        <g id="Group_270" data-name="Group 270" transform="translate(165.519 2.056)">
          <g id="Group_258-9" data-name="Group 258-9">
            <g id="SM-9">
              <path id="Path_38" data-name="Path 38" d="M990.429,12.918a.84.84,0,0,0-.03-.092.258.258,0,0,0-.065-.089.323.323,0,0,0-.105-.07.479.479,0,0,0-.289-.008.38.38,0,0,0-.1.057.232.232,0,0,0-.062.082.182.182,0,0,0-.023.094.207.207,0,0,0,.054.141.288.288,0,0,0,.167.084l.269.052a.74.74,0,0,1,.238.08.684.684,0,0,1,.167.132.6.6,0,0,1,.105.167.574.574,0,0,1,.035.2.544.544,0,0,1-.028.226.616.616,0,0,1-.139.194.726.726,0,0,1-.224.141.836.836,0,0,1-.308.052.942.942,0,0,1-.335-.057.74.74,0,0,1-.238-.146.67.67,0,0,1-.149-.2.743.743,0,0,1-.062-.217l.36-.1a.412.412,0,0,0,.035.141.336.336,0,0,0,.08.119.451.451,0,0,0,.132.084.581.581,0,0,0,.184.03.366.366,0,0,0,.241-.069.217.217,0,0,0,.08-.167.2.2,0,0,0-.059-.149.335.335,0,0,0-.182-.087l-.269-.057a.669.669,0,0,1-.378-.194.514.514,0,0,1-.142-.373.529.529,0,0,1,.055-.243.574.574,0,0,1,.149-.2.713.713,0,0,1,.223-.132.7.7,0,0,1,.269-.049.856.856,0,0,1,.3.049.705.705,0,0,1,.214.124.634.634,0,0,1,.191.343Z" transform="translate(-989.31 -12.299)" fill="#fff"/>
              <path id="Path_39" data-name="Path 39" d="M1002.06,14.5V13.111l-.572,1.392h-.321l-.559-1.38V14.5h-.378V12.52h.5l.594,1.43.582-1.43h.524V14.5Z" transform="translate(-998.403 -12.483)" fill="#fff"/>
            </g>
          </g>
        </g>
        <path id="Path_40" data-name="Path 40" d="M16.335,317.909H2.835a1.215,1.215,0,0,1,0-2.429h13.5a1.215,1.215,0,0,1,0,2.429Z" transform="translate(-1.349 -262.7)" fill="#fff"/>
        <path id="Path_41" data-name="Path 41" d="M934.566,317.909h-13.5a1.215,1.215,0,0,1,0-2.429h13.5a1.215,1.215,0,1,1,0,2.429Z" transform="translate(-765.953 -262.7)" fill="#fff"/>
        <path id="Path_42" data-name="Path 42" d="M122.077,301.884a1.725,1.725,0,0,0,.728.631,2.173,2.173,0,0,0,.917.2,1.841,1.841,0,0,0,.535-.082,1.665,1.665,0,0,0,.5-.246,1.377,1.377,0,0,0,.365-.412,1.072,1.072,0,0,0,.142-.559.836.836,0,0,0-.284-.684,2.462,2.462,0,0,0-.708-.395c-.281-.105-.587-.209-.92-.308a3.718,3.718,0,0,1-.92-.41,2.267,2.267,0,0,1-.708-.708,2.21,2.21,0,0,1-.284-1.2,2.056,2.056,0,0,1,.614-1.425,2.6,2.6,0,0,1,.816-.532,3.041,3.041,0,0,1,1.2-.213,4.188,4.188,0,0,1,1.216.176,2.09,2.09,0,0,1,1.021.711l-.855.78a1.408,1.408,0,0,0-.56-.5,1.769,1.769,0,0,0-.821-.187,1.992,1.992,0,0,0-.729.115,1.324,1.324,0,0,0-.465.3,1.035,1.035,0,0,0-.246.39,1.172,1.172,0,0,0-.072.383.982.982,0,0,0,.284.756,2.206,2.206,0,0,0,.708.427,8.148,8.148,0,0,0,.92.3,4,4,0,0,1,.922.368,2.139,2.139,0,0,1,.706.636,1.862,1.862,0,0,1,.284,1.1,2.322,2.322,0,0,1-.212,1,2.254,2.254,0,0,1-.576.756,2.583,2.583,0,0,1-.855.472,3.336,3.336,0,0,1-1.052.167,3.849,3.849,0,0,1-1.414-.263,2.342,2.342,0,0,1-1.064-.811Z" transform="translate(-100.931 -246.099)" fill="#fff"/>
        <path id="Path_43" data-name="Path 43" d="M159.93,293.61h.987v5.354l2.235-2.247h1.37l-2.423,2.352,2.63,2.827h-1.4l-2.411-2.7v2.7h-.987Z" transform="translate(-133.173 -244.489)" fill="#fff"/>
        <path id="Path_44" data-name="Path 44" d="M193,297.351a.728.728,0,1,1,.214.51A.7.7,0,0,1,193,297.351Zm.231,1.864h.985v5.195h-.985Z" transform="translate(-160.71 -246.993)" fill="#fff"/>
        <path id="Path_45" data-name="Path 45" d="M210.1,293.61h.985V301.9H210.1Z" transform="translate(-174.949 -244.489)" fill="#fff"/>
        <path id="Path_46" data-name="Path 46" d="M225.83,293.61h.987V301.9h-.987Z" transform="translate(-188.047 -244.489)" fill="#fff"/>
        <path id="Path_47" data-name="Path 47" d="M241.7,312.76a1.529,1.529,0,0,0-.432-.366,1.251,1.251,0,0,0-.631-.149,1.2,1.2,0,0,0-.609.149.474.474,0,0,0-.258.433.492.492,0,0,0,.149.371,1.172,1.172,0,0,0,.35.231,2.029,2.029,0,0,0,.433.131l.395.077a4.548,4.548,0,0,1,.6.187,1.63,1.63,0,0,1,.482.284,1.219,1.219,0,0,1,.318.427,1.474,1.474,0,0,1,.115.614,1.442,1.442,0,0,1-.186.751,1.6,1.6,0,0,1-.482.51,2.062,2.062,0,0,1-.669.284,3.372,3.372,0,0,1-.763.087,3.04,3.04,0,0,1-1.134-.2,2.05,2.05,0,0,1-.872-.724l.746-.614a3.047,3.047,0,0,0,.537.428,1.339,1.339,0,0,0,.723.186,1.827,1.827,0,0,0,.378-.039,1.13,1.13,0,0,0,.335-.12.773.773,0,0,0,.243-.208.475.475,0,0,0,.092-.291.5.5,0,0,0-.137-.361.962.962,0,0,0-.335-.224,2.408,2.408,0,0,0-.407-.132c-.142-.033-.268-.06-.378-.082q-.316-.077-.6-.167a1.816,1.816,0,0,1-.5-.263,1.231,1.231,0,0,1-.351-.417,1.354,1.354,0,0,1-.132-.626,1.409,1.409,0,0,1,.167-.706,1.506,1.506,0,0,1,.45-.5,2.006,2.006,0,0,1,.636-.3,2.691,2.691,0,0,1,.718-.1,2.625,2.625,0,0,1,1,.2,1.6,1.6,0,0,1,.768.658Z" transform="translate(-198.597 -259.244)" fill="#fff"/>
        <path id="Path_48" data-name="Path 48" d="M270.7,325.412H268v-.922h2.7Z" transform="translate(-223.162 -270.202)" fill="#fff"/>
        <path id="Path_49" data-name="Path 49" d="M289.875,305.684h-1.414v2.356c0,.147,0,.291.012.433a1.092,1.092,0,0,0,.082.383.619.619,0,0,0,.219.274.741.741,0,0,0,.432.1,1.968,1.968,0,0,0,.363-.033,1.04,1.04,0,0,0,.335-.12v.9a1.3,1.3,0,0,1-.455.136,3.211,3.211,0,0,1-.433.038,1.989,1.989,0,0,1-.882-.157,1.09,1.09,0,0,1-.46-.412,1.338,1.338,0,0,1-.176-.566c-.018-.207-.028-.418-.028-.629v-2.707H286.33v-.855h1.139V303.37h.987v1.459h1.414Z" transform="translate(-238.425 -252.616)" fill="#fff"/>
        <path id="Path_50" data-name="Path 50" d="M313.61,313.96a2.643,2.643,0,0,1,.214-1.062,2.772,2.772,0,0,1,5.1,0,2.615,2.615,0,0,1,.214,1.062,2.664,2.664,0,0,1-.214,1.069,2.7,2.7,0,0,1-.586.867,2.808,2.808,0,0,1-3.923,0A2.7,2.7,0,0,1,313.61,313.96Zm1.052,0a2.138,2.138,0,0,0,.12.729,1.658,1.658,0,0,0,.335.57,1.574,1.574,0,0,0,.537.371,1.921,1.921,0,0,0,1.426,0,1.543,1.543,0,0,0,.537-.371,1.658,1.658,0,0,0,.335-.57,2.263,2.263,0,0,0,0-1.457,1.644,1.644,0,0,0-.335-.57,1.571,1.571,0,0,0-.537-.373,1.921,1.921,0,0,0-1.426,0,1.6,1.6,0,0,0-.537.373,1.643,1.643,0,0,0-.335.57A2.132,2.132,0,0,0,314.662,313.96Z" transform="translate(-261.14 -259.151)" fill="#fff"/>
        <path id="Path_51" data-name="Path 51" d="M354.569,325.412h-2.7v-.922h2.7Z" transform="translate(-293 -270.202)" fill="#fff"/>
        <path id="Path_52" data-name="Path 52" d="M374.183,296.76h1.051v5.546a2.707,2.707,0,0,1-.231,1.2,2.064,2.064,0,0,1-.576.734,2.026,2.026,0,0,1-.739.371,2.811,2.811,0,0,1-.723.105,2.252,2.252,0,0,1-1.387-.422,1.946,1.946,0,0,1-.718-1.278l1.031-.229a1.247,1.247,0,0,0,.361.691,1.012,1.012,0,0,0,.713.251,1.127,1.127,0,0,0,.629-.154,1.071,1.071,0,0,0,.368-.4,1.7,1.7,0,0,0,.167-.564,4.879,4.879,0,0,0,.044-.648Z" transform="translate(-308.813 -247.112)" fill="#fff"/>
        <path id="Path_53" data-name="Path 53" d="M404.767,313.96a2.642,2.642,0,0,1,.214-1.062,2.772,2.772,0,0,1,5.1,0,2.643,2.643,0,0,1,.214,1.062,2.712,2.712,0,0,1-.806,1.936,2.808,2.808,0,0,1-3.923,0,2.7,2.7,0,0,1-.8-1.936Zm1.052,0a2.137,2.137,0,0,0,.12.729,1.659,1.659,0,0,0,.335.57,1.574,1.574,0,0,0,.537.371,1.92,1.92,0,0,0,1.425,0,1.542,1.542,0,0,0,.537-.371,1.657,1.657,0,0,0,.335-.57,2.264,2.264,0,0,0,0-1.457,1.644,1.644,0,0,0-.335-.57,1.57,1.57,0,0,0-.537-.373,1.92,1.92,0,0,0-1.425,0,1.6,1.6,0,0,0-.537.373,1.645,1.645,0,0,0-.335.57A2.129,2.129,0,0,0,405.819,313.96Z" transform="translate(-337.041 -259.151)" fill="#fff"/>
        <path id="Path_54" data-name="Path 54" d="M445.22,293.61h.987v3.836h.022a1.8,1.8,0,0,1,.756-.641,2.41,2.41,0,0,1,1.052-.236,2.757,2.757,0,0,1,1.091.209,2.466,2.466,0,0,1,.837.574,2.568,2.568,0,0,1,.53.867,3.036,3.036,0,0,1,.187,1.079,2.98,2.98,0,0,1-.187,1.074,2.634,2.634,0,0,1-.53.867,2.435,2.435,0,0,1-.837.581,2.758,2.758,0,0,1-1.091.207,2.415,2.415,0,0,1-1.026-.229,1.883,1.883,0,0,1-.783-.647h-.022v.746h-.987Zm2.7,7.5a1.774,1.774,0,0,0,.713-.137,1.574,1.574,0,0,0,.537-.371,1.658,1.658,0,0,0,.335-.571,2.264,2.264,0,0,0,0-1.457,1.644,1.644,0,0,0-.335-.57,1.6,1.6,0,0,0-.537-.373,1.92,1.92,0,0,0-1.425,0,1.569,1.569,0,0,0-.537.373,1.645,1.645,0,0,0-.335.57,2.264,2.264,0,0,0,0,1.457,1.658,1.658,0,0,0,.335.571,1.543,1.543,0,0,0,.537.371A1.774,1.774,0,0,0,447.917,301.107Z" transform="translate(-370.732 -244.489)" fill="#fff"/>
        <path id="Path_55" data-name="Path 55" d="M485.856,312.76a1.516,1.516,0,0,0-.433-.366,1.248,1.248,0,0,0-.631-.149,1.2,1.2,0,0,0-.607.149.47.47,0,0,0-.258.433.49.49,0,0,0,.147.371,1.171,1.171,0,0,0,.351.231,2,2,0,0,0,.433.131l.395.077a4.59,4.59,0,0,1,.6.187,1.618,1.618,0,0,1,.483.284,1.261,1.261,0,0,1,.318.427,1.474,1.474,0,0,1,.114.614,1.442,1.442,0,0,1-.186.751,1.564,1.564,0,0,1-.482.51,2.048,2.048,0,0,1-.669.284,3.346,3.346,0,0,1-.761.087,3.028,3.028,0,0,1-1.134-.2,2.04,2.04,0,0,1-.872-.724l.745-.614a3.054,3.054,0,0,0,.537.428,1.339,1.339,0,0,0,.724.186,1.843,1.843,0,0,0,.378-.039,1.149,1.149,0,0,0,.335-.12.748.748,0,0,0,.241-.208.477.477,0,0,0,.094-.291.5.5,0,0,0-.137-.361.968.968,0,0,0-.335-.224,2.387,2.387,0,0,0-.4-.132c-.142-.033-.269-.06-.378-.082-.212-.052-.413-.111-.6-.167a1.841,1.841,0,0,1-.5-.263,1.25,1.25,0,0,1-.351-.417,1.354,1.354,0,0,1-.13-.626,1.427,1.427,0,0,1,.167-.706,1.533,1.533,0,0,1,.45-.5,2.006,2.006,0,0,1,.636-.3,2.7,2.7,0,0,1,.718-.1,2.626,2.626,0,0,1,1,.2,1.6,1.6,0,0,1,.766.658Z" transform="translate(-401.908 -259.244)" fill="#fff"/>
        <path id="Path_56" data-name="Path 56" d="M533.573,296.76h1.574l2.466,5.874h.043l2.444-5.874h1.568v7.76h-1.052v-6.381H540.6l-2.62,6.379h-.7l-2.628-6.379h-.024v6.379H533.57Z" transform="translate(-444.3 -247.112)" fill="#fff"/>
        <path id="Path_57" data-name="Path 57" d="M590.648,312.065a2.737,2.737,0,0,1,.964-.576,3.285,3.285,0,0,1,1.1-.192,3.04,3.04,0,0,1,.981.142,1.891,1.891,0,0,1,.669.385,1.506,1.506,0,0,1,.388.552,1.743,1.743,0,0,1,.127.652v2.652c0,.184,0,.351.01.5s.018.3.034.438h-.877c-.022-.263-.033-.527-.033-.79h-.013a1.889,1.889,0,0,1-.778.713,2.451,2.451,0,0,1-1.041.207,2.4,2.4,0,0,1-.691-.1,1.721,1.721,0,0,1-.576-.3,1.431,1.431,0,0,1-.39-.489,1.533,1.533,0,0,1-.142-.669,1.505,1.505,0,0,1,.224-.837,1.7,1.7,0,0,1,.614-.554,2.975,2.975,0,0,1,.91-.306,6.2,6.2,0,0,1,1.112-.094h.723v-.219a1.1,1.1,0,0,0-.075-.395,1.071,1.071,0,0,0-.231-.356,1.132,1.132,0,0,0-.383-.253,1.467,1.467,0,0,0-.549-.092,2.1,2.1,0,0,0-.5.054,2.368,2.368,0,0,0-.39.137,1.761,1.761,0,0,0-.318.192c-.094.074-.186.142-.273.207Zm2.784,2.06a7.021,7.021,0,0,0-.718.038,2.846,2.846,0,0,0-.669.149,1.277,1.277,0,0,0-.5.306.7.7,0,0,0-.191.5.718.718,0,0,0,.3.648,1.484,1.484,0,0,0,.816.2,1.576,1.576,0,0,0,.691-.137,1.319,1.319,0,0,0,.46-.356,1.373,1.373,0,0,0,.253-.489,1.949,1.949,0,0,0,.075-.53v-.335Z" transform="translate(-491.602 -259.216)" fill="#fff"/>
        <path id="Path_58" data-name="Path 58" d="M625.9,311.432h.985v.8h.022a1.426,1.426,0,0,1,.264-.378,1.706,1.706,0,0,1,.366-.291,1.9,1.9,0,0,1,.445-.191,1.658,1.658,0,0,1,.482-.072,1.4,1.4,0,0,1,.438.065l-.044,1.064c-.082-.022-.167-.04-.243-.055a1.3,1.3,0,0,0-.241-.022,1.451,1.451,0,0,0-1.106.4,1.789,1.789,0,0,0-.385,1.262v2.608H625.9Z" transform="translate(-521.183 -259.219)" fill="#fff"/>
        <path id="Path_59" data-name="Path 59" d="M650.115,293.61h.98v5.354l2.237-2.247h1.37l-2.423,2.357,2.63,2.828h-1.4L651.1,299.2v2.7h-.985Z" transform="translate(-541.342 -244.489)" fill="#fff"/>
        <path id="Path_60" data-name="Path 60" d="M683.393,314.384a1.327,1.327,0,0,0,.147.621,1.534,1.534,0,0,0,.39.475,1.79,1.79,0,0,0,.559.308,1.994,1.994,0,0,0,.658.109,1.478,1.478,0,0,0,.8-.212,2.592,2.592,0,0,0,.624-.566l.745.57a2.733,2.733,0,0,1-2.3,1.062,2.855,2.855,0,0,1-1.113-.207,2.437,2.437,0,0,1-.837-.576,2.56,2.56,0,0,1-.53-.865,3.04,3.04,0,0,1-.187-1.081,2.831,2.831,0,0,1,.2-1.079,2.675,2.675,0,0,1,.561-.867,2.542,2.542,0,0,1,.848-.574,2.738,2.738,0,0,1,1.074-.209,2.572,2.572,0,0,1,1.171.241,2.3,2.3,0,0,1,.783.631,2.511,2.511,0,0,1,.445.877,3.673,3.673,0,0,1,.135.992v.35Zm3.114-.788a2.136,2.136,0,0,0-.105-.6,1.313,1.313,0,0,0-.279-.475,1.265,1.265,0,0,0-.465-.318,1.708,1.708,0,0,0-.653-.116,1.572,1.572,0,0,0-.669.137,1.611,1.611,0,0,0-.5.355,1.677,1.677,0,0,0-.323.489,1.339,1.339,0,0,0-.115.532Z" transform="translate(-568.187 -259.213)" fill="#fff"/>
        <path id="Path_61" data-name="Path 61" d="M719.547,305.684h-1.414v2.356c0,.147,0,.291.012.433a1.088,1.088,0,0,0,.082.383.62.62,0,0,0,.219.274.742.742,0,0,0,.432.1,1.968,1.968,0,0,0,.363-.033,1.054,1.054,0,0,0,.335-.12v.9a1.3,1.3,0,0,1-.455.136,3.223,3.223,0,0,1-.433.038,1.989,1.989,0,0,1-.882-.157,1.081,1.081,0,0,1-.46-.412,1.336,1.336,0,0,1-.176-.566c-.019-.207-.028-.418-.028-.629v-2.707H716v-.855h1.139V303.37h.987v1.459h1.414Z" transform="translate(-596.208 -252.616)" fill="#fff"/>
        <path id="Path_62" data-name="Path 62" d="M744.8,311.431h.987v.744h.022a1.858,1.858,0,0,1,.783-.646,2.419,2.419,0,0,1,1.026-.231,2.743,2.743,0,0,1,1.089.209,2.379,2.379,0,0,1,.836.581,2.593,2.593,0,0,1,.532.87,3.039,3.039,0,0,1,.186,1.069,3.075,3.075,0,0,1-.186,1.081,2.535,2.535,0,0,1-.532.865,2.435,2.435,0,0,1-.836.576,2.743,2.743,0,0,1-1.089.207,2.428,2.428,0,0,1-1.052-.234,1.784,1.784,0,0,1-.756-.642h-.022v3.836H744.8Zm2.7.788a1.791,1.791,0,0,0-.711.137,1.571,1.571,0,0,0-.537.373,1.616,1.616,0,0,0-.335.571,2.264,2.264,0,0,0,0,1.457,1.632,1.632,0,0,0,.335.57,1.544,1.544,0,0,0,.537.371,1.916,1.916,0,0,0,1.424,0,1.544,1.544,0,0,0,.537-.371,1.634,1.634,0,0,0,.335-.57,2.262,2.262,0,0,0,0-1.457,1.622,1.622,0,0,0-.335-.571,1.57,1.57,0,0,0-.537-.373A1.793,1.793,0,0,0,747.5,312.219Z" transform="translate(-620.19 -259.218)" fill="#fff"/>
        <path id="Path_63" data-name="Path 63" d="M785.28,293.61h.987V301.9h-.987Z" transform="translate(-653.897 -244.489)" fill="#fff"/>
        <path id="Path_64" data-name="Path 64" d="M799.322,312.065a2.737,2.737,0,0,1,.964-.576,3.284,3.284,0,0,1,1.1-.192,3.049,3.049,0,0,1,.982.142,1.907,1.907,0,0,1,.669.385,1.525,1.525,0,0,1,.388.552,1.744,1.744,0,0,1,.125.653v2.652c0,.184,0,.351.012.5s.018.3.033.438h-.872c-.022-.263-.033-.527-.033-.79h-.022a1.889,1.889,0,0,1-.778.713,2.455,2.455,0,0,1-1.042.207,2.4,2.4,0,0,1-.689-.1,1.72,1.72,0,0,1-.576-.3,1.41,1.41,0,0,1-.39-.488,1.549,1.549,0,0,1,.7-2.071,2.96,2.96,0,0,1,.91-.306,6.169,6.169,0,0,1,1.113-.094h.723v-.219a1.07,1.07,0,0,0-.077-.395,1.041,1.041,0,0,0-.229-.356,1.125,1.125,0,0,0-.385-.253,1.453,1.453,0,0,0-.547-.092,2.091,2.091,0,0,0-.5.054,2.356,2.356,0,0,0-.39.137,1.7,1.7,0,0,0-.318.192c-.094.074-.186.142-.273.207Zm2.784,2.06a7.033,7.033,0,0,0-.718.038,2.829,2.829,0,0,0-.669.149,1.278,1.278,0,0,0-.494.306.7.7,0,0,0-.191.5.718.718,0,0,0,.3.647,1.481,1.481,0,0,0,.816.2,1.581,1.581,0,0,0,.691-.137,1.321,1.321,0,0,0,.46-.356,1.368,1.368,0,0,0,.251-.489,1.887,1.887,0,0,0,.077-.53v-.335Z" transform="translate(-665.363 -259.216)" fill="#fff"/>
        <path id="Path_65" data-name="Path 65" d="M836.99,312.869a2.11,2.11,0,0,0-.576-.433,1.621,1.621,0,0,0-.718-.147,1.587,1.587,0,0,0-.708.147,1.424,1.424,0,0,0-.5.406,1.825,1.825,0,0,0-.308.591,2.356,2.356,0,0,0-.1.7,1.946,1.946,0,0,0,.12.686,1.727,1.727,0,0,0,.335.564,1.537,1.537,0,0,0,.527.378,1.658,1.658,0,0,0,.689.137,1.579,1.579,0,0,0,.713-.147,1.829,1.829,0,0,0,.549-.433l.7.7a2.2,2.2,0,0,1-.893.614,3.124,3.124,0,0,1-1.079.186,2.992,2.992,0,0,1-1.1-.2,2.562,2.562,0,0,1-.86-.554,2.453,2.453,0,0,1-.559-.855,2.96,2.96,0,0,1-.2-1.1,2.994,2.994,0,0,1,.2-1.106,2.543,2.543,0,0,1,.554-.867,2.513,2.513,0,0,1,.855-.564,2.915,2.915,0,0,1,1.113-.2,2.96,2.96,0,0,1,1.089.2,2.4,2.4,0,0,1,.905.619Z" transform="translate(-693.649 -259.276)" fill="#fff"/>
        <path id="Path_66" data-name="Path 66" d="M865.375,314.383a1.306,1.306,0,0,0,.147.621,1.531,1.531,0,0,0,.39.475,1.789,1.789,0,0,0,.559.308,1.979,1.979,0,0,0,.657.109,1.471,1.471,0,0,0,.8-.212,2.6,2.6,0,0,0,.626-.566l.745.571a2.74,2.74,0,0,1-2.3,1.062,2.867,2.867,0,0,1-1.113-.207,2.43,2.43,0,0,1-.837-.576,2.54,2.54,0,0,1-.532-.865,3.078,3.078,0,0,1-.186-1.081,2.833,2.833,0,0,1,.2-1.079,2.691,2.691,0,0,1,.559-.867,2.553,2.553,0,0,1,.85-.574,2.729,2.729,0,0,1,1.074-.209,2.565,2.565,0,0,1,1.171.241,2.3,2.3,0,0,1,.785.631,2.479,2.479,0,0,1,.443.877,3.612,3.612,0,0,1,.137.992v.35Zm3.112-.788a2.082,2.082,0,0,0-.1-.6,1.31,1.31,0,0,0-.279-.475,1.265,1.265,0,0,0-.465-.318,1.707,1.707,0,0,0-.653-.115,1.576,1.576,0,0,0-.669.137,1.6,1.6,0,0,0-.5.355,1.635,1.635,0,0,0-.323.489,1.339,1.339,0,0,0-.115.532Z" transform="translate(-719.721 -259.212)" fill="#fff"/>
        <g id="Group_270-2" data-name="Group 270-2" transform="translate(148.98 49.107)">
          <g id="Group_258-9-2" data-name="Group 258-9-2">
            <g id="SM-9-2">
              <path id="Path_67" data-name="Path 67" d="M891.6,294.149a.451.451,0,0,0-.03-.092.307.307,0,0,0-.062-.092.36.36,0,0,0-.107-.067.443.443,0,0,0-.167-.03.424.424,0,0,0-.129.022.3.3,0,0,0-.1.057.214.214,0,0,0-.062.079.183.183,0,0,0-.022.094.212.212,0,0,0,.05.144.264.264,0,0,0,.167.08l.271.055a.815.815,0,0,1,.238.08.7.7,0,0,1,.167.132.573.573,0,0,1,.144.37.592.592,0,0,1-.05.227.584.584,0,0,1-.137.194.685.685,0,0,1-.224.137.793.793,0,0,1-.3.055.956.956,0,0,1-.343-.057.732.732,0,0,1-.238-.149.557.557,0,0,1-.146-.2.571.571,0,0,1-.062-.216l.356-.094a.508.508,0,0,0,.035.141.411.411,0,0,0,.084.119.358.358,0,0,0,.129.08.5.5,0,0,0,.186.034.364.364,0,0,0,.238-.07.219.219,0,0,0,.037-.308l-.015-.017a.319.319,0,0,0-.177-.084l-.271-.057a.7.7,0,0,1-.376-.194.5.5,0,0,1-.141-.373.545.545,0,0,1,.054-.246.59.59,0,0,1,.149-.2.652.652,0,0,1,.221-.129.705.705,0,0,1,.269-.049.839.839,0,0,1,.308.049.666.666,0,0,1,.211.124.549.549,0,0,1,.131.167.631.631,0,0,1,.062.167Z" transform="translate(-890.46 -293.528)" fill="#fff"/>
              <path id="Path_68" data-name="Path 68" d="M903.362,295.778v-1.389l-.57,1.389h-.321L901.9,294.4v1.377h-.372V293.8h.5l.6,1.434.581-1.434h.539v1.983Z" transform="translate(-899.678 -293.754)" fill="#fff"/>
              <path id="Path_69" data-name="Path 69" d="M891.6,294.149a.452.452,0,0,0-.03-.092.25.25,0,0,0-.062-.089.35.35,0,0,0-.107-.07.44.44,0,0,0-.167-.03.42.42,0,0,0-.129.022.3.3,0,0,0-.1.057.214.214,0,0,0-.062.079.183.183,0,0,0-.022.094.212.212,0,0,0,.05.144.264.264,0,0,0,.167.08l.271.055a.815.815,0,0,1,.238.08.7.7,0,0,1,.167.132.573.573,0,0,1,.144.37.592.592,0,0,1-.05.227.583.583,0,0,1-.137.194.684.684,0,0,1-.224.137.791.791,0,0,1-.3.055.956.956,0,0,1-.343-.057.73.73,0,0,1-.238-.149.557.557,0,0,1-.146-.2.571.571,0,0,1-.062-.216l.356-.094a.508.508,0,0,0,.035.141.41.41,0,0,0,.084.119.356.356,0,0,0,.129.08.5.5,0,0,0,.186.034.363.363,0,0,0,.238-.07.219.219,0,0,0,.037-.308l-.015-.017a.32.32,0,0,0-.177-.084l-.271-.057a.7.7,0,0,1-.376-.194.5.5,0,0,1-.141-.373.545.545,0,0,1,.054-.246.59.59,0,0,1,.149-.2.757.757,0,0,1,.485-.177.836.836,0,0,1,.308.049.688.688,0,0,1,.211.124.523.523,0,0,1,.129.167.588.588,0,0,1,.064.167Z" transform="translate(-890.46 -293.528)" fill="#fff"/>
              <path id="Path_70" data-name="Path 70" d="M903.362,295.779v-1.39l-.57,1.39h-.321L901.9,294.4v1.379h-.372V293.8h.5l.6,1.434.581-1.434h.539v1.986Z" transform="translate(-899.678 -293.754)" fill="#fff"/>
            </g>
          </g>
        </g>
      </g>
    </g>
    <g id="CNM_Logos-01" transform="translate(238.961 118.388)">
      <g id="Layer_1-2" data-name="Layer 1" transform="translate(38.577 10.564)">
        <path id="Path_1" data-name="Path 1" d="M113.15,12.43h11.262L134,26.3h.092V12.43h10.489V45.739h-9.542L123.407,30.556h-.092l-.024,15.183H113.14Z" transform="translate(-77.099 -11.528)" fill="#fff"/>
        <path id="Path_2" data-name="Path 2" d="M186.12,12.43H201.7l5.08,17.256h.092l5-17.256H227.23V45.739h-9.953V28.033h-.092l-5.834,17.706h-9.29l-5.849-17.744h-.092V45.739h-10Z" transform="translate(-114.803 -11.528)" fill="#fff"/>
        <path id="Path_3" data-name="Path 3" d="M277.74,12.36v7.217l12.423,9.348L277.74,38.554V45.7l14-11.006V23.168Z" transform="translate(-162.137 -11.492)" fill="#fff"/>
        <path id="Path_4" data-name="Path 4" d="M306.14,46.239V34.3l7.782,5.96Zm.517-10.968v10l6.472-5.013Z" transform="translate(-176.809 -22.827)" fill="#fff"/>
        <path id="Path_5" data-name="Path 5" d="M52.538,28.282C52.49,32.038,56.347,35.837,63.3,35.1a32.043,32.043,0,0,0,7.487-1.523v9.982c-2.934,1.054-4.6,1.9-11.388,2.02,0,0-21.017,1.808-20.823-17.643v.053C38.656,8.537,59.644,10.63,59.644,10.63c6.767.218,8.217,1.078,11.146,2.18v9.982a31.419,31.419,0,0,0-7.4-1.619c-6.941-.836-10.852,2.9-10.856,6.661Z" transform="translate(-38.577 -10.564)" fill="#fff"/>
      </g>
      <g id="Layer_2-2" data-name="Layer 2" transform="translate(43.374 47.511)">
        <path id="Path_6" data-name="Path 6" d="M54.209,96.051a2.654,2.654,0,0,1-2.615,1.735c-2.417,0-3.094-2.238-3.094-4.524s.667-4.524,3.094-4.524a2.7,2.7,0,0,1,2.678,1.9l-1.421.88c-.213-.72-.59-1.2-1.257-1.2-1.117,0-1.45,1.368-1.45,2.953s.343,2.953,1.45,2.953c.628,0,1.005-.44,1.218-1.107Z" transform="translate(-48.5 -87.897)" fill="#fff"/>
        <path id="Path_7" data-name="Path 7" d="M63.914,96.42c.063.967.363,1.735,1.344,1.735a1.366,1.366,0,0,0,1.218-.967l1.146.967a2.828,2.828,0,0,1-2.567,1.431c-1.8,0-2.755-1.368-2.755-3.645s1.02-3.722,2.755-3.722c2.223,0,2.6,1.933,2.6,3.785v.416Zm2.175-1.17c-.029-.918-.28-1.721-.967-1.721-.8,0-1.1.817-1.194,1.721Z" transform="translate(-55.63 -89.697)" fill="#fff"/>
        <path id="Path_8" data-name="Path 8" d="M80.182,99.459V95.012c0-.706-.266-1.344-1.02-1.344S78.1,94.219,78.1,94.9v4.563H76.46v-6.1a3.06,3.06,0,0,0-.14-1.02h1.45a4.3,4.3,0,0,1,.189.783h0a1.933,1.933,0,0,1,1.721-.909c1.561,0,2.127,1.32,2.127,2.765v4.476Z" transform="translate(-62.873 -89.695)" fill="#fff"/>
        <path id="Path_9" data-name="Path 9" d="M94.171,97.409a4.722,4.722,0,0,1-1.092.111c-1.5,0-2.049-.769-2.049-2.185V91.676h-.74v-1.4h.74V88.22h1.634v2.059h1.353v1.4H92.663v3.519a.725.725,0,0,0,.73.8.885.885,0,0,0,.512-.126Z" transform="translate(-70.09 -87.63)" fill="#fff"/>
        <path id="Path_10" data-name="Path 10" d="M101.475,99.447v-6.1a3.045,3.045,0,0,0-.135-1.02h1.45a4.834,4.834,0,0,1,.237,1.068h.029a2.132,2.132,0,0,1,2.035-1.2l-.227,1.933a1.276,1.276,0,0,0-1.755,1.31v4.007Z" transform="translate(-75.799 -89.683)" fill="#fff"/>
        <path id="Path_11" data-name="Path 11" d="M113.96,99.461a2.074,2.074,0,0,1-.2-.754h-.029a1.933,1.933,0,0,1-1.643.88,1.879,1.879,0,0,1-1.909-2.122c0-1.31,1.039-2.277,3.529-2.277v-.276c0-.754-.261-1.271-.967-1.271a1.513,1.513,0,0,0-1.257.967l-.967-1.155a3.224,3.224,0,0,1,2.514-1.233c1.242,0,2.31.831,2.31,2.9V98.4a2.344,2.344,0,0,0,.2,1.054Zm-.251-3.127c-1.107-.053-1.987.324-1.987,1.131a.711.711,0,0,0,.706.8,1.357,1.357,0,0,0,1.281-1.508Z" transform="translate(-80.366 -89.697)" fill="#fff"/>
        <path id="Path_12" data-name="Path 12" d="M124.66,97.384V88.2h1.614v9.184Z" transform="translate(-87.847 -87.62)" fill="#fff"/>
        <path id="Path_13" data-name="Path 13" d="M143.17,97.8l-2.248-4.93c-.1-.237-.213-.59-.213-.59h0V97.8h-1.45V89h1.556L143,93.834c.1.213.213.59.213.59h0V89h1.45v8.8Z" transform="translate(-95.39 -88.033)" fill="#fff"/>
        <path id="Path_14" data-name="Path 14" d="M155.5,96.41c.063.967.367,1.735,1.349,1.735a1.392,1.392,0,0,0,1.218-.967l1.146.967a2.833,2.833,0,0,1-2.581,1.421c-1.793,0-2.75-1.368-2.75-3.645s1.02-3.722,2.75-3.722c2.228,0,2.605,1.933,2.605,3.785V96.4Zm2.175-1.17c0-.918-.276-1.721-.967-1.721-.8,0-1.107.817-1.194,1.721Z" transform="translate(-102.943 -89.687)" fill="#fff"/>
        <path id="Path_15" data-name="Path 15" d="M172.546,99.581l-.967-3.867c-.087-.353-.164-.856-.164-.856h-.024s-.077.483-.164.856l-.943,3.867h-1.769l-1.885-7.1h1.759l.865,4.225c.063.314.14.865.14.865h0s.087-.551.164-.851l1.054-4.239h1.523l1.078,4.239c.077.314.179.851.179.851h.024s.063-.527.126-.851l.841-4.239h1.759l-1.861,7.1Z" transform="translate(-109.53 -89.831)" fill="#fff"/>
        <path id="Path_16" data-name="Path 16" d="M201.369,97.8V91.784h0a5.161,5.161,0,0,1-.275.483L199.571,94.8h-.024l-1.484-2.513-.3-.556h-.029V97.8H196.1V89h1.808l1.334,2.364c.111.2.29.551.29.551h.024l.3-.566L201.19,89H203v8.8Z" transform="translate(-124.755 -88.033)" fill="#fff"/>
        <path id="Path_17" data-name="Path 17" d="M215.379,96.41c.063.967.367,1.735,1.344,1.735a1.377,1.377,0,0,0,1.223-.967l1.141.967a2.823,2.823,0,0,1-2.576,1.421c-1.8,0-2.75-1.368-2.75-3.645s1.015-3.722,2.75-3.722c2.223,0,2.6,1.933,2.6,3.785V96.4Zm2.175-1.17c-.024-.918-.276-1.721-.967-1.721-.807,0-1.107.817-1.194,1.721Z" transform="translate(-133.879 -89.687)" fill="#fff"/>
        <path id="Path_18" data-name="Path 18" d="M232.217,99.585h-1.7l-.677-1.721c-.126-.314-.261-.744-.261-.744h-.029s-.15.43-.276.744l-.691,1.721h-1.7l1.561-3.567L226.89,92.47h1.7l.677,1.7c.116.29.276.74.276.74h.029s.15-.45.261-.74l.691-1.711h1.7l-1.556,3.548Z" transform="translate(-140.662 -89.821)" fill="#fff"/>
        <path id="Path_19" data-name="Path 19" d="M240.36,87.967a.967.967,0,1,1,.967.967A1,1,0,0,1,240.36,87.967Zm.16,8.783v-7.1h1.634v7.115Z" transform="translate(-147.621 -87)" fill="#fff"/>
        <path id="Path_20" data-name="Path 20" d="M252.429,98.093a2.417,2.417,0,0,1-2.364,1.45c-1.8,0-2.765-1.368-2.765-3.645s1.03-3.722,2.765-3.722a2.46,2.46,0,0,1,2.364,1.45l-1.286,1.083c-.111-.6-.44-.967-1.005-.967-1.005,0-1.179,1.054-1.179,2.185s.14,2.136,1.179,2.136c.58,0,.87-.483,1.059-1.02Z" transform="translate(-151.207 -89.673)" fill="#fff"/>
        <path id="Path_21" data-name="Path 21" d="M260,95.894c0-2.238.865-3.674,2.789-3.674s2.8,1.45,2.8,3.674-.87,3.693-2.8,3.693S260,98.156,260,95.894Zm3.944,0c0-1.1-.2-2.214-1.155-2.214s-1.146,1.117-1.146,2.214.213,2.223,1.146,2.223,1.175-1.083,1.175-2.223Z" transform="translate(-157.768 -89.697)" fill="#fff"/>
        <path id="Path_22" data-name="Path 22" d="M54.469,123.051a2.654,2.654,0,0,1-2.615,1.735c-2.417,0-3.094-2.238-3.094-4.524s.667-4.524,3.094-4.524a2.7,2.7,0,0,1,2.678,1.9l-1.421.88c-.213-.73-.59-1.208-1.257-1.208-1.117,0-1.45,1.368-1.45,2.953s.343,2.953,1.45,2.953c.628,0,1.005-.44,1.218-1.107Z" transform="translate(-48.634 -101.846)" fill="#fff"/>
        <path id="Path_23" data-name="Path 23" d="M62.75,122.894c0-2.238.87-3.674,2.789-3.674s2.8,1.45,2.8,3.674-.865,3.693-2.8,3.693S62.75,125.156,62.75,122.894Zm3.949,0c0-1.1-.2-2.214-1.16-2.214S64.4,121.8,64.4,122.894s.213,2.223,1.141,2.223S66.7,124.034,66.7,122.894Z" transform="translate(-55.862 -103.646)" fill="#fff"/>
        <path id="Path_24" data-name="Path 24" d="M84.305,126.454V121.62c0-.706-.353-.967-.793-.967-.628,0-.918.575-.918,1.242v4.563H80.961v-4.834c0-.706-.353-.967-.793-.967-.628,0-.918.575-.918,1.242v4.563H77.63v-6.1a3.06,3.06,0,0,0-.14-1.02h1.421a4.349,4.349,0,0,1,.189.769h.024a1.817,1.817,0,0,1,1.61-.894,1.629,1.629,0,0,1,1.648,1h0a1.817,1.817,0,0,1,1.711-1c1.45,0,1.822,1,1.822,2.364v4.877Z" transform="translate(-63.477 -103.639)" fill="#fff"/>
        <path id="Path_25" data-name="Path 25" d="M105.471,126.454V121.62c0-.706-.353-.967-.793-.967-.628,0-.918.575-.918,1.242v4.563h-1.634v-4.834c0-.706-.348-.967-.788-.967-.628,0-.918.575-.918,1.242v4.563H98.8v-6.1a3.045,3.045,0,0,0-.135-1.02h1.421a4.352,4.352,0,0,1,.189.769h0a1.808,1.808,0,0,1,1.61-.894,1.624,1.624,0,0,1,1.643,1h0a1.822,1.822,0,0,1,1.711-1c1.45,0,1.822,1,1.822,2.364v4.877Z" transform="translate(-74.414 -103.639)" fill="#fff"/>
        <path id="Path_26" data-name="Path 26" d="M123.78,126.6a4.176,4.176,0,0,1-.189-.778h-.029a1.967,1.967,0,0,1-1.73.9c-1.547,0-2.112-1.32-2.112-2.765V119.48h1.634v4.461c0,.706.261,1.349,1.015,1.349s1.068-.619,1.068-1.349V119.48h1.634v6.1a3.059,3.059,0,0,0,.14,1.02Z" transform="translate(-85.295 -103.78)" fill="#fff"/>
        <path id="Path_27" data-name="Path 27" d="M138.732,126.459v-4.447c0-.706-.266-1.344-1.02-1.344s-1.068.566-1.068,1.242v4.563H135.01v-6.11a3.06,3.06,0,0,0-.14-1.02h1.45a4.3,4.3,0,0,1,.189.783h.024a1.933,1.933,0,0,1,1.721-.909c1.561,0,2.127,1.32,2.127,2.765v4.476Z" transform="translate(-93.122 -103.644)" fill="#fff"/>
        <path id="Path_28" data-name="Path 28" d="M150.08,114.967a1,1,0,0,1,1-.967.967.967,0,0,1,.967.967.981.981,0,0,1-1.962,0Zm.164,8.783v-7.1h1.634v7.115Z" transform="translate(-100.98 -100.949)" fill="#fff"/>
        <path id="Path_29" data-name="Path 29" d="M160.867,124.409a4.752,4.752,0,0,1-1.092.111c-1.5,0-2.049-.769-2.049-2.185v-3.659H157v-1.4h.744V115.22h1.634v2.059h1.368v1.4h-1.368v3.519a.725.725,0,0,0,.73.8.884.884,0,0,0,.512-.126Z" transform="translate(-104.555 -101.579)" fill="#fff"/>
        <path id="Path_30" data-name="Path 30" d="M167.139,119.48h1.885l.894,3.746.164.754h.024s.1-.483.164-.778l.88-3.722h1.759l-1.933,7.115c-.483,1.861-1.155,2.615-2.359,2.615a2.228,2.228,0,0,1-1.648-.59l.8-1.349a.967.967,0,0,0,.73.43c.483,0,.653-.4.831-1.068Z" transform="translate(-109.706 -103.78)" fill="#fff"/>
        <path id="Path_31" data-name="Path 31" d="M194.5,123.051a2.654,2.654,0,0,1-2.615,1.735c-2.417,0-3.089-2.238-3.089-4.524s.667-4.524,3.089-4.524a2.692,2.692,0,0,1,2.678,1.9l-1.421.88c-.213-.73-.59-1.208-1.257-1.208-1.117,0-1.45,1.368-1.45,2.953s.338,2.953,1.45,2.953c.628,0,1.005-.44,1.223-1.107Z" transform="translate(-120.984 -101.846)" fill="#fff"/>
        <path id="Path_32" data-name="Path 32" d="M202.79,122.894c0-2.238.865-3.674,2.789-3.674s2.8,1.45,2.8,3.674-.87,3.693-2.8,3.693S202.79,125.156,202.79,122.894Zm3.944,0c0-1.1-.2-2.214-1.155-2.214s-1.146,1.117-1.146,2.214.213,2.223,1.146,2.223,1.179-1.083,1.179-2.223Z" transform="translate(-128.211 -103.646)" fill="#fff"/>
        <path id="Path_33" data-name="Path 33" d="M217.68,124.384V115.2h1.634v9.184Z" transform="translate(-135.904 -101.569)" fill="#fff"/>
        <path id="Path_34" data-name="Path 34" d="M225.17,124.384V115.2H226.8v9.184Z" transform="translate(-139.774 -101.569)" fill="#fff"/>
        <path id="Path_35" data-name="Path 35" d="M233.5,123.41c.063.967.367,1.735,1.349,1.735a1.392,1.392,0,0,0,1.218-.967l1.141.967a2.818,2.818,0,0,1-2.576,1.421c-1.793,0-2.75-1.368-2.75-3.645s1.02-3.722,2.75-3.722c2.228,0,2.605,1.933,2.605,3.785v.416Zm2.175-1.17c0-.918-.276-1.721-.967-1.721-.8,0-1.107.817-1.194,1.721Z" transform="translate(-143.24 -103.636)" fill="#fff"/>
        <path id="Path_36" data-name="Path 36" d="M249.326,125.583a1.871,1.871,0,0,1-1.494.667c-1.474,0-2.252-1.411-2.252-3.6s.943-3.384,2.465-3.384a1.933,1.933,0,0,1,1.45.682h.024c.068-.314.14-.556.14-.556h1.508a3.291,3.291,0,0,0-.213,1.02v5.767c0,2.011-.894,3.132-2.687,3.132a2.581,2.581,0,0,1-2.417-1.358l1.242-1.146c.213.517.483,1,1.146,1,.74,0,1.092-.483,1.092-1.421v-.778Zm0-3.722a1.063,1.063,0,0,0-.967-1.17c-.967,0-1.117.918-1.117,1.962s.135,2.074,1.03,2.074c.793,0,1.068-.715,1.068-1.32Z" transform="translate(-150.318 -103.672)" fill="#fff"/>
        <path id="Path_37" data-name="Path 37" d="M261.889,123.41c.063.967.367,1.735,1.349,1.735a1.392,1.392,0,0,0,1.218-.967l1.141.967a2.818,2.818,0,0,1-2.576,1.421c-1.793,0-2.75-1.368-2.75-3.645s1.02-3.722,2.75-3.722c2.228,0,2.605,1.933,2.605,3.785v.416Zm2.175-1.17c-.024-.918-.276-1.721-.967-1.721-.8,0-1.107.817-1.194,1.721Z" transform="translate(-157.908 -103.636)" fill="#fff"/>
      </g>
    </g>
    <line id="Line_1" data-name="Line 1" y2="60.5" transform="translate(445.5 130)" fill="none" stroke="#fff" stroke-linecap="round" stroke-width="1" opacity="0.443"/>
  </g>
</svg>
