<svg id="Continuing_Education_Units" data-name="Continuing Education Units" xmlns="http://www.w3.org/2000/svg" width="22" height="22" viewBox="0 0 22 22">
  <g id="Group_3289" data-name="Group 3289">
    <rect id="Rectangle_1262" data-name="Rectangle 1262" width="22" height="22" fill="none"/>
  </g>
  <g id="Group_3292" data-name="Group 3292" transform="translate(4.58 2.75)">
    <g id="Group_3290" data-name="Group 3290">
      <path id="Path_5448" data-name="Path 5448" d="M11.416,3a6.157,6.157,0,0,0-1.283.128A6.409,6.409,0,0,0,7.145,14.2a1.783,1.783,0,0,1,.605,1.348v2.118A1.839,1.839,0,0,0,9.583,19.5H9.84a1.814,1.814,0,0,0,3.153,0h.257a1.839,1.839,0,0,0,1.833-1.833V15.549a1.778,1.778,0,0,1,.587-1.338A6.41,6.41,0,0,0,11.416,3ZM13.25,15.833H9.583v-.917H13.25ZM9.583,17.667V16.75H13.25v.917Zm4.868-4.822c-.083.073-.147.165-.22.238H8.593a2.827,2.827,0,0,0-.22-.248A4.581,4.581,0,1,1,16,9.417,4.558,4.558,0,0,1,14.451,12.845Z" transform="translate(-4.997 -3)" fill="#656565"/>
    </g>
    <g id="Group_3291" data-name="Group 3291" transform="translate(4.286 5.384)">
      <rect id="Rectangle_1263" data-name="Rectangle 1263" width="0.917" height="2.75" transform="translate(1.675 1.949)" fill="#656565"/>
      <rect id="Rectangle_1264" data-name="Rectangle 1264" width="0.917" height="2.75" transform="translate(0 0.648) rotate(-45)" fill="#656565"/>
      <rect id="Rectangle_1265" data-name="Rectangle 1265" width="0.917" height="2.75" transform="translate(2.324 2.602) rotate(-135)" fill="#656565"/>
    </g>
  </g>
</svg>
