<svg xmlns="http://www.w3.org/2000/svg" width="11.92" height="13.631" viewBox="0 0 11.92 13.631">
  <g id="Copy_Link" data-name="Copy Link" transform="translate(-1067.23 -1180)">
    <g id="Group_2992" data-name="Group 2992" transform="translate(1067.23 1180)">
      <g id="Group_2991" data-name="Group 2991" transform="translate(0)">
        <path id="Path_5373" data-name="Path 5373" d="M41.087,0H32.532a.4.4,0,0,0-.4.4V10.665a.4.4,0,0,0,.4.4h8.555a.4.4,0,0,0,.4-.4V.4A.4.4,0,0,0,41.087,0Z" transform="translate(-32.133)" fill="#532a6e"/>
      </g>
    </g>
    <g id="Group_2994" data-name="Group 2994" transform="translate(1069.796 1182.566)">
      <g id="Group_2993" data-name="Group 2993" transform="translate(0)">
        <path id="Path_5374" data-name="Path 5374" d="M137.487,96.4h-1.368v8.1a1.2,1.2,0,0,1-1.2,1.2h-6.388v1.368a.4.4,0,0,0,.4.4h8.555a.4.4,0,0,0,.4-.4V96.8A.4.4,0,0,0,137.487,96.4Z" transform="translate(-128.533 -96.4)" fill="#532a6e"/>
      </g>
    </g>
  </g>
</svg>
