<svg id="Course_Dates_-_black" data-name="Course Dates - black" xmlns="http://www.w3.org/2000/svg" width="24" height="24" viewBox="0 0 24 24">
  <g id="date_range-24px">
    <path id="Path_219" data-name="Path 219" d="M0,0H24V24H0Z" fill="none"/>
    <path id="Path_220" data-name="Path 220" d="M7.24,11.324H9.36V13.4H7.24Zm14.84-5.18v14.5a2.1,2.1,0,0,1-2.12,2.072H5.12A2.1,2.1,0,0,1,3,20.648l.011-14.5A2.087,2.087,0,0,1,5.12,4.072H6.18V2H8.3V4.072h8.48V2H18.9V4.072h1.06A2.1,2.1,0,0,1,22.08,6.144ZM5.12,8.216H19.96V6.144H5.12ZM19.96,20.648V10.288H5.12v10.36ZM15.72,13.4h2.12V11.324H15.72Zm-4.24,0H13.6V11.324H11.48Z" transform="translate(-0.54 -0.36)" fill="#383838"/>
  </g>
</svg>
