<svg xmlns="http://www.w3.org/2000/svg" width="21.133" height="21.133" viewBox="0 0 21.133 21.133">
  <g id="Course_Dates_Gray" data-name="Course Dates Gray" transform="translate(-54 -870)">
    <g id="date_range-24px" transform="translate(54 870)">
      <path id="Path_219" data-name="Path 219" d="M0,0H21.133V21.133H0Z" fill="none"/>
      <path id="Path_220" data-name="Path 220" d="M6.522,9.925H8.283v1.761H6.522Zm12.328-4.4V17.85a1.766,1.766,0,0,1-1.761,1.761H4.761A1.761,1.761,0,0,1,3,17.85L3.009,5.522A1.753,1.753,0,0,1,4.761,3.761h.881V2H7.4V3.761h7.044V2h1.761V3.761h.881A1.766,1.766,0,0,1,18.85,5.522ZM4.761,7.283H17.089V5.522H4.761ZM17.089,17.85V9.044H4.761V17.85Zm-3.522-6.164h1.761V9.925H13.567Zm-3.522,0h1.761V9.925H10.044Z" transform="translate(-0.358 -0.239)" fill="#656565"/>
    </g>
  </g>
</svg>
