<svg xmlns="http://www.w3.org/2000/svg" width="12.951" height="14.687" viewBox="0 0 12.951 14.687">
  <g id="delete_icon" data-name="delete icon" transform="translate(-3374.867 -7748.875)">
    <g id="delete" transform="translate(3375 7749)">
      <path id="Path_1036" data-name="Path 1036" d="M104.748,154.7a.319.319,0,0,0-.35.273v5.154a.361.361,0,0,0,.7,0v-5.154A.319.319,0,0,0,104.748,154.7Zm0,0" transform="translate(-99.796 -148.479)" fill="#fff" stroke="#fff" stroke-width="0.25"/>
      <path id="Path_1037" data-name="Path 1037" d="M1.036,4.3v8.33a1.79,1.79,0,0,0,.537,1.287,1.874,1.874,0,0,0,1.307.522H9.8a1.873,1.873,0,0,0,1.307-.522,1.79,1.79,0,0,0,.537-1.287V4.3a1.3,1.3,0,0,0,1.027-1.415,1.365,1.365,0,0,0-1.386-1.124H9.412V1.334A1.279,1.279,0,0,0,8.99.386,1.5,1.5,0,0,0,7.964,0H4.716A1.5,1.5,0,0,0,3.689.386a1.279,1.279,0,0,0-.422.948v.423H1.394A1.365,1.365,0,0,0,.009,2.881,1.3,1.3,0,0,0,1.036,4.3ZM9.8,13.759H2.879a1.109,1.109,0,0,1-1.112-1.133v-8.3h9.145v8.3A1.109,1.109,0,0,1,9.8,13.759ZM1.394,2.433h9.891a.635.635,0,0,1,.658.609.635.635,0,0,1-.658.609H1.394a.635.635,0,0,1-.658-.609A.635.635,0,0,1,1.394,2.433Zm0,0" transform="translate(0.004 0.001)" fill="#fff" stroke="#fff" stroke-width="0.25"/>
      <path id="Path_1038" data-name="Path 1038" d="M163.748,154.7a.319.319,0,0,0-.35.273v5.154a.361.361,0,0,0,.7,0v-5.154A.319.319,0,0,0,163.748,154.7Zm0,0" transform="translate(-155.955 -148.479)" fill="#fff" stroke="#fff" stroke-width="0.25"/>
    </g>
  </g>
</svg>
