<svg width="21" height="22" viewBox="0 0 21 22" fill="none" xmlns="http://www.w3.org/2000/svg">
<g clip-path="url(#clip0_83_55)">
<path d="M17.8911 18.3956H14.7814V13.5227C14.7814 12.3607 14.7578 10.8654 13.1609 10.8654C11.5395 10.8654 11.2919 12.1297 11.2919 13.437V18.3956H8.18213V8.37512H11.1694V9.741H11.2096C11.5089 9.22986 11.9412 8.80942 12.4604 8.52438C12.9797 8.23934 13.5665 8.10037 14.1584 8.12225C17.3084 8.12225 17.892 10.196 17.892 12.8954V18.3956H17.8911ZM4.66988 7.004C4.25247 7.0028 3.84838 6.85692 3.52647 6.5912C3.20456 6.32549 2.98474 5.95637 2.90446 5.54676C2.82419 5.13714 2.88842 4.71236 3.08621 4.34478C3.28401 3.97721 3.60313 3.68959 3.98921 3.53093C4.37529 3.37227 4.80444 3.35238 5.20355 3.47465C5.60265 3.59692 5.94701 3.85379 6.17795 4.20149C6.4089 4.54918 6.51215 4.9662 6.47011 5.38149C6.42806 5.79678 6.24333 6.18464 5.94737 6.479C5.60792 6.81635 5.14845 7.00517 4.66988 7.004ZM6.22913 18.3956H3.11063V8.37512H6.22913V18.3956ZM19.4469 0.500123H1.54963C1.34853 0.497695 1.14894 0.534903 0.962225 0.609621C0.775516 0.684339 0.605353 0.795104 0.461454 0.93559C0.317555 1.07608 0.202739 1.24353 0.123562 1.4284C0.0443852 1.61326 0.00239861 1.81191 0 2.013L0 19.9872C0.00228395 20.1884 0.0441926 20.3871 0.123329 20.572C0.202466 20.7569 0.317278 20.9244 0.4612 21.0649C0.605123 21.2054 0.775331 21.3162 0.962092 21.3909C1.14885 21.4655 1.3485 21.5027 1.54963 21.5001H19.4443C19.851 21.5053 20.2432 21.3489 20.5349 21.0653C20.8265 20.7817 20.9938 20.394 21 19.9872V2.013C20.9938 1.60625 20.8265 1.21856 20.5349 0.934958C20.2432 0.651354 19.851 0.494979 19.4443 0.500123H19.4469Z" fill="#6DCFF6"/>
</g>
<defs>
<clipPath id="clip0_83_55">
<rect width="21" height="21" fill="white" transform="translate(0 0.5)"/>
</clipPath>
</defs>
</svg>
