<svg width="24" height="18" viewBox="0 0 24 18" fill="none" xmlns="http://www.w3.org/2000/svg">
<g clip-path="url(#clip0_83_59)">
<path d="M23.4952 3.20081C23.3562 2.70257 23.091 2.24863 22.7252 1.88286C22.3594 1.51709 21.9055 1.25186 21.4072 1.11281C19.5372 0.612807 12.0072 0.612807 12.0072 0.612807C12.0072 0.612807 4.50023 0.602807 2.60723 1.11281C2.10955 1.25231 1.65623 1.51773 1.29101 1.88348C0.925794 2.24922 0.661018 2.70292 0.522235 3.20081C0.167445 5.11696 -0.00731663 7.0621 0.000234594 9.01081C-0.00563627 10.9505 0.169118 12.8865 0.522235 14.7938C0.661285 15.292 0.926514 15.746 1.29228 16.1118C1.65805 16.4775 2.112 16.7428 2.61023 16.8818C4.47823 17.3818 12.0102 17.3818 12.0102 17.3818C12.0102 17.3818 19.5162 17.3818 21.4102 16.8818C21.9079 16.7423 22.3612 16.4769 22.7265 16.1111C23.0917 15.7454 23.3565 15.2917 23.4952 14.7938C23.8409 12.8858 24.0083 10.9498 23.9952 9.01081C24.01 7.06279 23.8426 5.11765 23.4952 3.20081ZM9.60423 12.6008V5.40881L15.8682 9.00881L9.60423 12.6008Z" fill="#6DCFF6"/>
</g>
<defs>
<clipPath id="clip0_83_59">
<rect width="23.991" height="16.767" fill="white" transform="translate(0 0.616699)"/>
</clipPath>
</defs>
</svg>
