<svg xmlns="http://www.w3.org/2000/svg" width="8.84" height="17.5" viewBox="0 0 8.84 17.5">
  <path id="Facebook" d="M76.985,9.32H78.9v7.9a.282.282,0,0,0,.282.282h3.253a.282.282,0,0,0,.282-.282V9.358h2.205a.282.282,0,0,0,.28-.25L85.541,6.2a.282.282,0,0,0-.28-.315h-2.54V4.063c0-.549.3-.828.879-.828h1.661a.282.282,0,0,0,.282-.282V.284A.282.282,0,0,0,85.261,0H82.972c-.016,0-.052,0-.1,0A4.386,4.386,0,0,0,80,1.081a3.008,3.008,0,0,0-1,2.673V5.886H76.985a.282.282,0,0,0-.282.282v2.87A.282.282,0,0,0,76.985,9.32Z" transform="translate(-76.703)" fill="#532a6e"/>
</svg>
