<svg xmlns="http://www.w3.org/2000/svg" width="18" height="18" viewBox="0 0 18 18">
  <g id="Facebook" transform="translate(-14.7 -13)">
    <g id="Facebook-2" data-name="Facebook" transform="translate(14.7 13)">
      <path id="Bounds" d="M0,18V0H18V18Z" fill="none"/>
      <path id="Icon" d="M14.4,2.2H3.6A1.324,1.324,0,0,0,2.3,3.5V14.3a1.415,1.415,0,0,0,1.3,1.4H14.4a1.43,1.43,0,0,0,1.4-1.4V3.6A1.506,1.506,0,0,0,14.4,2.2ZM13.3,5.9h-.9c-.6,0-.7.2-.7.7v.9h1.4V9H11.8v4.7H9.6V9H8.8V7.4h.8v-1c0-1.3.5-2.1,2.1-2.1h1.6V5.9Z" fill="#532a6e"/>
    </g>
  </g>
</svg>
