<svg xmlns="http://www.w3.org/2000/svg" width="6.432" height="12.733" viewBox="0 0 6.432 12.733">
  <path id="XMLID_835_" d="M76.908,6.782h1.4v5.746a.205.205,0,0,0,.205.205h2.367a.205.205,0,0,0,.205-.205V6.809h1.6a.205.205,0,0,0,.2-.182l.244-2.115a.205.205,0,0,0-.2-.229H81.082V2.957c0-.4.215-.6.64-.6H82.93a.205.205,0,0,0,.205-.205V.207A.205.205,0,0,0,82.93,0H81.264l-.076,0A3.191,3.191,0,0,0,79.1.787a2.188,2.188,0,0,0-.728,1.945V4.283H76.908a.205.205,0,0,0-.205.205V6.576A.205.205,0,0,0,76.908,6.782Z" transform="translate(-76.703)" fill="#0339ac"/>
</svg>
