<svg id="Icons_Filetypes_PDF_Copy" data-name="Icons/Filetypes/PDF Copy" xmlns="http://www.w3.org/2000/svg" xmlns:xlink="http://www.w3.org/1999/xlink" width="12.689" height="16" viewBox="0 0 12.689 16">
  <defs>
    <clipPath id="clip-path">
      <path id="Icons_Utilities_File" data-name="Icons/Utilities/File" d="M10.31,16H2.38A2.168,2.168,0,0,1,0,13.867V2.4A2.393,2.393,0,0,1,2.38,0H7.667a.812.812,0,0,1,.155.016.778.778,0,0,1,.192.069l.008,0L8.06.109a.8.8,0,0,1,.168.125L12.458,4.5a.811.811,0,0,1,.124.17q.013.023.023.045a.758.758,0,0,1,.084.35v8.8A2.168,2.168,0,0,1,10.31,16ZM2.189,1.333a.834.834,0,0,0-.833.833V14.111c0,.459.453.555.833.555h8.333c.38,0,.833-.1.833-.555V5.778H8.3A1.391,1.391,0,0,1,6.912,4.389V1.333Z" fill="#8b8c9f"/>
    </clipPath>
  </defs>
  <path id="Icons_Utilities_File-2" data-name="Icons/Utilities/File" d="M10.31,16H2.38A2.168,2.168,0,0,1,0,13.867V2.4A2.393,2.393,0,0,1,2.38,0H7.667a.812.812,0,0,1,.155.016.778.778,0,0,1,.192.069l.008,0L8.06.109a.8.8,0,0,1,.168.125L12.458,4.5a.811.811,0,0,1,.124.17q.013.023.023.045a.758.758,0,0,1,.084.35v8.8A2.168,2.168,0,0,1,10.31,16ZM2.189,1.333a.834.834,0,0,0-.833.833V14.111c0,.459.453.555.833.555h8.333c.38,0,.833-.1.833-.555V5.778H8.3A1.391,1.391,0,0,1,6.912,4.389V1.333Z" fill="#8b8c9f"/>
</svg>
