<svg xmlns="http://www.w3.org/2000/svg" width="15" height="15" viewBox="0 0 15 15"><path d="M11.693,15a1.176,1.176,0,0,1-.7-.277L8.08,12.573a1.125,1.125,0,0,0-1.157,0L4,14.724c-.517.382-1.011.345-1.266-.018a1.129,1.129,0,0,1-.071-1l1.054-3.569A1.213,1.213,0,0,0,3.36,8.987L.5,6.746c-.56-.44-.534-.857-.468-1.069s.28-.565.979-.576l3.571-.054a1.139,1.139,0,0,0,.939-.714L6.674.8C6.9.1,7.288,0,7.5,0s.6.1.825.8L9.48,4.333a1.133,1.133,0,0,0,.937.714l3.569.054c.7.011.915.365.981.575s.093.628-.465,1.069L11.639,8.987a1.213,1.213,0,0,0-.356,1.151l1.052,3.571a1.129,1.129,0,0,1-.073,1A.693.693,0,0,1,11.693,15Z" fill="#532a6e"/></svg>