<svg xmlns="http://www.w3.org/2000/svg" xmlns:xlink="http://www.w3.org/1999/xlink" width="24" height="24" viewBox="0 0 24 24">
  <defs>
    <clipPath id="clip-Youtube">
      <rect width="24" height="24"/>
    </clipPath>
  </defs>
  <g id="Youtube" clip-path="url(#clip-Youtube)">
    <path id="Yputube" d="M17.433,5.537a2.231,2.231,0,0,0-1.549-1.549,53.454,53.454,0,0,0-6.971-.372,52.262,52.262,0,0,0-6.971.372A2.231,2.231,0,0,0,.392,5.537,23.183,23.183,0,0,0,0,9.844a23.183,23.183,0,0,0,.387,4.291,2.231,2.231,0,0,0,1.549,1.549,53.338,53.338,0,0,0,6.971.372,53.465,53.465,0,0,0,6.971-.372,2.231,2.231,0,0,0,1.549-1.549A23.188,23.188,0,0,0,17.8,9.844a23.183,23.183,0,0,0-.371-4.307Zm-10.3,6.971V7.171L11.78,9.843Z" transform="translate(3.1 2.164)" fill="#fff"/>
  </g>
</svg>
