<svg id="present-box" xmlns="http://www.w3.org/2000/svg" width="19.844" height="19.843" viewBox="0 0 19.844 19.843">
  <path id="Path_5519" data-name="Path 5519" d="M18.6,10.788H1.24A1.242,1.242,0,0,1,0,9.547V6.24A1.242,1.242,0,0,1,1.24,5H18.6a1.242,1.242,0,0,1,1.24,1.24V9.547A1.242,1.242,0,0,1,18.6,10.788ZM1.24,5.827a.414.414,0,0,0-.413.413V9.547a.414.414,0,0,0,.413.413H18.6a.414.414,0,0,0,.413-.413V6.24a.414.414,0,0,0-.413-.413Z" transform="translate(0 -0.867)" fill="#532a6e"/>
  <path id="Path_5520" data-name="Path 5520" d="M16.469,21.749H4.067A2.069,2.069,0,0,1,2,19.682V11.413a.413.413,0,1,1,.827,0v8.268a1.242,1.242,0,0,0,1.24,1.24h12.4a1.242,1.242,0,0,0,1.24-1.24V11.413a.413.413,0,1,1,.827,0v8.268A2.069,2.069,0,0,1,16.469,21.749Z" transform="translate(-0.346 -1.906)" fill="#532a6e"/>
  <path id="Path_5521" data-name="Path 5521" d="M11.913,21.749a.414.414,0,0,1-.413-.413V11.413a.413.413,0,1,1,.827,0v9.922A.414.414,0,0,1,11.913,21.749Z" transform="translate(-1.992 -1.906)" fill="#532a6e"/>
  <path id="Path_5522" data-name="Path 5522" d="M11.047,4.961a.411.411,0,0,1-.089-.01c-.521-.116-3.156-.727-3.852-1.423a2.066,2.066,0,0,1,0-2.923,2.068,2.068,0,0,1,2.923,0c.7.7,1.307,3.331,1.423,3.853a.414.414,0,0,1-.4.5ZM8.567.828A1.24,1.24,0,0,0,7.69,2.944a9.2,9.2,0,0,0,2.8,1.045,9.227,9.227,0,0,0-1.045-2.8A1.232,1.232,0,0,0,8.567.828Z" transform="translate(-1.126 -0.001)" fill="#532a6e"/>
  <path id="Path_5523" data-name="Path 5523" d="M11.913,4.961a.417.417,0,0,1-.293-.121.413.413,0,0,1-.112-.381c.116-.522.727-3.157,1.423-3.853a2.068,2.068,0,0,1,2.923,0,2.066,2.066,0,0,1,0,2.923c-.7.7-3.331,1.307-3.852,1.423a.483.483,0,0,1-.09.009ZM14.394.828a1.238,1.238,0,0,0-.877.362,9.227,9.227,0,0,0-1.045,2.8,9.2,9.2,0,0,0,2.8-1.045A1.239,1.239,0,0,0,14.394.828ZM13.225.9h.008Z" transform="translate(-1.991 -0.001)" fill="#532a6e"/>
</svg>