<svg xmlns="http://www.w3.org/2000/svg" width="177" height="37" viewBox="0 0 177 37">
  <g id="Group_3266" data-name="Group 3266" transform="translate(0 -16)">
    <g id="Rectangle_1254" data-name="Rectangle 1254" transform="translate(0 16)" fill="#532a6e" stroke="rgba(255,255,255,0.62)" stroke-width="1">
      <path d="M0,0H175a2,2,0,0,1,2,2V35a2,2,0,0,1-2,2H0a0,0,0,0,1,0,0V0A0,0,0,0,1,0,0Z" stroke="none"/>
      <path d="M1,.5H175A1.5,1.5,0,0,1,176.5,2V35a1.5,1.5,0,0,1-1.5,1.5H1A.5.5,0,0,1,.5,36V1A.5.5,0,0,1,1,.5Z" fill="none"/>
    </g>
    <g id="Group_3265" data-name="Group 3265" transform="translate(1 -1)">
      <g id="Logo" transform="translate(6.5 26)">
        <path id="Path_193" data-name="Path 193" d="M429.661,315.409h2.091a.386.386,0,0,1,.386.386v.926h.04a2.415,2.415,0,0,1,.4-.557,2.9,2.9,0,0,1,.617-.5,3.532,3.532,0,0,1,.815-.358,3.409,3.409,0,0,1,.994-.139,4.112,4.112,0,0,1,1.83.348,2.647,2.647,0,0,1,1.084.964,3.908,3.908,0,0,1,.527,1.452,11.059,11.059,0,0,1,.139,1.81v4.944a.386.386,0,0,1-.386.386h-2.21a.386.386,0,0,1-.386-.386v-4.347q0-.418-.03-.865a2.731,2.731,0,0,0-.179-.825,1.283,1.283,0,0,0-1.342-.855,1.843,1.843,0,0,0-.935.209,1.424,1.424,0,0,0-.547.557,2.273,2.273,0,0,0-.249.786,6.767,6.767,0,0,0-.06.915v4.426a.386.386,0,0,1-.386.386h-2.211a.386.386,0,0,1-.386-.386V315.8A.386.386,0,0,1,429.661,315.409Z" transform="translate(-414.399 -309.104)" fill="#fff"/>
        <path id="Path_194" data-name="Path 194" d="M661.946,315.409h2.064a.386.386,0,0,1,.386.386v.926h.04a2.413,2.413,0,0,1,.4-.557,2.9,2.9,0,0,1,.616-.5,3.531,3.531,0,0,1,.815-.358,3.408,3.408,0,0,1,.994-.139,3.775,3.775,0,0,1,1.8.418,2.646,2.646,0,0,1,1.184,1.313,3.225,3.225,0,0,1,1.253-1.332,3.766,3.766,0,0,1,1.81-.4,3.693,3.693,0,0,1,1.641.328,2.685,2.685,0,0,1,1.054.9,3.776,3.776,0,0,1,.557,1.332,7.612,7.612,0,0,1,.169,1.641v5.321a.386.386,0,0,1-.386.386h-2.21a.386.386,0,0,1-.386-.386v-5.242a2.247,2.247,0,0,0-.288-1.163,1.09,1.09,0,0,0-1.024-.487,1.976,1.976,0,0,0-.865.169,1.427,1.427,0,0,0-.557.467,1.943,1.943,0,0,0-.3.7,3.8,3.8,0,0,0-.089.835v4.725a.387.387,0,0,1-.386.386h-2.21a.386.386,0,0,1-.386-.386v-4.725q0-.258-.02-.636a2.544,2.544,0,0,0-.139-.716,1.37,1.37,0,0,0-.388-.577,1.148,1.148,0,0,0-.785-.239,1.843,1.843,0,0,0-.935.209,1.424,1.424,0,0,0-.547.557,2.273,2.273,0,0,0-.249.786,6.767,6.767,0,0,0-.06.915v4.426a.386.386,0,0,1-.386.386h-2.21a.386.386,0,0,1-.386-.386v-8.865A.414.414,0,0,1,661.946,315.409Z" transform="translate(-635.338 -309.104)" fill="#fff"/>
        <path id="Path_195" data-name="Path 195" d="M1023.518,329.733h-2.091a.387.387,0,0,1-.386-.386v-.926H1021a3.307,3.307,0,0,1-.408.557,2.673,2.673,0,0,1-.607.5,3.53,3.53,0,0,1-.816.358,3.411,3.411,0,0,1-.994.139,4.179,4.179,0,0,1-1.84-.348,2.63,2.63,0,0,1-1.094-.965,3.78,3.78,0,0,1-.517-1.452,11.834,11.834,0,0,1-.129-1.81v-4.943a.386.386,0,0,1,.386-.386h2.21a.386.386,0,0,1,.386.386V324.8q0,.418.03.865a2.726,2.726,0,0,0,.179.825,1.283,1.283,0,0,0,1.342.855,1.84,1.84,0,0,0,.935-.209,1.423,1.423,0,0,0,.547-.557,2.277,2.277,0,0,0,.249-.786,6.774,6.774,0,0,0,.06-.915v-4.426a.386.386,0,0,1,.386-.386h2.21a.387.387,0,0,1,.387.386v8.893A.387.387,0,0,1,1023.518,329.733Z" transform="translate(-971.198 -313.763)" fill="#fff"/>
        <path id="Path_196" data-name="Path 196" d="M1256.624,224.909h-1.972a.387.387,0,0,1-.386-.386v-.886h-.04a3.316,3.316,0,0,1-.467.527,3.533,3.533,0,0,1-.676.487,4.139,4.139,0,0,1-.855.358,3.372,3.372,0,0,1-.965.139,4.982,4.982,0,0,1-1.949-.368,4.337,4.337,0,0,1-1.5-1.034,4.6,4.6,0,0,1-.964-1.581,5.745,5.745,0,0,1-.338-2.009,6.085,6.085,0,0,1,.308-1.939,5.34,5.34,0,0,1,.875-1.641,4.276,4.276,0,0,1,1.382-1.143,3.925,3.925,0,0,1,1.85-.428,5.127,5.127,0,0,1,1.74.288,2.787,2.787,0,0,1,1.323.984h.04V210.26a.386.386,0,0,1,.386-.386h2.211a.386.386,0,0,1,.386.386v14.262A.387.387,0,0,1,1256.624,224.909Zm-2.358-4.833a2.5,2.5,0,0,0-.626-1.77,2.629,2.629,0,0,0-3.52,0,2.813,2.813,0,0,0,0,3.54,2.629,2.629,0,0,0,3.52,0A2.5,2.5,0,0,0,1254.266,220.077Z" transform="translate(-1191.809 -208.939)" fill="#fff"/>
        <path id="Path_197" data-name="Path 197" d="M1503.168,209.874h2.21a.386.386,0,0,1,.386.386v14.262a.386.386,0,0,1-.386.386h-2.21a.387.387,0,0,1-.386-.386V210.26A.386.386,0,0,1,1503.168,209.874Z" transform="translate(-1435.594 -208.939)" fill="#fff"/>
        <path id="Path_198" data-name="Path 198" d="M143.138,319.668a7.16,7.16,0,0,1-.4,2.434,5.35,5.35,0,0,1-1.185,1.932,5.432,5.432,0,0,1-1.963,1.28,8.219,8.219,0,0,1-5.435,0,5.432,5.432,0,0,1-1.963-1.28,5.35,5.35,0,0,1-1.185-1.932,7.159,7.159,0,0,1-.4-2.434l0-2.179a1.639,1.639,0,0,1,3.277,0l-.008,2.052a3.618,3.618,0,0,0,.221,1.281,3.048,3.048,0,0,0,.619,1.017,2.8,2.8,0,0,0,.954.672,2.985,2.985,0,0,0,1.207.241,2.915,2.915,0,0,0,1.2-.241,2.827,2.827,0,0,0,.944-.672,3.048,3.048,0,0,0,.619-1.017,3.618,3.618,0,0,0,.22-1.281v-2.052h0a1.635,1.635,0,1,1,3.271,0Z" transform="translate(-130.285 -309.752)" fill="#fff"/>
        <circle id="Ellipse_6" data-name="Ellipse 6" cx="2.064" cy="2.064" r="2.064" transform="translate(0 0.464)" fill="#fff"/>
        <path id="Path_199" data-name="Path 199" d="M308.625,193.169v1.869a.247.247,0,0,1-.4.194l-1.722-1.361a.571.571,0,0,0-.708,0l-1.722,1.361a.247.247,0,0,1-.4-.194v-1.869a.247.247,0,0,1,.067-.169l1.993-2.126a.571.571,0,0,1,.833,0L308.558,193A.247.247,0,0,1,308.625,193.169Z" transform="translate(-294.917 -190.693)" fill="#ff7101"/>
      </g>
      <text id="Compare_Courses" data-name="Compare Courses" transform="translate(131.5 39)" fill="#fff" font-size="12" font-family="Avenir-Medium, Avenir" font-weight="500" letter-spacing="0.2em"><tspan x="-37.176" y="0">ORIGINAL</tspan></text>
      <line id="Line_46" data-name="Line 46" y2="17" transform="translate(86.5 27.5)" fill="none" stroke="#fff" stroke-width="1" opacity="0.53"/>
    </g>
  </g>
</svg>
