<svg xmlns="http://www.w3.org/2000/svg" width="13.5" height="13.776" viewBox="0 0 13.5 13.776">
  <g id="Google" transform="translate(-27.745 -15)">
    <g id="Google_Icon" data-name="Google Icon" transform="translate(20.745 3)">
      <path id="Shape" d="M13.888,20.2V17.648h6.474a7.745,7.745,0,0,1,.138,1.378,6.364,6.364,0,0,1-6.612,6.75,6.888,6.888,0,0,1,0-13.776A6.629,6.629,0,0,1,18.5,13.791l-1.929,1.929a3.754,3.754,0,0,0-2.686-1.033,4.2,4.2,0,0,0,0,8.4A3.582,3.582,0,0,0,17.676,20.2Z" fill="#532a6e"/>
    </g>
  </g>
</svg>
