<svg id="sentiment_satisfied-24px" xmlns="http://www.w3.org/2000/svg" width="26.47" height="26.47" viewBox="0 0 26.47 26.47">
  <path id="Path_5162" data-name="Path 5162" d="M0,0H26.47V26.47H0Z" fill="none"/>
  <circle id="Ellipse_49" data-name="Ellipse 49" cx="2" cy="2" r="2" transform="translate(15.613 8.266)" fill="#5e2f79"/>
  <circle id="Ellipse_50" data-name="Ellipse 50" cx="2" cy="2" r="2" transform="translate(7.347 8.266)" fill="#5e2f79"/>
  <path id="Path_5163" data-name="Path 5163" d="M12.863,17.208a4.342,4.342,0,0,1-3.748-2.173H7.3a5.969,5.969,0,0,0,11.123,0H16.61a4.342,4.342,0,0,1-3.748,2.173ZM12.852,2A10.863,10.863,0,1,0,23.726,12.863,10.857,10.857,0,0,0,12.852,2Zm.011,19.553a8.69,8.69,0,1,1,8.69-8.69A8.688,8.688,0,0,1,12.863,21.553Z" transform="translate(0.372 0.372)" fill="#5e2f79"/>
</svg>
