<svg xmlns="http://www.w3.org/2000/svg" width="18" height="16" viewBox="0 0 18 16">
  <path id="_Icon_color" data-name="🎨 Icon color" d="M11.7,16a.9.9,0,0,1-.9-.889,4.5,4.5,0,0,0-9,0A.9.9,0,0,1,.9,16a.9.9,0,0,1-.9-.889,6.314,6.314,0,0,1,10.746-4.4,4.564,4.564,0,0,1,2.754-.93A4.478,4.478,0,0,1,18,14.222a.9.9,0,0,1-1.8,0,2.687,2.687,0,0,0-2.7-2.667,2.724,2.724,0,0,0-1.671.578,6.164,6.164,0,0,1,.771,2.978A.9.9,0,0,1,11.7,16Zm1.8-7.111a2.667,2.667,0,1,1,2.7-2.666A2.687,2.687,0,0,1,13.5,8.889Zm0-3.555a.889.889,0,1,0,.9.889A.9.9,0,0,0,13.5,5.334ZM6.3,7.111A3.583,3.583,0,0,1,2.7,3.555a3.6,3.6,0,0,1,7.2,0A3.582,3.582,0,0,1,6.3,7.111Zm0-5.334A1.778,1.778,0,1,0,8.1,3.555,1.791,1.791,0,0,0,6.3,1.778Z" fill="#656565"/>
</svg>
