<svg xmlns="http://www.w3.org/2000/svg" width="17.296" height="17.258" viewBox="0 0 17.296 17.258">
  <g id="LinkedIn" transform="translate(0 -0.341)">
    <path id="XMLID_802_" d="M8.678,99.73H5.206a.279.279,0,0,0-.279.279v11.155a.279.279,0,0,0,.279.279H8.678a.279.279,0,0,0,.279-.279V100.009A.279.279,0,0,0,8.678,99.73Z" transform="translate(-4.652 -93.844)" fill="#532a6e"/>
    <path id="XMLID_803_" d="M2.291.341A2.289,2.289,0,1,0,4.581,2.63,2.293,2.293,0,0,0,2.291.341Z" transform="translate(0 0)" fill="#532a6e"/>
    <path id="XMLID_804_" d="M113.11,94.761a4.078,4.078,0,0,0-3.051,1.281v-.724a.279.279,0,0,0-.279-.279h-3.325a.279.279,0,0,0-.279.279v11.155a.279.279,0,0,0,.279.279h3.465a.279.279,0,0,0,.279-.279v-5.519c0-1.86.505-2.584,1.8-2.584,1.412,0,1.524,1.161,1.524,2.68v5.423a.279.279,0,0,0,.279.279h3.466a.279.279,0,0,0,.279-.279v-6.119C117.548,97.588,117.021,94.761,113.11,94.761Z" transform="translate(-100.252 -89.152)" fill="#532a6e"/>
  </g>
</svg>
