<svg xmlns="http://www.w3.org/2000/svg" width="12.775" height="12.775" viewBox="0 0 12.775 12.775">
  <g id="LinkedIn" transform="translate(-21.746 -16)">
    <path id="linkedin_3_" data-name="linkedin (3)" d="M11.854,0H.922A.921.921,0,0,0,0,.921V11.854a.921.921,0,0,0,.921.921H11.854a.921.921,0,0,0,.921-.921V.921A.921.921,0,0,0,11.854,0ZM4.532,9.656H2.976V4.976H4.532ZM3.754,4.337h-.01a.811.811,0,1,1,.02-1.617.811.811,0,1,1-.01,1.617Zm6.387,5.319H8.586v-2.5c0-.629-.225-1.058-.788-1.058a.852.852,0,0,0-.8.569,1.065,1.065,0,0,0-.051.38V9.656H5.393s.02-4.241,0-4.68H6.948v.663a1.544,1.544,0,0,1,1.4-.773c1.024,0,1.791.669,1.791,2.106Zm0,0" transform="translate(21.746 16)" fill="#532a6e"/>
  </g>
</svg>
