<svg xmlns="http://www.w3.org/2000/svg" width="15.9" height="15.9" viewBox="0 0 15.9 15.9">
  <path id="linkedin_white" d="M13.546,13.55H11.192V9.86c0-.88-.018-2.012-1.227-2.012-1.228,0-1.415.957-1.415,1.947V13.55H6.2V5.963H8.457V7h.03A2.481,2.481,0,0,1,10.72,5.771c2.385,0,2.827,1.57,2.827,3.614V13.55ZM3.536,4.924a1.366,1.366,0,1,1,.967-.4A1.367,1.367,0,0,1,3.536,4.924ZM4.716,13.55H2.355V5.963H4.716ZM14.724,0H1.173A1.159,1.159,0,0,0,0,1.145V14.755A1.159,1.159,0,0,0,1.173,15.9H14.722A1.163,1.163,0,0,0,15.9,14.755V1.145A1.163,1.163,0,0,0,14.722,0Z" fill="#fff"/>
</svg>
