<svg xmlns="http://www.w3.org/2000/svg" xmlns:xlink="http://www.w3.org/1999/xlink" width="55" height="55" viewBox="0 0 55 55">
  <defs>
    <filter id="Ellipse_53" x="0" y="0" width="55" height="55" filterUnits="userSpaceOnUse">
      <feOffset dy="3" input="SourceAlpha"/>
      <feGaussianBlur stdDeviation="3" result="blur"/>
      <feFlood flood-opacity="0.02"/>
      <feComposite operator="in" in2="blur"/>
      <feComposite in="SourceGraphic"/>
    </filter>
  </defs>
  <g id="Linked_In_Share" data-name="Linked In Share" transform="translate(-933 -355)">
    <g id="Linked_In_Share-2" data-name="Linked In Share" transform="translate(897 -509)">
      <g transform="matrix(1, 0, 0, 1, 36, 864)" filter="url(#Ellipse_53)">
        <g id="Ellipse_53-2" data-name="Ellipse 53" transform="translate(9 6)" fill="#fff" stroke="#532a6e" stroke-width="1">
          <circle cx="18.5" cy="18.5" r="18.5" stroke="none"/>
          <circle cx="18.5" cy="18.5" r="18" fill="none"/>
        </g>
      </g>
    </g>
    <g id="linkedin_4_" data-name="linkedin (4)" transform="translate(953 372.669)">
      <path id="Path_5411" data-name="Path 5411" d="M1.849-.668A1.706,1.706,0,0,0,0,1.031a1.692,1.692,0,0,0,1.806,1.7h.021a1.7,1.7,0,1,0,.022-3.4Zm0,0" fill="#532a6e"/>
      <path id="Path_5412" data-name="Path 5412" d="M8.109,198.313h3.269v9.835H8.109Zm0,0" transform="translate(-7.916 -194.24)" fill="#532a6e"/>
      <path id="Path_5413" data-name="Path 5413" d="M227.43,188.625a4.1,4.1,0,0,0-2.946,1.657v-1.426h-3.269v9.835h3.269V193.2a2.24,2.24,0,0,1,.108-.8,1.789,1.789,0,0,1,1.677-1.2c1.183,0,1.656.9,1.656,2.224v5.262h3.269v-5.639c0-3.021-1.613-4.427-3.764-4.427Zm0,0" transform="translate(-215.944 -184.782)" fill="#532a6e"/>
    </g>
  </g>
</svg>
