<svg id="pin" xmlns="http://www.w3.org/2000/svg" xmlns:xlink="http://www.w3.org/1999/xlink" width="12.8" height="16" viewBox="0 0 12.8 16">
  <defs>
    <clipPath id="clip-path">
      <path id="_Icon_color" data-name="🎨 Icon color" d="M6.4,16a.8.8,0,0,1-.521-.194,25.831,25.831,0,0,1-3.03-3.169,16.728,16.728,0,0,1-1.965-3A7.553,7.553,0,0,1,0,6.338a6.4,6.4,0,0,1,12.8,0,7.553,7.553,0,0,1-.885,3.3,16.728,16.728,0,0,1-1.965,3,25.831,25.831,0,0,1-3.03,3.169A.8.8,0,0,1,6.4,16Zm0-14.4A4.775,4.775,0,0,0,1.6,6.338,8.176,8.176,0,0,0,3.5,10.86a24.982,24.982,0,0,0,2.9,3.257A24.937,24.937,0,0,0,9.3,10.86a8.176,8.176,0,0,0,1.9-4.523A4.775,4.775,0,0,0,6.4,1.6Zm0,7.2A2.8,2.8,0,1,1,9.2,6,2.8,2.8,0,0,1,6.4,8.8Zm0-4A1.2,1.2,0,1,0,7.6,6,1.2,1.2,0,0,0,6.4,4.8Z" fill="#656565"/>
    </clipPath>
  </defs>
  <g id="Group_134" data-name="Group 134">
    <path id="_Icon_color-2" data-name="🎨 Icon color" d="M6.4,16a.8.8,0,0,1-.521-.194,25.831,25.831,0,0,1-3.03-3.169,16.728,16.728,0,0,1-1.965-3A7.553,7.553,0,0,1,0,6.338a6.4,6.4,0,0,1,12.8,0,7.553,7.553,0,0,1-.885,3.3,16.728,16.728,0,0,1-1.965,3,25.831,25.831,0,0,1-3.03,3.169A.8.8,0,0,1,6.4,16Zm0-14.4A4.775,4.775,0,0,0,1.6,6.338,8.176,8.176,0,0,0,3.5,10.86a24.982,24.982,0,0,0,2.9,3.257A24.937,24.937,0,0,0,9.3,10.86a8.176,8.176,0,0,0,1.9-4.523A4.775,4.775,0,0,0,6.4,1.6Zm0,7.2A2.8,2.8,0,1,1,9.2,6,2.8,2.8,0,0,1,6.4,8.8Zm0-4A1.2,1.2,0,1,0,7.6,6,1.2,1.2,0,0,0,6.4,4.8Z" fill="#656565"/>
  </g>
</svg>
