<svg xmlns="http://www.w3.org/2000/svg" width="12" height="16" viewBox="0 0 12 16">
  <g id="padlock" transform="translate(-3)">
    <path id="Path_5589" data-name="Path 5589" d="M13.5,19.007h-9a1.5,1.5,0,0,1-1.5-1.5v-7A1.5,1.5,0,0,1,4.5,9h9A1.5,1.5,0,0,1,15,10.5v7A1.5,1.5,0,0,1,13.5,19.007ZM4.5,10a.5.5,0,0,0-.5.5v7a.5.5,0,0,0,.5.5h9a.5.5,0,0,0,.5-.5v-7a.5.5,0,0,0-.5-.5Z" transform="translate(0 -3.007)" fill="#505052"/>
    <path id="Path_5590" data-name="Path 5590" d="M13.5,7a.5.5,0,0,1-.5-.5V4A3,3,0,1,0,7,4V6.5a.5.5,0,1,1-1,0V4a4,4,0,1,1,8,0V6.5A.5.5,0,0,1,13.5,7Z" transform="translate(-0.999)" fill="#505052"/>
    <path id="Path_5591" data-name="Path 5591" d="M11.334,15.668a1.334,1.334,0,1,1,1.334-1.334A1.336,1.336,0,0,1,11.334,15.668Zm0-1.668a.334.334,0,1,0,.334.334A.334.334,0,0,0,11.334,14Z" transform="translate(-2.334 -4.334)" fill="#505052"/>
    <path id="Path_5592" data-name="Path 5592" d="M11.75,18.585a.5.5,0,0,1-.5-.5V16.25a.5.5,0,1,1,1,0v1.835A.5.5,0,0,1,11.75,18.585Z" transform="translate(-2.75 -5.251)" fill="#505052"/>
  </g>
</svg>
