<svg id="More_than_Satisfied" data-name="More than Satisfied" xmlns="http://www.w3.org/2000/svg" width="24" height="24" viewBox="0 0 24 24">
  <path id="Path_231" data-name="Path 231" d="M0,0H24V24H0Z" fill="none"/>
  <path id="Path_232" data-name="Path 232" d="M0,0H24V24H0Z" fill="none"/>
  <circle id="Ellipse_15" data-name="Ellipse 15" cx="1.5" cy="1.5" r="1.5" transform="translate(14 8)" fill="#532a6e"/>
  <circle id="Ellipse_16" data-name="Ellipse 16" cx="1.5" cy="1.5" r="1.5" transform="translate(7 8)" fill="#532a6e"/>
  <circle id="Ellipse_17" data-name="Ellipse 17" cx="1.5" cy="1.5" r="1.5" transform="translate(14 8)" fill="#532a6e"/>
  <circle id="Ellipse_18" data-name="Ellipse 18" cx="1.5" cy="1.5" r="1.5" transform="translate(7 8)" fill="#532a6e"/>
  <path id="Path_233" data-name="Path 233" d="M11.99,2A10,10,0,1,0,22,12,10,10,0,0,0,11.99,2ZM12,20a8,8,0,1,1,8-8A8,8,0,0,1,12,20Zm0-2.5A5.5,5.5,0,0,0,17.12,14H15.45a3.976,3.976,0,0,1-6.9,0H6.88A5.5,5.5,0,0,0,12,17.5Z" fill="#532a6e"/>
</svg>
