<svg id="Not_at_all_Satisfied" data-name="Not at all Satisfied" xmlns="http://www.w3.org/2000/svg" width="24" height="24" viewBox="0 0 24 24">
  <path id="Path_228" data-name="Path 228" d="M0,0H24V24H0Z" fill="none"/>
  <path id="Path_229" data-name="Path 229" d="M11.99,2A10,10,0,1,0,22,12,10,10,0,0,0,11.99,2ZM12,20a8,8,0,1,1,8-8A8,8,0,0,1,12,20Zm3.5-9A1.5,1.5,0,1,0,14,9.5,1.5,1.5,0,0,0,15.5,11Zm-7,0A1.5,1.5,0,1,0,7,9.5,1.5,1.5,0,0,0,8.5,11ZM12,14a5.5,5.5,0,0,0-5.11,3.5H17.11A5.5,5.5,0,0,0,12,14Z"/>
</svg>
