<svg xmlns="http://www.w3.org/2000/svg" xmlns:xlink="http://www.w3.org/1999/xlink" width="264" height="24" viewBox="0 0 264 24">
  <defs>
    <radialGradient id="radial-gradient" cx="0.505" cy="0.487" r="0.502" gradientTransform="translate(8.781 -6.085) scale(0.98 1.011)" gradientUnits="objectBoundingBox">
      <stop offset="0.006" stop-color="#ffeee0"/>
      <stop offset="0.11" stop-color="#fee9d7"/>
      <stop offset="0.279" stop-color="#fddbbf"/>
      <stop offset="0.493" stop-color="#fbc597"/>
      <stop offset="0.744" stop-color="#f8a560"/>
      <stop offset="1" stop-color="#f48120"/>
    </radialGradient>
  </defs>
  <g id="icn-payments-logos-sprite-c26b568c190cf50f27f8f1e0955fd789" transform="translate(-22.5 -27)">
    <path id="Path_5523" data-name="Path 5523" d="M103.5,48a3.076,3.076,0,0,1-3,3h-32a3.076,3.076,0,0,1-3-3V30a3.076,3.076,0,0,1,3-3h32a3.076,3.076,0,0,1,3,3Z" transform="translate(2.2)" fill="#3957a7"/>
    <path id="Path_5524" data-name="Path 5524" d="M83,42.7H81.1l1.2-7.2h1.8Zm-3.5-7.2-1.7,4.9-.2-1L77,36.2a.856.856,0,0,0-.9-.7h-3v.1a7.119,7.119,0,0,1,1.9.8l1.6,6.3h1.9l3-7.2h-2Zm14.7,7.2h1.7l-1.5-7.2H92.9a.939.939,0,0,0-.9.6l-2.7,6.6h1.9l.3-1h2.4l.3,1ZM92.1,40l1-2.7.6,2.7Zm-2.6-2.8.2-1.6a5.449,5.449,0,0,0-1.7-.3c-.9,0-3.1.5-3.1,2.4,0,1.8,2.5,1.8,2.5,2.9s-2.3.8-3.1.2l-.2,1.6a4.246,4.246,0,0,0,2.1.5c1.3,0,3.2-.7,3.2-2.5s-2.6-2.1-2.6-2.9c0-.9,1.9-.8,2.7-.3Z" transform="translate(2.418)" fill="#fff"/>
    <path id="Path_5525" data-name="Path 5525" d="M77.6,39.3,77,36.1a.856.856,0,0,0-.9-.7h-3v.1a6.886,6.886,0,0,1,2.7,1.4A6.636,6.636,0,0,1,77.6,39.3Z" transform="translate(2.24)" fill="#f9a533"/>
    <path id="Path_5526" data-name="Path 5526" d="M60.4,48a3.076,3.076,0,0,1-3,3H25.5a3.076,3.076,0,0,1-3-3V30a3.076,3.076,0,0,1,3-3h32a3.076,3.076,0,0,1,3,3Z" fill="#1c3663"/>
    <path id="Path_5527" data-name="Path 5527" d="M40.9,36.8a.713.713,0,0,0-.6.3s-1.3,2.2-1.4,2.4c-.1.1-.1,0-.1,0l-.3-2.3c0-.2-.2-.3-.5-.3h-.8c-.2,0-.3.1-.2.3,0,0,.6,3.4.7,4.2.1.5,0,.6,0,.6l-.8,1.4c-.1.2,0,.3.1.3h.9a.713.713,0,0,0,.6-.3l3.4-6.1s.3-.5,0-.5h-1M30,38a2.016,2.016,0,0,1-1.1.3h-.2c-.2,0-.3-.1-.2-.3l.2-1.1c0-.2.2-.3.5-.3h.2a1.884,1.884,0,0,1,.8.2.845.845,0,0,1,.2.6.723.723,0,0,1-.4.6m1.9-1.7a.821.821,0,0,0-.5-.5c-.2-.2-.4-.2-.8-.3-.3,0-.7-.1-1-.1H27.8c-.3-.1-.4.1-.5.3L26,41.1c0,.2.1.3.2.3h.9c.2,0,.3-.1.5-.3l.3-1.3c0-.2.2-.3.5-.3h.2a3.9,3.9,0,0,0,2.5-.7,2.091,2.091,0,0,0,.9-1.7.989.989,0,0,0-.1-.8m4.2.8a3.221,3.221,0,0,0-1.6-.2,3.4,3.4,0,0,0-1,.1,1.087,1.087,0,0,0-.5.1.205.205,0,0,0-.3.2l-.1.5c-.1.3.1.3.1.2a2.18,2.18,0,0,1,.6-.1,2.2,2.2,0,0,1,.8-.1,1.949,1.949,0,0,1,.8.1.588.588,0,0,1,.2.5v.1a.1.1,0,0,1-.1.1c-.5,0-.8.1-1.3.1a2.9,2.9,0,0,0-1.1.3,1.555,1.555,0,0,0-.8.6,1.222,1.222,0,0,0-.3.9.984.984,0,0,0,.3.8,1.4,1.4,0,0,0,.9.3h.6a2.034,2.034,0,0,1,.5-.1c.1,0,.2-.1.3-.2s.2-.1.3-.2v.1c0,.1.1.3.2.3h.9a.319.319,0,0,0,.3-.3l.7-2.7v-.4c.1-.6-.1-.9-.4-1Zm-1.6,3.3c-.1.1-.2.1-.3.2a.749.749,0,0,1-.5.1.9.9,0,0,1-.5-.1c-.1-.1-.2-.2-.1-.3a.9.9,0,0,1,.1-.5c.1-.1.2-.2.3-.2a3.536,3.536,0,0,1,.6-.1,5.639,5.639,0,0,0,.7-.1.1.1,0,0,1,.1.1,3.091,3.091,0,0,1-.2.8c-.1,0-.1,0-.2.1Zm17.4-3.3a3.221,3.221,0,0,0-1.6-.2,3.4,3.4,0,0,0-1,.1.9.9,0,0,0-.5.1c-.2-.1-.3.2-.3.2l-.1.5c-.2.2,0,.2,0,.2a2.18,2.18,0,0,1,.6-.1,2.2,2.2,0,0,1,.8-.1,1.949,1.949,0,0,1,.8.1c.2.1.2.2.2.3v.1a.1.1,0,0,1-.1.1c-.5,0-.8.1-1.3.1a2.9,2.9,0,0,0-1.1.3,1.555,1.555,0,0,0-.8.6,2.388,2.388,0,0,0-.2.9,1.135,1.135,0,0,0,.3.8,1.4,1.4,0,0,0,.9.3h.6a2.034,2.034,0,0,1,.5-.1c.1,0,.2-.1.3-.2s.2-.1.3-.2V41c0,.1.1.3.2.3h.8a.265.265,0,0,0,.3-.3l.7-2.7v-.4a.53.53,0,0,0-.3-.8Zm-1.5,3.3c-.1.1-.2.1-.3.2a.749.749,0,0,1-.5.1.9.9,0,0,1-.5-.1c-.2-.1-.2-.2-.1-.3a.9.9,0,0,1,.1-.5c.1-.1.2-.2.3-.2a3.536,3.536,0,0,1,.6-.1c.2,0,.6-.1.7-.1a.1.1,0,0,1,.1.1,1.854,1.854,0,0,1-.2.7c-.1.1-.2.1-.2.2Zm-4.6-2.3a1.609,1.609,0,0,1-1.1.3h-.2c-.2,0-.3-.1-.2-.3l.2-1.1c0-.2.2-.3.5-.3h.3c.3,0,.6.1.8.1a.845.845,0,0,1,.2.6c-.1.1-.3.5-.5.7m1.8-1.8a1.275,1.275,0,0,0-.4-.6,1.884,1.884,0,0,0-.8-.2c-.3,0-.7-.1-1-.1H43.5c-.2,0-.3.1-.5.3l-1.1,5.5c0,.2.1.3.2.3H43c.2,0,.3-.1.5-.3l.3-1.3c0-.2.2-.3.5-.3h.2a3.9,3.9,0,0,0,2.5-.7,2.091,2.091,0,0,0,.9-1.7,1.078,1.078,0,0,0-.3-.9m7.6-.5c0-.2-.1-.3-.2-.3h-.8c-.1,0-.3.1-.3.2V36l-1,4.9v.2c0,.1.1.3.2.3h.8c.1,0,.3-.1.3-.2v-.1l1-5.3Zm.9.7h-.2c-.1,0-.1,0-.2-.1a.349.349,0,0,1-.1-.2v-.4h-.1v-.1h.2v-.2h.1v.2h.3v.1h-.3v.5h.1l.2.2Zm1.4,0-.1-.5v-.2h-.2a.1.1,0,0,0-.1.1v.6h-.2v-.7h-.2a.1.1,0,0,0-.1.1v.7h-.1v-.9h.1v.1l.1-.1h.2l.1.1a.1.1,0,0,0,.1-.1h.1c.1,0,.1,0,.2.1,0,.1.1.1.1.2v.5Z" fill="#fff"/>
    <path id="Path_5528" data-name="Path 5528" d="M146.5,48a3.076,3.076,0,0,1-3,3h-32a3.076,3.076,0,0,1-3-3V30a3.076,3.076,0,0,1,3-3h32a3.076,3.076,0,0,1,3,3Z" transform="translate(4.4)" fill="#13457c"/>
    <path id="Path_5529" data-name="Path 5529" d="M189.6,48a3.076,3.076,0,0,1-3,3h-32a3.076,3.076,0,0,1-3-3V30a3.076,3.076,0,0,1,3-3h32a3.076,3.076,0,0,1,3,3Z" transform="translate(6.605)" fill="#084d95"/>
    <path id="Path_5530" data-name="Path 5530" d="M172.2,46.9a8.178,8.178,0,0,0,8.2-7.9,8.064,8.064,0,0,0-8.2-8h-3.7a7.814,7.814,0,0,0-7.9,8,7.917,7.917,0,0,0,7.9,7.9Z" transform="translate(6.514)" fill="#fff"/>
    <path id="Path_5531" data-name="Path 5531" d="M170.1,43.2V34.7a4.686,4.686,0,0,1,3,4.3,4.452,4.452,0,0,1-3,4.2M164,39a4.686,4.686,0,0,1,3-4.3v8.6a4.544,4.544,0,0,1-3-4.3m4.5-7.3a7.193,7.193,0,0,0-7.2,7.3,7.32,7.32,0,0,0,7.2,7.3,7.3,7.3,0,0,0,0-14.6" transform="translate(6.399)" fill="#084d95"/>
    <path id="Path_5532" data-name="Path 5532" d="M197.6,50.9a2.9,2.9,0,0,1-2.9-2.9V30a2.9,2.9,0,0,1,2.9-2.9h32a2.9,2.9,0,0,1,2.9,2.9V48a2.9,2.9,0,0,1-2.9,2.9Z" transform="translate(8.802)" fill="#e0e0e0"/>
    <path id="Path_5533" data-name="Path 5533" d="M229.6,27.2a2.754,2.754,0,0,1,2.7,2.7V48a2.754,2.754,0,0,1-2.7,2.7h-32a2.754,2.754,0,0,1-2.7-2.7V30a2.754,2.754,0,0,1,2.7-2.7l32-.1m0-.2h-32a3.076,3.076,0,0,0-3,3V48a3.076,3.076,0,0,0,3,3h32a3.076,3.076,0,0,0,3-3V30a3.148,3.148,0,0,0-3-3Z" transform="translate(8.805)" fill="#ccc"/>
    <path id="Path_5534" data-name="Path 5534" d="M205,51h26.3a1.324,1.324,0,0,0,1.3-1.3v-9C230,42.3,220.4,47.9,205,51Z" transform="translate(8.906)" fill="#f58220"/>
    <path id="Path_5535" data-name="Path 5535" d="M214.1,36.4a2.65,2.65,0,1,0,2.7,2.7A2.572,2.572,0,0,0,214.1,36.4Z" transform="translate(8.392)" fill="url(#radial-gradient)"/>
    <path id="Path_5536" data-name="Path 5536" d="M198.8,36.5h-1.5v5.1h1.5a2.445,2.445,0,0,0,1.8-.6,2.62,2.62,0,0,0,.9-1.9A2.445,2.445,0,0,0,198.8,36.5Zm1.2,3.8a2.289,2.289,0,0,1-1.4.5h-.2V37.4h.2a1.624,1.624,0,0,1,1.4.5,1.984,1.984,0,0,1,.6,1.3,4.073,4.073,0,0,1-.6,1.1Zm2-3.8h1v5.1h-1Zm3.4,1.9c-.6-.2-.8-.3-.8-.7s.3-.6.7-.6a.824.824,0,0,1,.8.5l.6-.7a2.815,2.815,0,0,0-1.5-.6,1.5,1.5,0,0,0-1.6,1.5c0,.7.3,1,1.3,1.4a2.389,2.389,0,0,1,.7.3.6.6,0,0,1,.3.6c0,.5-.3.7-.8.7a.963.963,0,0,1-1-.7l-.7.6a1.964,1.964,0,0,0,1.7,1,1.628,1.628,0,0,0,1.7-1.7C206.9,39.2,206.6,38.8,205.4,38.4Zm1.8.6a2.522,2.522,0,0,0,2.6,2.6,3.079,3.079,0,0,0,1.3-.3V40.2a2.022,2.022,0,0,1-1.1.6,1.628,1.628,0,0,1-1.7-1.7,1.605,1.605,0,0,1,1.6-1.7,1.574,1.574,0,0,1,1.3.6V36.7a3.079,3.079,0,0,0-1.3-.3,2.606,2.606,0,0,0-2.7,2.6Zm11.8.9-1.2-3.4h-1.2l2.2,5.1h.6l2.2-5.1h-1.2L219,39.9Zm3,1.6h2.8v-.8h-1.9V39.3h1.7v-.9h-1.7V37.3h1.9v-.8H222Zm6.6-3.5c0-.9-.7-1.5-1.8-1.5h-1.5v5.1h1V39.5h.1l1.4,2.1h1.3l-1.6-2.2a1.244,1.244,0,0,0,1.1-1.4Zm-1.9.8h-.3V37.3h.3c.6,0,.9.2.9.8C227.6,38.5,227.3,38.8,226.7,38.8Z" transform="translate(8.693)" fill="#001722"/>
    <path id="Path_5537" data-name="Path 5537" d="M229.3,36.8a.1.1,0,0,0-.1-.1h-.1v.5h.1v-.3l.1.2h.1l-.1-.2v-.1Z" transform="translate(11)" fill="#231f20"/>
    <path id="Path_5538" data-name="Path 5538" d="M229.2,36.5a.3.3,0,1,0,.3.3C229.6,36.7,229.4,36.5,229.2,36.5Zm0,.7a.3.3,0,1,1,0-.6.319.319,0,0,1,.3.3C229.6,37.1,229.3,37.2,229.2,37.2Z" transform="translate(11)" fill="#231f20"/>
    <path id="Path_5539" data-name="Path 5539" d="M275.5,48a3.076,3.076,0,0,1-3,3h-32a3.076,3.076,0,0,1-3-3V30a3.076,3.076,0,0,1,3-3h32a3.076,3.076,0,0,1,3,3Z" transform="translate(11)" fill="#0c489c"/>
    <path id="Path_5540" data-name="Path 5540" d="M265.1,40a52.292,52.292,0,0,1,0,5.6,2.453,2.453,0,0,1-1.1,1.8,3.426,3.426,0,0,1-1.8.3h-2.4V32.3a2.734,2.734,0,0,1,1.8-2.2c1.1-.1,2.3-.1,3.5-.1l.1.8V40Zm-17.3-.5V32.1a2.558,2.558,0,0,1,1.6-1.9,22.966,22.966,0,0,1,3.8-.2c.1,1.1,0,2.6,0,3.8l.1,9.5c-.1,1.5.3,3.4-1.4,4.2-1.1.6-2.6.2-4,.3V39.5h-.1Zm11.4-8.4V46a2.56,2.56,0,0,1-1.5,1.7,15.6,15.6,0,0,1-3.8.2l-.1-15.7a2.57,2.57,0,0,1,1.1-1.7,7.494,7.494,0,0,1,1.6-.5H259Z" transform="translate(11)" fill="#fff"/>
    <path id="Path_5541" data-name="Path 5541" d="M247.8,39.8a2.265,2.265,0,0,0,1.9,1.1c1,.1,2.3.2,3-.8.5-.5.2-1.1.2-1.8V37.2a9.634,9.634,0,0,0-1.7,0c-.3,1.3.6,2.6-.9,3.3a1.465,1.465,0,0,1-1.1-.2c-.6-.1-.2-1-.9-.8l-.5-.1v.4Zm11.1-2.5c.1.2,0,.3,0,.6-.9-.2-2.1-.6-2.9.1a1.727,1.727,0,0,0-.5,1.3,2.072,2.072,0,0,0,.9,1.3,5.863,5.863,0,0,0,2.3-.1c0,.1.1.3,0,.5h-3.4a2.314,2.314,0,0,1-1.4-1,1.891,1.891,0,0,1,.3-1.8,1.683,1.683,0,0,1,1.5-.7h3.2v-.2Zm6.2,2.7a1.078,1.078,0,0,1-.8.8h-4.2l-.1-.1V37.2h2.6c.8.1,1.8-.2,2.2.6.1.2.1.7-.1.8-.1.2-.3.2-.5.3a1.12,1.12,0,0,1,.8.7V40Zm-3.5-2.5a2.054,2.054,0,0,0,0,1.1c.7,0,1.5.2,1.8-.2a.854.854,0,0,0,0-.7c-.6-.3-1.3-.1-1.8-.2Zm1.6,1.7a4.854,4.854,0,0,0-1.7,0,5.7,5.7,0,0,0,.1,1.3,3.591,3.591,0,0,0,1.8-.2.845.845,0,0,0,.2-.6A1,1,0,0,0,263.2,39.2Z" transform="translate(11)" fill="#0c489c"/>
    <g id="layer1_1_" transform="translate(120.573 32.2)">
      <g id="g10305_1_">
        <path id="path2268_1_" d="M138.9,39a6.8,6.8,0,1,1-6.8-6.8A6.807,6.807,0,0,1,138.9,39Z" transform="translate(-116.1 -32.2)" fill="#f90"/>
        <path id="path1350_1_" d="M122.9,32.2a6.8,6.8,0,1,0,0,13.6,6.773,6.773,0,0,0,4.6-1.8l.7-.7h-1.4a3.039,3.039,0,0,1-.5-.7h2.4c.1-.2.3-.5.4-.7h-3.2c-.1-.2-.2-.5-.3-.7h3.8a7.8,7.8,0,0,0,.4-2.2,7.72,7.72,0,0,0-.2-1.5h-4.2c.1-.2.1-.5.2-.7h3.8a4.875,4.875,0,0,0-.3-.7h-3.2a2.506,2.506,0,0,1,.4-.7h2.4a4.234,4.234,0,0,0-.5-.7h-1.3a4.62,4.62,0,0,1,.7-.7,7.226,7.226,0,0,0-4.7-1.8Z" transform="translate(-116.1 -32.2)" fill="#c00"/>
        <path id="use9412_1_" d="M138.2,42.6c.1,0,.2,0,.2.1v.2a.1.1,0,0,1-.1.1h-.2a.1.1,0,0,1-.1-.1v-.2s0-.1.2-.1m0,0c-.1,0-.1.1-.2.1v.2a.1.1,0,0,0,.1.1h.2a.1.1,0,0,0,.1-.1v-.2a.349.349,0,0,0-.2-.1h0m-.1.3v-.2h.2l-.2.2h0m.1-.1h0c.1-.1,0-.1,0,0h0" transform="translate(-116.1 -32.2)" fill="#fcb340"/>
      </g>
      <g id="g16480_1_" transform="translate(0.356 5)">
        <g id="g13802_1_" transform="translate(0 0.194)">
          <path id="path13804_1_" d="M138.9,25l.1-.6h-.2c-.3,0-.3-.1-.3-.2l.2-1.2h.4l.1-.7h-.4l.1-.4h-.8s-.4,2.4-.4,2.7a.53.53,0,0,0,.6.6,3.224,3.224,0,0,0,.6-.2Z" transform="translate(-130.2 -21.4)" fill="#006"/>
          <path id="path13806_1_" d="M139.2,23.8a1.2,1.2,0,0,0,1.3,1.3,2.767,2.767,0,0,0,.8-.1l.1-.7a2.913,2.913,0,0,1-.8.2c-.8,0-.6-.6-.6-.6h1.5a5.638,5.638,0,0,0,.1-.7,1.044,1.044,0,0,0-1.1-1.1c-.8,0-1.3.8-1.3,1.7Zm1.2-1c.4,0,.3.5.3.5h-.8C140,23.2,140,22.8,140.4,22.8Z" transform="translate(-130.2 -21.4)" fill="#006"/>
          <path id="path13808_1_" d="M145,25l.1-.8a2.014,2.014,0,0,1-.6.2.709.709,0,0,1-.7-.8c0-.9.4-1.3.9-1.3a1.383,1.383,0,0,1,.7.2l.1-.8a1.541,1.541,0,0,0-.7-.3c-1.1,0-1.8.8-1.8,2.2a1.321,1.321,0,0,0,1.3,1.5,3.548,3.548,0,0,0,.7-.1Z" transform="translate(-130.2 -21.4)" fill="#006"/>
          <path id="path13810_3_" d="M134.9,22.1a2.228,2.228,0,0,0-.9.2l-.1.6a2.767,2.767,0,0,1,.8-.1c.3,0,.5,0,.5.3v.2h-.3c-.7,0-1.3.3-1.3,1.1a.71.71,0,0,0,.7.8.835.835,0,0,0,.7-.3v.3h.6l.3-2C135.9,22.1,135.2,22.1,134.9,22.1Zm.1,1.6c0,.1,0,.7-.5.7a.319.319,0,0,1-.3-.3c0-.2.1-.4.6-.4h.2Z" transform="translate(-130.2 -21.4)" fill="#006"/>
          <path id="path13812_1_" d="M136.6,25c.2,0,1.1,0,1.1-.9s-.9-.7-.9-1.1c0-.2.1-.2.4-.2h.5l.1-.6a2.442,2.442,0,0,0-.7-.1c-.5,0-1.1.2-1.1.9,0,.8.9.7.9,1.1,0,.2-.3.3-.5.3a2.18,2.18,0,0,1-.6-.1l-.1.6c.1.1.3.1.9.1Z" transform="translate(-130.2 -21.4)" fill="#006"/>
          <path id="path13814_1_" d="M151,21.5l-.1,1a1.023,1.023,0,0,0-.7-.4c-.8,0-1.2.8-1.2,1.7,0,.6.3,1.2.9,1.2a1.1,1.1,0,0,0,.7-.3V25h.7l.6-3.5H151Zm-.3,1.9c0,.4-.2.9-.6.9-.3,0-.4-.2-.4-.6,0-.6.3-.9.6-.9S150.7,23,150.7,23.4Z" transform="translate(-130.2 -21.4)" fill="#006"/>
          <path id="path13816_1_" d="M131,25l.4-2.6.1,2.6h.5l.9-2.6-.4,2.6h.7l.6-3.5h-1.2l-.7,2.1V21.5h-1.1l-.6,3.5Z" transform="translate(-130.2 -21.4)" fill="#006"/>
          <path id="path13818_1_" d="M142.2,25c.2-1.2.3-2.2.9-2a4.33,4.33,0,0,1,.4-1.1h-.2c-.3,0-.8.7-.8.7l.1-.4h-.7l-.5,2.8Z" transform="translate(-130.2 -21.4)" fill="#006"/>
          <g id="use14699_1_" transform="translate(15.1 0.7)">
            <path id="path13810_2_" d="M-698.7,22.1a2.228,2.228,0,0,0-.9.2l-.1.6a2.767,2.767,0,0,1,.8-.1c.3,0,.5,0,.5.3v.2h-.3c-.7,0-1.3.3-1.3,1.1a.71.71,0,0,0,.7.8.835.835,0,0,0,.7-.3v.3h.6l.3-2C-697.7,22.1-698.5,22.1-698.7,22.1Zm.1,1.6c0,.1,0,.7-.5.7a.319.319,0,0,1-.3-.3c0-.2.1-.4.6-.4h.2Z" transform="translate(700 -22.1)" fill="#006"/>
          </g>
          <path id="use14701_1_" d="M148.3,25c.1-.9.3-2.1.9-2,.1-.5,0-.5-.2-.5h-.4l.1-.4H148l-.5,2.9h.8Z" transform="translate(-130.2 -21.4)" fill="#006"/>
        </g>
        <g id="g10289_1_" transform="translate(0.244)">
          <path id="path4157_1_" d="M125.4,40.7l.1-.6h-.2c-.3,0-.3-.1-.3-.2l.2-1.3h.4l.1-.7h-.4l.1-.4h-.7s-.4,2.4-.4,2.7a.53.53,0,0,0,.6.6.749.749,0,0,0,.5-.1Z" transform="translate(-116.7 -37.2)" fill="#fff"/>
          <path id="path4155_1_" d="M125.6,39.6a1.2,1.2,0,0,0,1.3,1.3,2.767,2.767,0,0,0,.8-.1l.1-.7a2.069,2.069,0,0,1-.8.2c-.8,0-.6-.6-.6-.6h1.5a5.639,5.639,0,0,0,.1-.7.964.964,0,0,0-1-1.1,1.512,1.512,0,0,0-1.4,1.7Zm1.3-1.1c.4,0,.3.5.3.5h-.8S126.5,38.5,126.9,38.5Z" transform="translate(-116.7 -37.2)" fill="#fff"/>
          <path id="path4151_1_" d="M131.5,40.7l.1-.8a2.014,2.014,0,0,1-.6.2.709.709,0,0,1-.7-.8c0-.9.4-1.3.9-1.3a1.383,1.383,0,0,1,.7.2l.1-.8a2.069,2.069,0,0,0-.8-.2,1.871,1.871,0,0,0-1.7,2.1c0,.9.4,1.5,1.3,1.5a3.548,3.548,0,0,0,.7-.1Z" transform="translate(-116.7 -37.2)" fill="#fff"/>
          <path id="path4149_3_" d="M121.4,37.9a2.228,2.228,0,0,0-.9.2l-.1.6a2.767,2.767,0,0,1,.8-.1c.3,0,.5,0,.5.3v.2h-.3a1.155,1.155,0,0,0-1.3,1.1.71.71,0,0,0,.7.8.835.835,0,0,0,.7-.3V41h.6l.3-2c0-1.1-.8-1.1-1-1.1Zm.1,1.6c0,.1-.1.7-.5.7a.319.319,0,0,1-.3-.3c0-.2.1-.4.6-.4h.2Z" transform="translate(-116.7 -37.2)" fill="#fff"/>
          <path id="path4145_1_" d="M123.1,40.8c.2,0,1.1,0,1.1-.9s-.9-.7-.9-1.1c0-.2.1-.2.4-.2h.5l.1-.6a2.442,2.442,0,0,0-.7-.1c-.5,0-1.1.2-1.1.9,0,.8.9.7.9,1.1,0,.2-.3.3-.4.3a2.18,2.18,0,0,1-.6-.1l-.1.6s.1.1.8.1Z" transform="translate(-116.7 -37.2)" fill="#fff"/>
          <path id="path4139_1_" d="M137.5,37.3l-.2,1a1.023,1.023,0,0,0-.7-.4c-.7,0-1.2.8-1.2,1.7,0,.6.3,1.2.9,1.2a1.1,1.1,0,0,0,.7-.3v.3h.7l.6-3.5Zm-.3,1.9c0,.4-.2.9-.6.9-.3,0-.4-.2-.4-.6,0-.6.3-.9.6-.9C137,38.6,137.2,38.8,137.2,39.2Z" transform="translate(-116.7 -37.2)" fill="#fff"/>
          <path id="path4133_1_" d="M117.4,40.8l.4-2.6.1,2.6h.6l.9-2.6-.4,2.6h.7l.6-3.5h-1.2l-.7,2.1V37.3h-1.1l-.6,3.5Z" transform="translate(-116.7 -37.2)" fill="#fff"/>
          <path id="path4131_3_" d="M128.6,40.8c.2-1.2.3-2.2.8-2a2.192,2.192,0,0,1,.3-.8h-.1c-.3,0-.6.4-.6.4l.1-.4h-.7l-.5,2.8Z" transform="translate(-116.7 -37.2)" fill="#fff"/>
          <g id="use8523_1_" transform="translate(15.206 0.7)">
            <path id="path4149_2_" d="M-713.8,37.9a2.228,2.228,0,0,0-.9.2l-.1.6a2.767,2.767,0,0,1,.8-.1c.3,0,.5,0,.5.3v.2h-.3a1.155,1.155,0,0,0-1.3,1.1.71.71,0,0,0,.7.8.835.835,0,0,0,.7-.3V41h.6l.3-2C-712.8,37.9-713.6,37.9-713.8,37.9Zm.1,1.6c0,.1-.1.7-.5.7a.319.319,0,0,1-.3-.3c0-.2.1-.4.6-.4Z" transform="translate(715.1 -37.9)" fill="#fff"/>
          </g>
          <g id="use8525_1_" transform="translate(17.386 0.8)">
            <path id="path4131_2_" d="M-307.5,40.8c.2-1.2.3-2.2.8-2a2.193,2.193,0,0,1,.3-.8h-.1c-.3,0-.6.4-.6.4l.1-.4h-.7l-.5,2.8h.7Z" transform="translate(308.2 -38)" fill="#fff"/>
          </g>
          <path id="text9407_1_" d="M138.2,40.3c.1,0,.2,0,.2.1v.2a.1.1,0,0,1-.1.1h-.2a.1.1,0,0,1-.1-.1v-.2s0-.1.2-.1h0m0,.1c-.1,0-.1.1-.2.1v.2a.1.1,0,0,0,.1.1h.2a.1.1,0,0,0,.1-.1v-.2c0-.1-.1-.1-.2-.1h0m-.1.3v-.2h.2l-.2.2h0m.1-.1h0" transform="translate(-116.7 -37.2)" fill="#fff"/>
        </g>
      </g>
    </g>
  </g>
</svg>
