<svg id="iconfinder__Paypal-39_1156727" xmlns="http://www.w3.org/2000/svg" width="74.118" height="18.941" viewBox="0 0 74.118 18.941">
  <path id="Shape" d="M2.471,11.177H.352A.312.312,0,0,1,0,10.825L1.647.471A.778.778,0,0,1,2.235,0h4a4.792,4.792,0,0,1,3.059.94A3.1,3.1,0,0,1,9.766,3.53,4.453,4.453,0,0,1,8.354,6.441a4.8,4.8,0,0,1-3.178.97H3.883a.539.539,0,0,0-.59.473l-.47,2.941A.312.312,0,0,1,2.471,11.177Zm2-8.823c-.242,0-.353.122-.353.235L3.646,5.3h.708c1.04,0,2.115,0,2.351-1.413,0-.586,0-.94-.235-1.058-.353-.47-1.069-.47-1.763-.47Z" transform="translate(51.059 4.941)" fill="#139ad6"/>
  <path id="Shape-2" data-name="Shape" d="M2.236,11.177H.353A.313.313,0,0,1,0,10.823L1.646.471A.782.782,0,0,1,2.236,0h4A4.531,4.531,0,0,1,9.293.94a3.1,3.1,0,0,1,.472,2.591A4.45,4.45,0,0,1,8.354,6.442a4.791,4.791,0,0,1-3.176.97H3.884a.538.538,0,0,0-.589.469l-.472,2.824A.781.781,0,0,1,2.236,11.177ZM4.589,2.352c-.243,0-.354.122-.354.236L3.764,5.293h.589c1.042,0,2.119,0,2.353-1.412a1.244,1.244,0,0,0-.118-1.058c-.351-.471-1.068-.471-1.763-.471Z" transform="translate(22.235 4.941)" fill="#263b80"/>
  <path id="Shape-3" data-name="Shape" d="M3.25,7.765A2.938,2.938,0,0,1,.779,6.823,3.5,3.5,0,0,1,.073,3.882,4.527,4.527,0,0,1,4.428,0,2.757,2.757,0,0,1,6.662.823l.118.235L6.9.472c0-.114.229-.236.354-.236H9.133c.121,0,.375.257.471.353L8.544,7.176a.782.782,0,0,1-.589.471H6.191a.313.313,0,0,1-.354-.353l.118-.589A3.838,3.838,0,0,1,3.25,7.765ZM4.66,2.118A2.149,2.149,0,0,0,2.543,4,2.527,2.527,0,0,0,2.9,5.412a1.894,1.894,0,0,0,1.3.471A2.267,2.267,0,0,0,6.427,4a2.09,2.09,0,0,0-.471-1.411A2.151,2.151,0,0,0,4.66,2.118Z" transform="translate(31.456 8.471)" fill="#263b80"/>
  <path id="Shape-4" data-name="Shape" d="M3.25,7.765A2.938,2.938,0,0,1,.779,6.823,3.506,3.506,0,0,1,.072,3.882,4.529,4.529,0,0,1,4.427,0,2.751,2.751,0,0,1,6.663.824l.115.235L6.9.472c0-.115.229-.237.352-.237H9.132a.517.517,0,0,1,.386.254l.016.018A.913.913,0,0,0,9.6.589L8.545,7.178a.782.782,0,0,1-.59.47H6.191A.312.312,0,0,1,5.839,7.3l.117-.59A3.833,3.833,0,0,1,3.25,7.765ZM4.662,2.118A2.149,2.149,0,0,0,2.543,4,2.511,2.511,0,0,0,2.9,5.411a1.883,1.883,0,0,0,1.3.472A2.266,2.266,0,0,0,6.426,4a1.352,1.352,0,0,0-.47-1.412A2.165,2.165,0,0,0,4.662,2.118Z" transform="translate(60.162 8.471)" fill="#139ad6"/>
  <g id="Group">
    <path id="Path" d="M9.059,0h-2a.611.611,0,0,0-.471.235L4,4.235,2.824.471A.544.544,0,0,0,2.235.118H.353C.118.118,0,.353,0,.588L2.118,6.824l-2,2.824c-.118.235,0,.588.235.588H2.235A.611.611,0,0,0,2.706,10L9.176.706C9.529.353,9.294,0,9.059,0" transform="translate(41.765 8.706)" fill="#263b80"/>
    <path id="Path-2" data-name="Path" d="M1.647.281,0,10.87a.312.312,0,0,0,.353.353H2a.782.782,0,0,0,.588-.471L4.235.4A.312.312,0,0,0,3.882.046H2c-.118-.118-.235,0-.353.235" transform="translate(69.882 5.013)" fill="#139ad6"/>
    <path id="Path-3" data-name="Path" d="M13.529,1.412C12.706.471,11.176,0,9.059,0H3.176a1.009,1.009,0,0,0-.824.706L0,16.118a.538.538,0,0,0,.471.588H4.118l.941-5.765v.235a1.009,1.009,0,0,1,.824-.706H7.647c3.412,0,6-1.412,6.824-5.294V4.824h0a4.109,4.109,0,0,0-.941-3.412" transform="translate(0 0)" fill="#263b80"/>
  </g>
  <path id="Path-4" data-name="Path" d="M10.588,0h0V.353c-.824,4-3.412,5.294-6.824,5.294H2a1.009,1.009,0,0,0-.824.706L0,13.529A.431.431,0,0,0,.471,14H3.529a.659.659,0,0,0,.706-.588v-.118l.588-3.647V9.412a.659.659,0,0,1,.706-.588H6c2.941,0,5.294-1.176,5.882-4.706A4.325,4.325,0,0,0,11.294.588,1.2,1.2,0,0,0,10.588,0" transform="translate(3.765 4.824)" fill="#139ad6"/>
  <path id="Path-5" data-name="Path" d="M8.471.353c-.118,0-.235-.118-.353-.118A.432.432,0,0,1,7.765.118,6.215,6.215,0,0,0,6.235,0H1.647a.432.432,0,0,0-.353.118A.647.647,0,0,0,.941.706L0,6.824v.235a1.009,1.009,0,0,1,.824-.706H2.588c3.412,0,6-1.412,6.824-5.294A.432.432,0,0,1,9.529.706C9.294.588,9.176.471,8.941.471,8.588.353,8.588.353,8.471.353" transform="translate(5.059 4.118)" fill="#232c65"/>
</svg>
