<svg id="iconfinder__Paypal-39_1156727" xmlns="http://www.w3.org/2000/svg" width="74.118" height="18.941" viewBox="0 0 74.118 18.941">
  <path id="Shape" d="M2.47,11.178H.353A.314.314,0,0,1,0,10.822L1.648.471A.776.776,0,0,1,2.235,0h4a4.774,4.774,0,0,1,3.06.943,3.09,3.09,0,0,1,.469,2.586A4.451,4.451,0,0,1,8.354,6.441a4.789,4.789,0,0,1-3.178.971H3.884a.539.539,0,0,0-.59.471l-.472,2.939A.311.311,0,0,1,2.47,11.178Zm2-8.824c-.242,0-.353.121-.353.234L3.646,5.3h.706c1.041,0,2.117,0,2.354-1.411,0-.588,0-.943-.236-1.061-.351-.469-1.069-.469-1.765-.469Z" transform="translate(51.059 4.941)" fill="#fff"/>
  <path id="Shape-2" data-name="Shape" d="M2.236,11.176H.352A.309.309,0,0,1,0,10.822L1.647.471A.778.778,0,0,1,2.236,0h4A4.521,4.521,0,0,1,9.293.941a3.1,3.1,0,0,1,.473,2.587A4.46,4.46,0,0,1,8.354,6.441a4.79,4.79,0,0,1-3.176.97H3.884a.538.538,0,0,0-.589.47l-.473,2.825A.773.773,0,0,1,2.236,11.176ZM4.589,2.354c-.243,0-.354.122-.354.235l-.47,2.706h.589c1.041,0,2.117,0,2.353-1.412a1.277,1.277,0,0,0-.119-1.059c-.351-.47-1.068-.47-1.764-.47Z" transform="translate(22.235 4.941)" fill="#fff"/>
  <path id="Shape-3" data-name="Shape" d="M3.25,7.764A2.942,2.942,0,0,1,.778,6.823a3.489,3.489,0,0,1-.7-2.941A4.528,4.528,0,0,1,4.426,0,2.76,2.76,0,0,1,6.663.825l.116.235L6.9.471c0-.114.229-.235.354-.235H9.132c.113,0,.336.217.455.333L9.6.587,8.544,7.176a.788.788,0,0,1-.589.472H6.19a.312.312,0,0,1-.351-.353l.116-.588A3.835,3.835,0,0,1,3.25,7.764ZM4.661,2.117A2.152,2.152,0,0,0,2.543,4,2.53,2.53,0,0,0,2.9,5.412a1.893,1.893,0,0,0,1.295.472A2.269,2.269,0,0,0,6.426,4a2.087,2.087,0,0,0-.47-1.411A2.133,2.133,0,0,0,4.661,2.117Z" transform="translate(31.456 8.471)" fill="#fff"/>
  <path id="Shape-4" data-name="Shape" d="M3.25,7.765A2.94,2.94,0,0,1,.779,6.823,3.5,3.5,0,0,1,.074,3.882,4.524,4.524,0,0,1,4.426,0,2.751,2.751,0,0,1,6.662.825l.118.234L6.9.469c0-.116.242-.234.353-.234H9.133a.519.519,0,0,1,.386.254,1.111,1.111,0,0,0,.085.1L8.543,7.176a.776.776,0,0,1-.586.471H6.191a.312.312,0,0,1-.353-.353L5.957,6.7A3.831,3.831,0,0,1,3.25,7.765ZM4.662,2.116A2.15,2.15,0,0,0,2.545,4,2.515,2.515,0,0,0,2.9,5.41a1.863,1.863,0,0,0,1.294.471A2.271,2.271,0,0,0,6.428,4a1.357,1.357,0,0,0-.471-1.413l-.008,0A2.137,2.137,0,0,0,4.662,2.116Z" transform="translate(60.162 8.471)" fill="#fff"/>
  <g id="Group">
    <path id="Path" d="M9.059,0h-2a.611.611,0,0,0-.471.235L4,4.235,2.824.471A.544.544,0,0,0,2.235.118H.353C.118.118,0,.353,0,.588L2.118,6.824l-2,2.824c-.118.235,0,.588.235.588H2.235A.611.611,0,0,0,2.706,10L9.176.706C9.529.353,9.294,0,9.059,0" transform="translate(41.765 8.706)" fill="#fff"/>
    <path id="Path-2" data-name="Path" d="M1.647.281,0,10.87a.312.312,0,0,0,.353.353H2a.782.782,0,0,0,.588-.471L4.235.4A.312.312,0,0,0,3.882.046H2c-.118-.118-.235,0-.353.235" transform="translate(69.882 5.013)" fill="#fff"/>
    <path id="Path-3" data-name="Path" d="M13.529,1.412C12.706.471,11.176,0,9.059,0H3.176a1.009,1.009,0,0,0-.824.706L0,16.118a.538.538,0,0,0,.471.588H4.118l.941-5.765v.235a1.009,1.009,0,0,1,.824-.706H7.647c3.412,0,6-1.412,6.824-5.294V4.824h0a4.109,4.109,0,0,0-.941-3.412" transform="translate(0 0)" fill="#fff"/>
  </g>
  <path id="Path-4" data-name="Path" d="M10.588,0h0V.353c-.824,4-3.412,5.294-6.824,5.294H2a1.009,1.009,0,0,0-.824.706L0,13.529A.431.431,0,0,0,.471,14H3.529a.659.659,0,0,0,.706-.588v-.118l.588-3.647V9.412a.659.659,0,0,1,.706-.588H6c2.941,0,5.294-1.176,5.882-4.706A4.325,4.325,0,0,0,11.294.588,1.2,1.2,0,0,0,10.588,0" transform="translate(3.765 4.824)" fill="rgba(255,255,255,0.8)"/>
  <path id="Path-5" data-name="Path" d="M8.471.353c-.118,0-.235-.118-.353-.118A.432.432,0,0,1,7.765.118,6.215,6.215,0,0,0,6.235,0H1.647a.432.432,0,0,0-.353.118A.647.647,0,0,0,.941.706L0,6.824v.235a1.009,1.009,0,0,1,.824-.706H2.588c3.412,0,6-1.412,6.824-5.294A.432.432,0,0,1,9.529.706C9.294.588,9.176.471,8.941.471,8.588.353,8.588.353,8.471.353" transform="translate(5.059 4.118)" fill="rgba(19,154,214,0.1)"/>
</svg>
