<svg width="1143" height="141" viewBox="0 0 1143 141" fill="none" xmlns="http://www.w3.org/2000/svg">
<path d="M140.816 48.69V36.79H147.536C152.786 36.79 154.986 38.43 154.986 42.38C154.986 44.19 154.986 48.7 148.666 48.7H140.816V48.69ZM140.816 55.69H150.516C161.406 55.69 163.436 46.44 163.436 42.77C163.436 34.81 158.696 29.79 150.856 29.79H132.356V70.3H140.816V55.69ZM174.676 40.29V70.3H166.776V40.29H174.676ZM174.676 36.73H166.776V29.4H174.676V36.73ZM222.346 70.3H214.446V52.08C214.446 47.62 212.476 46.16 210.156 46.16C206.206 46.16 204.796 48.76 204.796 52.31V70.31H196.896V52.25C196.896 49.71 196.896 46.16 192.156 46.16C188.436 46.16 187.246 48.76 187.246 52.03V70.3H179.346V40.29H186.906V44.69H187.016C188.036 42.72 190.236 39.5 195.536 39.5C199.886 39.5 201.856 41.08 203.886 44.3C204.906 42.83 207.106 39.5 211.896 39.5C217.766 39.5 222.336 42.94 222.336 49.54V70.3H222.346ZM243.346 59.53C243.346 63.2 239.786 65.45 236.296 65.45C234.776 65.45 232.626 64.6 232.626 61.84C232.626 58.57 235.056 57.83 237.986 57.33C241.256 56.82 242.556 56.31 243.346 55.69V59.53ZM251.076 48.18C251.076 40.79 243.346 39.49 239.116 39.49C232.966 39.49 226.586 40.79 225.686 49.99H233.306C233.536 48.24 234.206 45.81 238.156 45.81C240.186 45.81 243.346 45.98 243.346 49.31C243.346 51 241.826 51.51 240.586 51.68L233.476 52.75C228.456 53.48 224.726 56.47 224.726 62.34C224.726 68.55 229.356 71.08 233.866 71.08C239.226 71.08 241.766 68.6 243.576 66.74C243.746 68.43 243.856 68.88 244.306 70.29H252.826V69.11C251.866 68.77 251.076 67.98 251.076 64.43V48.18ZM281.766 43.05C281.086 40.62 279.786 36.05 272.796 36.05C268.736 36.05 262.756 38.76 262.756 50.21C262.756 57.49 265.636 64.03 272.796 64.03C277.476 64.03 280.756 61.38 281.766 56.41H290.226C288.536 65.21 282.776 71.36 272.626 71.36C261.846 71.36 254.116 64.08 254.116 50.09C254.116 35.93 262.296 28.71 272.736 28.71C284.866 28.71 289.776 37.06 290.226 43.04H281.766V43.05ZM314.046 55.29C314.046 59.13 312.916 64.43 306.826 64.43C300.736 64.43 299.606 59.13 299.606 55.29C299.606 51.45 300.736 46.15 306.826 46.15C312.916 46.15 314.046 51.46 314.046 55.29ZM322.166 55.29C322.166 44.46 314.886 39.49 306.816 39.49C298.746 39.49 291.466 44.46 291.466 55.29C291.466 66.12 298.746 71.09 306.816 71.09C314.886 71.09 322.166 66.13 322.166 55.29ZM367.816 70.3H359.916V52.08C359.916 47.62 357.946 46.16 355.626 46.16C351.676 46.16 350.266 48.76 350.266 52.31V70.31H342.366V52.25C342.366 49.71 342.366 46.16 337.626 46.16C333.906 46.16 332.716 48.76 332.716 52.03V70.3H324.816V40.29H332.376V44.69H332.486C333.506 42.72 335.706 39.5 341.006 39.5C345.356 39.5 347.326 41.08 349.356 44.3C350.376 42.83 352.576 39.5 357.366 39.5C363.236 39.5 367.806 42.94 367.806 49.54V70.3H367.816ZM415.156 70.3H407.256V52.08C407.256 47.62 405.286 46.16 402.966 46.16C399.016 46.16 397.606 48.76 397.606 52.31V70.31H389.706V52.25C389.706 49.71 389.706 46.16 384.966 46.16C381.246 46.16 380.056 48.76 380.056 52.03V70.3H372.156V40.29H379.716V44.69H379.826C380.846 42.72 383.046 39.5 388.346 39.5C392.696 39.5 394.666 41.08 396.696 44.3C397.716 42.83 399.916 39.5 404.706 39.5C410.576 39.5 415.146 42.94 415.146 49.54V70.3H415.156ZM445.526 70.3H437.966V66.07H437.856C436.046 69.29 432.886 71.09 428.716 71.09C422.796 71.09 418.506 67.71 418.506 60.03V40.29H426.406V58.9C426.406 63.53 429.116 64.43 431.536 64.43C434.126 64.43 437.626 62.96 437.626 57.6V40.29H445.526V70.3V70.3ZM477.236 70.3H469.336V52.08C469.336 49.88 469.226 46.16 464.206 46.16C460.706 46.16 457.996 48.53 457.996 53.1V70.3H450.096V40.29H457.656V44.69H457.766C458.836 42.88 461.096 39.5 466.796 39.5C472.666 39.5 477.236 42.94 477.236 49.54V70.3ZM489.876 40.29V70.3H481.976V40.29H489.876ZM489.876 36.73H481.976V29.4H489.876V36.73ZM503.476 40.29H508.386V45.93H503.476V62.24C503.476 63.99 503.536 64.67 506.756 64.67C507.266 64.67 507.826 64.61 508.396 64.56V70.54C507.156 70.59 505.916 70.65 504.676 70.65H503.656C496.826 70.65 495.586 68.05 495.586 64.16V45.93H491.526V40.29H495.586V32.16H503.486V40.29H503.476ZM527.006 69.79C523.286 80.91 522.266 82.37 515.386 82.37C514.316 82.37 512.956 82.31 511.836 82.26V75.94C512.176 76 512.686 76.05 513.356 76.05C516.236 76.05 517.816 75.66 518.546 71.54L507.486 40.28H516.286L522.716 62.4H522.826L528.976 40.28H537.326L527.006 69.79ZM565.596 43.05C564.916 40.62 563.616 36.05 556.626 36.05C552.566 36.05 546.586 38.76 546.586 50.21C546.586 57.49 549.466 64.03 556.626 64.03C561.306 64.03 564.586 61.38 565.596 56.41H574.056C572.366 65.21 566.606 71.36 556.456 71.36C545.676 71.36 537.946 64.08 537.946 50.09C537.946 35.93 546.126 28.71 556.566 28.71C568.696 28.71 573.606 37.06 574.056 43.04H565.596V43.05ZM597.876 55.29C597.876 59.13 596.746 64.43 590.656 64.43C584.556 64.43 583.436 59.13 583.436 55.29C583.436 51.45 584.566 46.15 590.656 46.15C596.746 46.15 597.876 51.46 597.876 55.29ZM605.996 55.29C605.996 44.46 598.716 39.49 590.646 39.49C582.576 39.49 575.296 44.46 575.296 55.29C575.296 66.12 582.576 71.09 590.646 71.09C598.716 71.09 605.996 66.13 605.996 55.29ZM616.826 70.3H608.926V29.79H616.826V70.3ZM629.696 70.3H621.796V29.79H629.696V70.3ZM640.196 52.3C640.646 48.35 642.616 45.98 646.346 45.98C648.886 45.98 651.986 47.45 652.446 52.3H640.196ZM652.096 61.5C651.476 63.64 649.216 64.77 647.016 64.77C640.636 64.77 640.186 59.69 639.956 57.43H660.556V56.02C660.556 42.31 652.376 39.49 646.446 39.49C633.296 39.49 632.056 51.06 632.056 54.67C632.056 67.03 638.546 71.09 647.006 71.09C652.136 71.09 658.126 68.72 660.206 61.5H652.096ZM669.706 55.46C669.706 48.46 672.976 46.32 675.916 46.32C680.316 46.32 682.686 50.27 682.686 55.12C682.686 59.24 681.336 63.81 675.976 63.81C671.286 63.81 669.706 59.3 669.706 55.46ZM682.966 40.29V44.75H682.856C681.896 42.77 679.636 39.5 674.056 39.5C667.456 39.5 661.586 44.58 661.586 54.96C661.586 65.45 667.286 70.48 674.506 70.48C679.246 70.48 681.226 68.28 682.516 65.97L682.626 66.08V69.69C682.626 74.54 680.596 76.58 676.366 76.58C671.796 76.58 671.176 75.05 670.836 73.53H662.256C662.596 79.91 669.136 82.56 675.346 82.56C690.126 82.56 690.526 73.93 690.526 68.74V40.29H682.966ZM700.946 52.3C701.396 48.35 703.376 45.98 707.096 45.98C709.636 45.98 712.736 47.45 713.196 52.3H700.946ZM712.856 61.5C712.236 63.64 709.976 64.77 707.776 64.77C701.396 64.77 700.946 59.69 700.726 57.43H721.326V56.02C721.326 42.31 713.146 39.49 707.216 39.49C694.066 39.49 692.826 51.06 692.826 54.67C692.826 67.03 699.316 71.09 707.776 71.09C712.916 71.09 718.896 68.72 720.976 61.5H712.856Z" fill="white"/>
<path d="M3.43677 30.52C3.98677 35.83 6.59677 39.03 10.3468 39.3H38.2568C42.2368 39.3 43.9268 42.32 44.0668 44.52V51.52H5.89677C-2.24323 50.15 -0.823231 38.3 3.37677 30.52H3.43677V30.52ZM4.89677 74.8C5.44677 69.49 6.58677 66.38 10.3368 66.11H22.9668C26.9468 66.11 28.6368 63.09 28.7768 60.9V53.9H5.89677C-2.24323 55.27 -0.283234 67.58 4.84677 74.72L4.89677 74.8ZM8.66677 81.84C13.2968 89.37 22.8468 96.53 28.1068 90.16L47.1868 57.12L41.1268 53.62C39.1568 52.64 35.6968 52.6 33.7068 56.04L19.7568 80.2C17.6468 83.31 13.5668 83.97 8.69677 81.79L8.66677 81.84ZM47.7768 102.58C43.4568 99.45 41.3368 96.91 42.9668 93.52L49.2768 82.58C51.2668 79.13 49.4968 76.16 47.6668 74.94L41.6068 71.44L30.1668 91.25C27.2868 98.99 38.9268 103.44 47.6668 102.57L47.7768 102.58ZM97.9068 72.51C102.117 64.73 103.537 52.88 95.3868 51.51H57.2368V58.51C57.3768 60.71 59.0668 63.72 63.0468 63.72H90.9568C94.7068 64 97.3168 67.2 97.8668 72.51H97.9068ZM96.2068 28.23C95.6568 33.54 94.5168 36.65 90.7668 36.92H78.1368C74.1568 36.92 72.4668 39.94 72.3268 42.14V49.14H95.1968C103.337 47.77 101.377 35.46 96.2468 28.32L96.2068 28.23ZM55.9968 103.05C64.8368 102.81 75.8068 98.11 72.9268 90.37L53.8468 57.33L47.7868 60.83C45.9568 62.05 44.1868 65.02 46.1768 68.47L60.1268 92.64C61.7668 96.03 60.2968 99.89 55.9768 103.01L55.9968 103.05ZM93.5868 79.52C88.7168 81.7 85.4468 82.26 83.3368 79.15L77.0268 68.21C75.0368 64.76 71.5768 64.81 69.6068 65.79L63.5468 69.29L74.9868 89.1C80.2468 95.47 89.9168 87.61 93.5368 79.6L93.5868 79.52ZM45.0168 0C36.1768 0.24 25.2068 4.94 28.0868 12.68L47.1668 45.72L53.2268 42.22C55.0568 41 56.8268 38.03 54.8368 34.58L40.8868 10.41C39.2468 7.02 40.7168 3.16 45.0368 0.0400009L45.0168 0ZM7.60677 23.53C12.4768 21.35 15.7468 20.79 17.8568 23.9L24.1668 34.83C26.1568 38.28 29.6168 38.23 31.5868 37.25L37.6468 33.75L26.2168 13.95C20.9568 7.58 11.2868 15.44 7.66677 23.45L7.60677 23.53ZM92.3968 20.88C87.7668 13.35 78.2168 6.19 72.9568 12.56L53.8768 45.6L59.9368 49.1C61.9068 50.08 65.3668 50.12 67.3568 46.68L81.3068 22.51C83.4168 19.4 87.4968 18.74 92.3668 20.92L92.3968 20.88ZM53.2868 0.130001C57.6068 3.26 59.7268 5.8 58.0968 9.19L51.7868 20.12C49.7968 23.57 51.5668 26.54 53.3968 27.76L59.4568 31.26L70.8968 11.45C73.7768 3.71 62.1368 -0.739999 53.3968 0.130001H53.2868Z" fill="#00539B"/>
<path d="M447.007 130.22H447.977C448.377 130.22 448.907 129.62 448.907 129.25V116.2C448.907 115.83 448.377 115.27 447.977 115.27H447.007V111.01H458.467V115.27H456.697V121.2L461.027 117C461.997 116.1 461.697 115.27 460.597 115.27H460.067V111.01H470.897V115.27H470.467C469.897 115.27 469.397 115.6 468.737 116.34L464.277 120.84L469.547 129.34C469.847 129.74 470.147 130.24 470.647 130.24H471.017V134.34H461.617V130.74L458.317 125.24L456.717 126.57V130.23H458.587V134.33H447.027V130.22H447.007Z" fill="white"/>
<path d="M479.267 127.09C479.497 129.32 480.367 130.29 482.367 130.29C484.167 130.29 485.067 129.66 485.737 128.79H489.567V133.02C487.967 133.92 485.637 134.62 481.607 134.62C474.747 134.62 471.977 131.19 471.977 125.62C471.977 119.99 475.607 116.39 481.507 116.39C487.467 116.39 490.267 119.19 490.267 125.35C490.267 126.18 490.197 126.85 490.197 127.08H479.267V127.09ZM479.297 123.66H483.497C483.327 121.39 482.767 120.56 481.497 120.56C480.197 120.56 479.537 121.4 479.297 123.66Z" fill="white"/>
<path d="M499.396 127.09C499.626 129.32 500.496 130.29 502.496 130.29C504.296 130.29 505.196 129.66 505.866 128.79H509.696V133.02C508.096 133.92 505.766 134.62 501.736 134.62C494.876 134.62 492.106 131.19 492.106 125.62C492.106 119.99 495.736 116.39 501.636 116.39C507.596 116.39 510.396 119.19 510.396 125.35C510.396 126.18 510.326 126.85 510.326 127.08H499.396V127.09ZM499.426 123.66H503.626C503.456 121.39 502.896 120.56 501.626 120.56C500.326 120.56 499.666 121.4 499.426 123.66Z" fill="white"/>
<path d="M512.227 135.89H513.057C513.387 135.89 513.887 135.42 513.887 135.09V121.93C513.887 121.63 513.387 121.1 513.057 121.1H512.127V116.73H519.757C520.387 116.73 520.827 117.2 521.027 118.83C522.327 117.43 523.927 116.4 526.257 116.4C529.617 116.4 532.787 118.43 532.787 125C532.787 131.53 529.187 133.9 525.257 133.9C523.357 133.9 522.087 133.47 521.157 132.73V135.9H522.687V139.73H512.227V135.89ZM521.157 121.86V129.56C521.557 129.76 522.027 129.89 522.687 129.89C524.117 129.89 525.387 129.19 525.387 125.63C525.387 122.37 524.187 121.63 522.687 121.63C522.187 121.63 521.657 121.73 521.157 121.86Z" fill="white"/>
<path d="M540.557 133.66V128.76H544.387C544.917 129.73 546.117 130.32 547.457 130.32C548.627 130.32 549.427 129.99 549.427 129.25C549.427 128.51 548.857 128.32 546.597 128.08C542.767 127.65 540.537 126.28 540.537 122.32C540.537 118.25 543.667 116.39 548.597 116.39C551.827 116.39 553.827 116.76 555.527 117.29V121.89H551.727C551.197 121.12 550.297 120.66 548.927 120.66C547.457 120.66 546.957 120.99 546.957 121.59C546.957 122.19 547.487 122.39 549.587 122.66C553.947 123.19 556.187 124.22 556.187 128.32C556.187 132.42 553.717 134.62 547.857 134.62C544.317 134.62 542.117 134.16 540.557 133.66Z" fill="white"/>
<path d="M557.587 116.73H559.317V112.17H566.607V116.73H569.537V121.1H566.607V128.26C566.607 129.76 567.107 130.23 568.707 130.23H569.607V134.19C568.737 134.42 567.407 134.69 565.737 134.69C561.877 134.69 559.307 133.59 559.307 129.49V121.09H557.577V116.73H557.587Z" fill="white"/>
<path d="M571.416 130.22H572.246C572.576 130.22 573.076 129.72 573.076 129.39V121.93C573.076 121.63 572.576 121.1 572.246 121.1H571.316V116.73H578.946C579.616 116.73 580.076 117.23 580.246 119.13C581.346 117.63 582.546 116.53 584.776 116.53C585.076 116.53 585.346 116.56 585.846 116.73V122.13H585.116C582.846 122.13 581.316 122.4 580.346 122.66V130.22H582.176V134.32H571.416V130.22V130.22Z" fill="white"/>
<path d="M587.876 130.22H588.746C589.076 130.22 589.546 129.72 589.546 129.39V121.93C589.546 121.63 589.086 121.1 588.746 121.1H587.776V116.73H595.806C596.476 116.73 596.836 117.33 596.836 118.43V129.39C596.836 129.72 597.336 130.22 597.666 130.22H598.536V134.32H587.876V130.22ZM589.816 112.93C589.816 111.03 591.216 109.76 593.176 109.76C595.176 109.76 596.576 111.03 596.576 112.93C596.576 114.8 595.176 116.03 593.176 116.03C591.206 116.03 589.816 114.8 589.816 112.93Z" fill="white"/>
<path d="M600.576 121.86C600.446 121.49 599.976 121.1 599.606 121.1H599.106V116.73H609.336V121.1H607.706L609.906 127.33H610.006L611.776 122.6C612.106 121.73 611.946 121.1 610.976 121.1H610.676V116.73H619.376V121.1H619.006C618.536 121.1 617.936 121.6 617.736 122.13L612.376 134.32H605.876L600.576 121.86Z" fill="white"/>
<path d="M621.007 130.22H621.877C622.207 130.22 622.677 129.72 622.677 129.39V121.93C622.677 121.63 622.217 121.1 621.877 121.1H620.907V116.73H628.937C629.607 116.73 629.967 117.33 629.967 118.43V129.39C629.967 129.72 630.467 130.22 630.797 130.22H631.667V134.32H621.007V130.22ZM622.937 112.93C622.937 111.03 624.337 109.76 626.297 109.76C628.297 109.76 629.697 111.03 629.697 112.93C629.697 114.8 628.297 116.03 626.297 116.03C624.337 116.03 622.937 114.8 622.937 112.93Z" fill="white"/>
<path d="M633.437 130.22H634.267C634.597 130.22 635.097 129.69 635.097 129.39V121.93C635.097 121.6 634.597 121.1 634.267 121.1H633.337V116.73H640.967C641.637 116.73 642.097 117.23 642.267 119.16C643.797 117.56 645.827 116.4 648.597 116.4C650.927 116.4 653.127 117.37 653.127 120.6V129.4C653.127 129.73 653.627 130.23 653.957 130.23H654.487V134.33H645.857V123.4C645.857 122.1 645.227 121.83 643.727 121.83C643.427 121.83 642.897 121.86 642.357 121.93V130.23H644.327V134.33H633.427V130.22H633.437Z" fill="white"/>
<path d="M655.427 136.32C655.427 134.32 657.157 133.19 658.627 132.66C657.757 132.19 657.097 131.36 657.097 130.16C657.097 128.59 657.997 127.56 659.267 126.79C657.567 125.86 656.667 124.33 656.667 122.26C656.667 118.56 659.667 116.4 664.767 116.4C665.937 116.4 666.997 116.53 667.967 116.73H674.167V121.1H673.497C673.267 121.1 672.967 121.33 672.827 121.57C672.827 121.8 672.857 122.03 672.857 122.27C672.857 125.97 669.887 127.97 664.757 127.97C663.587 127.97 662.527 127.87 661.587 127.67V127.9C661.587 128.6 661.757 129.03 662.657 129.03H668.717C672.547 129.03 674.217 130.43 674.217 133.66C674.217 137.66 671.317 140.36 664.157 140.36C657.597 140.35 655.427 138.85 655.427 136.32ZM661.357 134.29C661.327 134.49 661.327 134.66 661.327 134.76C661.327 136.16 661.827 136.53 664.197 136.53C666.167 136.53 667.897 136.23 667.897 135.2C667.897 134.57 667.527 134.3 666.467 134.3H661.357V134.29ZM666.457 122.3C666.457 120.57 665.827 120 664.827 120C663.827 120 663.157 120.57 663.157 122.3C663.157 124 663.827 124.66 664.827 124.66C665.827 124.66 666.457 123.99 666.457 122.3Z" fill="white"/>
<path d="M676.087 131.36C676.087 129.53 677.587 128.1 679.487 128.1C681.357 128.1 682.847 129.53 682.847 131.36C682.847 133.16 681.347 134.56 679.487 134.56C677.587 134.56 676.087 133.16 676.087 131.36Z" fill="white"/>
<path d="M368.527 115.12H353.307L337.837 130.33H353.047L368.527 115.12Z" fill="white"/>
<path d="M400.836 115.12H385.626L370.146 130.33H385.357L400.836 115.12Z" fill="white"/>
<path d="M431.527 115.12H416.317L400.837 130.33H416.047L431.527 115.12Z" fill="white"/>
<line x1="781.327" y1="9.17999" x2="781.327" y2="131.18" stroke="#ECEAEA" stroke-width="2"/>
<path d="M902.916 42.27H911.633C911.845 42.2701 912.054 42.3119 912.249 42.393C912.444 42.4741 912.622 42.5929 912.771 42.7427C912.92 42.8924 913.038 43.0701 913.118 43.2656C913.199 43.4611 913.24 43.6705 913.239 43.8819V47.7609H913.407C913.845 46.908 914.403 46.123 915.066 45.4305C915.817 44.6276 916.674 43.9306 917.613 43.3586C918.673 42.7226 919.809 42.2213 920.993 41.8663C922.337 41.4689 923.733 41.2728 925.136 41.2841C928.278 41.2841 930.819 41.7684 932.758 42.737C934.611 43.633 936.176 45.0307 937.274 46.7713C938.402 48.6242 939.153 50.6813 939.485 52.8248C939.881 55.3263 940.073 57.856 940.059 60.3886V81.0328C940.058 81.4603 939.888 81.87 939.586 82.1728C939.285 82.4756 938.876 82.6469 938.448 82.6494H929.273C929.061 82.6495 928.851 82.6076 928.655 82.5263C928.459 82.445 928.281 82.3259 928.131 82.1756C927.829 81.8715 927.659 81.4608 927.657 81.0323V62.8748C927.657 61.7141 927.62 60.5092 927.536 59.2605C927.469 58.0807 927.219 56.9185 926.794 55.8158C926.406 54.7996 925.749 53.908 924.893 53.2365C924.035 52.5674 922.804 52.2416 921.203 52.2416C919.851 52.1837 918.507 52.484 917.308 53.1122C916.346 53.6579 915.556 54.4628 915.029 55.4352C914.488 56.4576 914.138 57.5703 913.997 58.7184C913.828 59.9864 913.745 61.2644 913.75 62.5437V81.0418C913.75 81.2537 913.707 81.4635 913.623 81.6582C913.543 81.8537 913.425 82.0315 913.276 82.1814C913.127 82.3314 912.95 82.4504 912.755 82.5317C912.559 82.613 912.35 82.655 912.139 82.6552H902.916C902.598 82.6555 902.287 82.5611 902.023 82.3839C901.758 82.2067 901.553 81.9548 901.432 81.6603C901.35 81.4652 901.309 81.2555 901.311 81.0439V43.8919C901.307 43.68 901.346 43.4695 901.427 43.2733C901.505 43.0772 901.621 42.8984 901.769 42.747C901.915 42.5957 902.091 42.4753 902.285 42.3927C902.48 42.3102 902.689 42.2669 902.901 42.2653L902.916 42.27Z" fill="white"/>
<path d="M950.187 42.27H958.783C959.211 42.2712 959.621 42.4415 959.925 42.7437C960.225 43.0489 960.395 43.4586 960.399 43.8866V47.7608H960.583C961.024 46.9106 961.582 46.1262 962.241 45.4305C963 44.6257 963.864 43.9271 964.81 43.3538C965.87 42.7176 967.005 42.2163 968.189 41.8615C969.534 41.4659 970.93 41.2697 972.332 41.2793C974.936 41.2311 977.512 41.8292 979.828 43.0201C982.051 44.2311 983.792 46.1678 984.76 48.5073C986.197 45.9058 987.933 44.0496 989.966 42.9385C992 41.8275 994.518 41.2802 997.52 41.2967C999.874 41.2244 1002.21 41.6926 1004.36 42.6653C1006.12 43.5059 1007.64 44.7916 1008.75 46.3959C1009.87 48.0882 1010.66 49.9807 1011.06 51.9699C1011.55 54.215 1011.78 56.5062 1011.76 58.8025V81.0359C1011.76 81.4637 1011.59 81.874 1011.29 82.177C1010.99 82.4801 1010.58 82.6512 1010.15 82.653H1000.95C1000.74 82.6532 1000.53 82.6117 1000.34 82.5309C1000.14 82.4505 999.964 82.3318 999.815 82.1819C999.664 82.0323 999.545 81.8545 999.463 81.6587C999.383 81.4625 999.342 81.2529 999.341 81.0412V59.1431C999.383 57.4504 998.969 55.7776 998.141 54.3003C997.334 52.9443 995.911 52.267 993.872 52.2684C992.633 52.2271 991.401 52.4652 990.266 52.9648C989.341 53.4031 988.542 54.07 987.945 54.9025C987.35 55.783 986.928 56.769 986.703 57.8076C986.454 58.9515 986.33 60.1191 986.334 61.2897V81.0291C986.334 81.4576 986.163 81.8684 985.86 82.1714C985.557 82.4744 985.147 82.645 984.718 82.6457H975.511C975.084 82.6436 974.675 82.4724 974.373 82.1695C974.071 81.8666 973.901 81.4567 973.901 81.0291V61.305C973.901 60.5888 973.874 59.7023 973.822 58.6457C973.769 57.6286 973.574 56.6239 973.243 55.661C972.922 54.7279 972.365 53.8936 971.627 53.2396C970.879 52.5705 969.79 52.2447 968.353 52.2447C967 52.1854 965.656 52.4858 964.457 53.1153C963.496 53.6621 962.706 54.4667 962.178 55.4383C961.637 56.4614 961.286 57.5736 961.141 58.7215C960.972 59.9895 960.889 61.2675 960.893 62.5468V81.0449C960.893 81.4719 960.723 81.8813 960.421 82.1833C960.119 82.4853 959.71 82.6554 959.283 82.6562H950.071C949.644 82.6554 949.234 82.4853 948.932 82.1833C948.631 81.8813 948.461 81.4719 948.46 81.0449V44.0113C948.459 43.5535 948.638 43.1137 948.96 42.7877C949.281 42.4616 949.718 42.2755 950.176 42.27H950.187Z" fill="white"/>
<path d="M1057.32 82.661H1048.64C1048.43 82.6612 1048.22 82.6195 1048.02 82.5383C1047.82 82.457 1047.65 82.3379 1047.5 82.1876C1047.35 82.0374 1047.23 81.8591 1047.15 81.6629C1047.07 81.4667 1047.03 81.2565 1047.03 81.0444V77.1717H1046.86C1046.38 78.0052 1045.81 78.7854 1045.16 79.4995C1044.42 80.3113 1043.57 81.0089 1042.63 81.5693C1041.57 82.2087 1040.43 82.7102 1039.25 83.0616C1037.9 83.4609 1036.51 83.6561 1035.1 83.6406C1031.96 83.6406 1029.41 83.1563 1027.44 82.1878C1025.57 81.3028 1023.99 79.9057 1022.88 78.1587C1021.76 76.3047 1021.02 74.2402 1020.72 72.092C1020.34 69.589 1020.15 67.0604 1020.15 64.5282V43.8845C1020.15 43.6727 1020.19 43.4629 1020.27 43.2665C1020.39 42.9711 1020.59 42.7177 1020.86 42.5389C1021.12 42.3601 1021.43 42.2639 1021.75 42.2627H1030.97C1031.4 42.2652 1031.81 42.436 1032.11 42.7379C1032.41 43.0398 1032.58 43.4484 1032.58 43.8745V62.0315C1032.58 63.1924 1032.62 64.3979 1032.7 65.6479C1032.77 66.8286 1033.02 67.9917 1033.45 69.0952C1033.84 70.1164 1034.51 71.0089 1035.38 71.6746C1036.23 72.3385 1037.46 72.6703 1039.07 72.67C1040.42 72.7293 1041.76 72.4288 1042.96 71.7993C1043.92 71.2509 1044.71 70.4434 1045.24 69.4685C1045.78 68.4483 1046.13 67.3373 1046.27 66.1906C1046.44 64.9233 1046.53 63.6459 1046.52 62.3674V43.8908C1046.52 43.4644 1046.69 43.0552 1046.99 42.7522C1047.14 42.6022 1047.31 42.4828 1047.51 42.4006C1047.7 42.3185 1047.91 42.2754 1048.12 42.2737H1057.32C1057.75 42.2749 1058.16 42.4451 1058.46 42.7471C1058.76 43.0492 1058.93 43.4585 1058.93 43.8856V81.0344C1058.94 81.4613 1058.77 81.8721 1058.47 82.1769C1058.17 82.4817 1057.77 82.6557 1057.34 82.661H1057.32Z" fill="white"/>
<path d="M1109.38 82.6609H1101.17C1100.74 82.6594 1100.34 82.4882 1100.03 82.1851C1099.73 81.8819 1099.57 81.4716 1099.57 81.0443V77.3406H1099.39C1098.83 78.1431 1098.19 78.8813 1097.47 79.542C1096.61 80.3308 1095.67 81.0139 1094.65 81.5765C1093.52 82.2043 1092.33 82.7049 1091.09 83.0689C1089.78 83.4559 1088.43 83.6509 1087.06 83.6479C1084.28 83.6859 1081.52 83.1639 1078.94 82.1129C1076.57 81.133 1074.43 79.6619 1072.67 77.7965C1070.9 75.8866 1069.53 73.6399 1068.65 71.1902C1067.69 68.4982 1067.21 65.6565 1067.25 62.7979C1067.23 60.0452 1067.67 57.3087 1068.53 54.6945C1069.34 52.2132 1070.57 49.8924 1072.18 47.8371C1073.74 45.8585 1075.7 44.2312 1077.93 43.0617C1080.32 41.8458 1082.97 41.2391 1085.65 41.2956C1088.12 41.2712 1090.57 41.6786 1092.9 42.4995C1095.11 43.2814 1097.03 44.7149 1098.4 46.6106H1098.58V21.4441C1098.58 21.0169 1098.74 20.6066 1099.04 20.3034C1099.35 20.0003 1099.76 19.8291 1100.18 19.8276H1109.38C1109.59 19.8274 1109.8 19.8692 1110 19.9505C1110.19 20.0317 1110.37 20.1509 1110.52 20.3011C1110.67 20.4513 1110.79 20.6296 1110.87 20.8258C1110.95 21.0219 1110.99 21.2321 1110.99 21.4441V81.0443C1110.99 81.2564 1110.95 81.4666 1110.87 81.6628C1110.79 81.859 1110.67 82.0373 1110.52 82.1875C1110.37 82.3378 1110.19 82.4569 1110 82.5382C1109.8 82.6194 1109.59 82.6611 1109.38 82.6609V82.6609ZM1099.56 62.4694C1099.56 59.4247 1098.68 56.9589 1096.94 55.0719C1095.2 53.185 1092.75 52.244 1089.61 52.2489C1086.46 52.2489 1084.02 53.1899 1082.28 55.0719C1080.53 56.9536 1079.66 59.4194 1079.67 62.4694C1079.67 65.5169 1080.54 67.9816 1082.28 69.8637C1084.02 71.7457 1086.46 72.6867 1089.61 72.6867C1092.76 72.6867 1095.2 71.7457 1096.94 69.8637C1098.68 67.9816 1099.55 65.5151 1099.56 62.4641V62.4694Z" fill="white"/>
<path d="M1120.89 19.835H1130.1C1130.52 19.8399 1130.93 20.0115 1131.23 20.3126C1131.52 20.6137 1131.69 21.0202 1131.69 21.4442V81.0444C1131.69 81.4716 1131.53 81.8819 1131.23 82.1851C1130.92 82.4882 1130.51 82.6594 1130.09 82.6609H1120.89C1120.46 82.6591 1120.05 82.488 1119.75 82.1851C1119.45 81.8822 1119.28 81.472 1119.28 81.0444V21.4442C1119.28 21.0178 1119.45 20.6098 1119.75 20.3066C1120.05 20.0058 1120.46 19.8363 1120.89 19.835Z" fill="white"/>
<path d="M892.878 57.3655C892.914 60.8262 892.352 64.2672 891.214 67.536C890.162 70.5448 888.478 73.294 886.277 75.5993C883.967 77.9481 881.174 79.766 878.091 80.927C874.485 82.2774 870.656 82.9341 866.805 82.8625C862.929 82.9363 859.074 82.2797 855.441 80.927C852.358 79.7686 849.566 77.9502 847.26 75.5993C845.055 73.2929 843.37 70.5407 842.317 67.5281C841.18 64.2602 840.617 60.8201 840.654 57.3602V48.2593C840.638 47.3499 840.801 46.4462 841.133 45.5994C841.551 44.5409 842.227 43.6037 843.099 42.8731C843.972 42.1425 845.013 41.6418 846.129 41.4166C847.244 41.1913 848.398 41.2487 849.486 41.5835C850.573 41.9182 851.56 42.5198 852.356 43.3333C852.991 43.9847 853.49 44.7555 853.825 45.6009C854.16 46.4464 854.325 47.35 854.309 48.2593L854.272 56.8333C854.258 58.6589 854.57 60.4723 855.193 62.1883C855.77 63.7579 856.646 65.2006 857.772 66.4363C858.886 67.6378 860.238 68.5942 861.742 69.2447C863.329 69.9259 865.041 70.2689 866.769 70.2517C868.485 70.274 870.186 69.9307 871.759 69.2447C873.25 68.5912 874.589 67.6348 875.691 66.4363C876.822 65.2039 877.699 63.7603 878.27 62.1883C878.897 60.4734 879.207 58.659 879.186 56.8333V48.2593C879.156 47.3594 879.303 46.4622 879.621 45.6196C879.938 44.7769 880.419 44.0054 881.036 43.3496C881.653 42.6938 882.394 42.1665 883.216 41.7982C884.038 41.43 884.924 41.228 885.824 41.2039C886.725 41.1798 887.621 41.334 888.461 41.6578C889.301 41.9816 890.069 42.4684 890.72 43.0903C891.372 43.7122 891.893 44.4568 892.255 45.2813C892.618 46.1057 892.813 46.9937 892.83 47.894V48.2593L892.878 57.3655Z" fill="white"/>
<path d="M847.923 35.1168C849.63 35.1222 851.3 34.6211 852.722 33.6768C854.143 32.7325 855.253 31.3875 855.91 29.8122C856.567 28.2369 856.741 26.5021 856.412 24.8275C856.082 23.1529 855.263 21.6138 854.058 20.4051C852.853 19.1964 851.316 18.3724 849.642 18.0376C847.969 17.7027 846.234 17.8721 844.656 18.5241C843.079 19.1761 841.731 20.2816 840.782 21.7004C839.833 23.1192 839.327 24.7877 839.327 26.4944C839.324 28.7776 840.228 30.9686 841.84 32.5855C843.452 34.2024 845.64 35.1129 847.923 35.1168V35.1168Z" fill="white"/>
<path d="M896.441 26.2839V34.084C896.442 34.2292 896.412 34.3728 896.354 34.5056C896.295 34.6384 896.209 34.7572 896.101 34.8542C895.993 34.9513 895.866 35.0243 895.728 35.0686C895.589 35.1129 895.443 35.1273 895.299 35.111C895.107 35.0886 894.924 35.0129 894.773 34.8926L887.598 29.1896C887.179 28.8565 886.659 28.6752 886.124 28.6752C885.589 28.6752 885.069 28.8565 884.65 29.1896L877.475 34.8931C877.362 34.983 877.231 35.048 877.091 35.0838C876.951 35.1196 876.804 35.1255 876.662 35.101C876.519 35.0765 876.384 35.0222 876.263 34.9417C876.143 34.8611 876.041 34.7561 875.965 34.6336C875.863 34.4684 875.808 34.2785 875.807 34.0845V26.2839C875.807 26.0216 875.907 25.7691 876.086 25.5774L884.387 16.6982C884.6 16.4685 884.856 16.283 885.14 16.1523C885.425 16.0216 885.732 15.9482 886.045 15.9364C886.358 15.9247 886.67 15.9747 886.964 16.0836C887.257 16.1925 887.526 16.3583 887.756 16.5713L887.766 16.5861L887.877 16.6982L896.178 25.5774C896.352 25.771 896.446 26.0235 896.441 26.2839V26.2839Z" fill="white"/>
<path d="M866.121 114.948H841.981C841.695 114.948 841.412 114.892 841.148 114.783C840.885 114.673 840.645 114.513 840.444 114.31C840.036 113.901 839.807 113.347 839.807 112.769C839.807 112.192 840.036 111.638 840.444 111.229C840.645 111.026 840.885 110.865 841.148 110.756C841.412 110.646 841.695 110.59 841.981 110.591H866.121C866.552 110.592 866.972 110.72 867.33 110.959C867.688 111.198 867.967 111.538 868.132 111.935C868.35 112.47 868.35 113.069 868.132 113.603C867.967 114.001 867.688 114.341 867.331 114.58C866.973 114.82 866.552 114.948 866.121 114.948V114.948Z" fill="white"/>
<path d="M1140.83 114.948H1116.69C1116.11 114.948 1115.55 114.718 1115.15 114.31C1114.74 113.901 1114.51 113.347 1114.51 112.769C1114.51 112.191 1114.74 111.637 1115.15 111.229C1115.55 110.82 1116.11 110.591 1116.69 110.591H1140.83C1141.11 110.59 1141.39 110.646 1141.66 110.756C1141.92 110.865 1142.16 111.026 1142.36 111.229C1142.77 111.638 1143 112.192 1143 112.769C1143 113.347 1142.77 113.901 1142.36 114.31C1142.16 114.513 1141.92 114.673 1141.66 114.783C1141.39 114.892 1141.11 114.948 1140.83 114.948V114.948Z" fill="white"/>
<path d="M877.132 115.97C877.452 116.462 877.905 116.854 878.438 117.099C878.95 117.339 879.509 117.464 880.075 117.468C880.401 117.466 880.726 117.415 881.038 117.318C881.36 117.228 881.665 117.084 881.938 116.891C882.205 116.695 882.429 116.447 882.596 116.162C882.767 115.859 882.852 115.515 882.844 115.167C882.86 114.937 882.822 114.706 882.733 114.494C882.644 114.282 882.509 114.092 882.338 113.938C881.956 113.636 881.528 113.397 881.07 113.232C880.575 113.043 880.027 112.86 879.422 112.682C878.843 112.51 878.29 112.259 877.78 111.936C877.197 111.585 876.722 111.08 876.409 110.476C876.096 109.872 875.956 109.193 876.006 108.514C876.021 107.549 876.412 106.627 877.095 105.945C877.516 105.538 878.011 105.215 878.553 104.993C879.236 104.72 879.967 104.59 880.701 104.61C881.438 104.606 882.17 104.713 882.875 104.925C883.6 105.156 884.237 105.602 884.702 106.204L883.181 107.602C882.934 107.223 882.59 106.918 882.186 106.716C881.731 106.487 881.226 106.373 880.717 106.383C880.273 106.37 879.83 106.44 879.411 106.589C879.1 106.705 878.816 106.886 878.58 107.119C878.384 107.318 878.233 107.556 878.138 107.819C878.059 108.038 878.016 108.269 878.011 108.503C877.992 108.751 878.026 109.001 878.111 109.234C878.197 109.468 878.331 109.681 878.506 109.858C878.877 110.191 879.308 110.452 879.775 110.627C880.311 110.839 880.86 111.02 881.417 111.169C881.992 111.319 882.545 111.54 883.065 111.828C883.566 112.109 883.997 112.498 884.328 112.967C884.7 113.556 884.879 114.247 884.839 114.942C884.849 115.566 884.718 116.185 884.454 116.75C884.214 117.271 883.864 117.733 883.428 118.106C882.978 118.484 882.46 118.771 881.901 118.952C881.293 119.15 880.657 119.25 880.017 119.248C879.152 119.25 878.295 119.09 877.49 118.774C876.728 118.486 876.067 117.98 875.59 117.319L877.132 115.97Z" fill="white"/>
<path d="M887.171 104.022H888.934V113.613L892.935 109.584H895.377L891.05 113.812L895.762 118.883H893.256L888.934 114.046V118.877H887.171V104.022Z" fill="white"/>
<path d="M897.067 106.222C897.066 105.92 897.168 105.625 897.357 105.389C897.499 105.212 897.684 105.076 897.895 104.993C898.105 104.91 898.333 104.883 898.557 104.915C898.781 104.947 898.993 105.036 899.172 105.175C899.351 105.313 899.491 105.496 899.578 105.704C899.694 105.985 899.71 106.295 899.626 106.586C899.537 106.877 899.351 107.127 899.099 107.297C898.849 107.466 898.547 107.542 898.247 107.513C897.946 107.483 897.665 107.35 897.452 107.136C897.33 107.017 897.233 106.875 897.167 106.718C897.101 106.561 897.067 106.393 897.067 106.222V106.222ZM897.483 109.563H899.247V118.88H897.483V109.563Z" fill="white"/>
<path d="M902.185 104.022H903.948V118.877H902.185V104.022Z" fill="white"/>
<path d="M906.885 104.022H908.648V118.877H906.885V104.022Z" fill="white"/>
<path d="M916.393 111.913C916.178 111.648 915.916 111.425 915.619 111.257C915.273 111.071 914.885 110.979 914.493 110.991C914.112 110.981 913.736 111.073 913.403 111.257C913.261 111.329 913.142 111.441 913.061 111.578C912.98 111.716 912.939 111.873 912.945 112.033C912.94 112.156 912.96 112.279 913.003 112.394C913.049 112.509 913.119 112.613 913.208 112.7C913.389 112.875 913.602 113.015 913.835 113.112C914.082 113.224 914.342 113.308 914.608 113.361L915.314 113.498C915.677 113.586 916.034 113.698 916.382 113.834C916.697 113.953 916.989 114.126 917.246 114.344C917.488 114.555 917.682 114.816 917.814 115.11C917.969 115.503 918.037 115.925 918.016 116.347C917.994 116.769 917.882 117.182 917.688 117.557C917.472 117.923 917.177 118.235 916.825 118.47C916.457 118.712 916.048 118.886 915.619 118.982C915.172 119.087 914.715 119.14 914.256 119.14C913.564 119.155 912.875 119.035 912.229 118.787C911.597 118.511 911.057 118.06 910.671 117.488L912.003 116.389C912.292 116.68 912.614 116.937 912.961 117.155C913.352 117.388 913.801 117.504 914.256 117.491C914.483 117.477 914.709 117.442 914.929 117.386C915.141 117.344 915.345 117.272 915.535 117.169C915.704 117.077 915.851 116.95 915.966 116.796C916.077 116.645 916.136 116.463 916.135 116.276C916.137 116.157 916.117 116.039 916.077 115.927C916.031 115.817 915.967 115.716 915.888 115.627C915.72 115.455 915.52 115.318 915.298 115.224C915.063 115.121 914.82 115.038 914.572 114.975C914.324 114.916 914.092 114.866 913.898 114.829C913.533 114.742 913.173 114.637 912.819 114.513C912.495 114.404 912.191 114.244 911.918 114.039C911.655 113.842 911.44 113.587 911.292 113.293C911.122 112.945 911.041 112.561 911.055 112.174C911.045 111.732 911.149 111.296 911.355 110.905C911.554 110.551 911.829 110.245 912.161 110.01C912.506 109.77 912.891 109.591 913.298 109.48C913.716 109.364 914.148 109.304 914.582 109.304C915.204 109.305 915.82 109.43 916.393 109.673C916.966 109.905 917.446 110.32 917.761 110.852L916.393 111.913Z" fill="white"/>
<path d="M924.33 114.948H919.508V113.297H924.33V114.948Z" fill="white"/>
<path d="M931.325 111.095H928.798V115.324C928.798 115.587 928.798 115.846 928.814 116.1C928.823 116.336 928.873 116.569 928.961 116.789C929.041 116.99 929.178 117.163 929.356 117.286C929.589 117.426 929.859 117.491 930.13 117.473C930.347 117.47 930.563 117.45 930.777 117.413C930.99 117.376 931.194 117.303 931.382 117.197V118.808C931.13 118.94 930.855 119.025 930.572 119.057C930.319 119.096 930.064 119.119 929.809 119.127C929.267 119.154 928.727 119.057 928.229 118.843C927.888 118.681 927.603 118.421 927.408 118.097C927.23 117.787 927.123 117.441 927.092 117.085C927.061 116.711 927.045 116.338 927.045 115.956V111.095H925.008V109.563H927.045V106.939H928.808V109.553H931.335L931.325 111.095Z" fill="white"/>
<path d="M933.147 114.222C933.142 113.566 933.273 112.916 933.531 112.314C933.913 111.422 934.549 110.663 935.358 110.129C936.168 109.595 937.117 109.31 938.087 109.31C939.057 109.31 940.006 109.595 940.815 110.129C941.625 110.663 942.261 111.422 942.643 112.314C942.902 112.916 943.031 113.566 943.022 114.222C943.027 114.868 942.904 115.508 942.659 116.106C942.414 116.704 942.052 117.248 941.595 117.704C940.658 118.621 939.398 119.135 938.087 119.135C936.775 119.135 935.516 118.621 934.578 117.704C934.119 117.249 933.756 116.706 933.51 116.108C933.264 115.51 933.141 114.868 933.147 114.222ZM935.031 114.222C935.027 114.666 935.098 115.107 935.242 115.528C935.375 115.906 935.582 116.253 935.852 116.55C936.122 116.839 936.45 117.067 936.816 117.219C937.632 117.545 938.542 117.545 939.358 117.219C939.722 117.064 940.05 116.837 940.321 116.55C940.59 116.253 940.796 115.906 940.927 115.528C941.216 114.68 941.216 113.761 940.927 112.913C940.796 112.536 940.59 112.189 940.321 111.894C940.051 111.605 939.723 111.377 939.358 111.225C938.542 110.896 937.631 110.896 936.816 111.225C936.45 111.376 936.121 111.604 935.852 111.894C935.582 112.189 935.375 112.536 935.242 112.913C935.096 113.334 935.025 113.777 935.031 114.222Z" fill="white"/>
<path d="M949.403 114.948H944.597V113.297H949.403V114.948Z" fill="white"/>
<path d="M956.213 104.964H958.098V114.913C958.123 115.653 957.983 116.389 957.687 117.067C957.465 117.551 957.139 117.98 956.732 118.324C956.325 118.668 955.848 118.918 955.334 119.057C954.912 119.175 954.477 119.238 954.039 119.243C953.153 119.276 952.281 119.014 951.56 118.498C950.846 117.934 950.384 117.11 950.275 116.207L952.118 115.794C952.191 116.268 952.419 116.705 952.765 117.037C953.114 117.349 953.572 117.511 954.039 117.49C954.433 117.509 954.825 117.413 955.166 117.214C955.443 117.035 955.669 116.789 955.824 116.498C955.987 116.182 956.092 115.839 956.134 115.486C956.187 115.102 956.213 114.715 956.213 114.327V104.964Z" fill="white"/>
<path d="M960.43 114.222C960.423 113.566 960.552 112.917 960.809 112.314C961.19 111.421 961.825 110.661 962.635 110.126C963.445 109.591 964.394 109.306 965.365 109.306C966.335 109.306 967.285 109.591 968.094 110.126C968.904 110.661 969.54 111.421 969.921 112.314C970.179 112.916 970.31 113.566 970.305 114.222C970.311 114.868 970.187 115.51 969.942 116.108C969.696 116.706 969.332 117.249 968.873 117.704C967.937 118.622 966.679 119.137 965.368 119.137C964.056 119.137 962.798 118.622 961.862 117.704C961.402 117.249 961.039 116.706 960.793 116.108C960.547 115.51 960.424 114.868 960.43 114.222V114.222ZM962.309 114.222C962.304 114.666 962.377 115.108 962.525 115.528C962.655 115.907 962.863 116.255 963.136 116.55C963.404 116.838 963.73 117.066 964.094 117.219C964.912 117.545 965.823 117.545 966.641 117.219C967.004 117.066 967.331 116.838 967.599 116.55C967.871 116.255 968.079 115.907 968.21 115.528C968.494 114.679 968.494 113.762 968.21 112.914C968.08 112.535 967.872 112.188 967.599 111.894C967.331 111.605 967.005 111.377 966.641 111.225C965.824 110.896 964.911 110.896 964.094 111.225C963.729 111.378 963.401 111.606 963.13 111.894C962.862 112.189 962.656 112.536 962.525 112.914C962.374 113.333 962.297 113.776 962.299 114.222H962.309Z" fill="white"/>
<path d="M972.521 104.022H974.285V110.899H974.322C974.657 110.398 975.126 110 975.675 109.75C976.263 109.469 976.907 109.326 977.559 109.329C978.227 109.318 978.89 109.446 979.507 109.702C980.07 109.939 980.577 110.29 980.996 110.734C981.412 111.184 981.734 111.711 981.944 112.287C982.386 113.536 982.386 114.9 981.944 116.149C981.731 116.724 981.41 117.251 980.996 117.704C980.578 118.151 980.07 118.506 979.507 118.746C978.89 119.002 978.227 119.129 977.559 119.119C976.924 119.116 976.297 118.975 975.722 118.706C975.158 118.454 974.673 118.052 974.322 117.544H974.285V118.877H972.521V104.022ZM977.343 117.465C977.78 117.47 978.214 117.385 978.617 117.216C978.98 117.063 979.306 116.835 979.575 116.547C979.845 116.251 980.053 115.903 980.186 115.525C980.47 114.677 980.47 113.759 980.186 112.911C980.053 112.533 979.845 112.186 979.575 111.891C979.307 111.603 978.98 111.375 978.617 111.222C977.798 110.894 976.883 110.894 976.064 111.222C975.701 111.375 975.374 111.603 975.106 111.891C974.838 112.187 974.632 112.534 974.501 112.911C974.211 113.758 974.211 114.678 974.501 115.525C974.629 115.904 974.836 116.252 975.106 116.547C975.374 116.836 975.701 117.064 976.064 117.216C976.469 117.385 976.904 117.47 977.343 117.465Z" fill="white"/>
<path d="M989.434 111.914C989.219 111.648 988.957 111.425 988.66 111.257C988.314 111.071 987.926 110.98 987.534 110.991C987.153 110.981 986.777 111.073 986.444 111.257C986.301 111.329 986.182 111.44 986.102 111.578C986.019 111.715 985.979 111.873 985.986 112.033C985.981 112.156 986.001 112.279 986.044 112.394C986.09 112.509 986.16 112.613 986.249 112.7C986.431 112.875 986.643 113.015 986.876 113.113C987.123 113.224 987.383 113.308 987.649 113.361L988.355 113.498C988.718 113.586 989.075 113.698 989.423 113.834C989.738 113.953 990.03 114.126 990.287 114.344C990.529 114.555 990.723 114.816 990.855 115.11C990.999 115.459 991.069 115.834 991.06 116.211C991.071 116.682 990.955 117.147 990.724 117.557C990.512 117.924 990.218 118.236 989.866 118.47C989.498 118.712 989.089 118.886 988.66 118.982C988.213 119.087 987.756 119.14 987.297 119.14C986.605 119.156 985.916 119.036 985.27 118.787C984.638 118.511 984.097 118.061 983.712 117.488L985.044 116.389C985.333 116.68 985.655 116.937 986.002 117.155C986.392 117.388 986.842 117.504 987.297 117.488C987.523 117.489 987.749 117.466 987.97 117.422C988.184 117.38 988.39 117.308 988.581 117.205C988.75 117.113 988.897 116.986 989.013 116.832C989.124 116.682 989.181 116.499 989.176 116.312C989.18 116.193 989.161 116.074 989.118 115.962C989.076 115.851 989.012 115.749 988.929 115.663C988.761 115.49 988.561 115.353 988.339 115.26C988.105 115.155 987.862 115.072 987.613 115.011C987.365 114.952 987.133 114.902 986.939 114.864C986.574 114.778 986.214 114.672 985.86 114.549C985.537 114.438 985.233 114.278 984.959 114.075C984.696 113.878 984.481 113.622 984.333 113.328C984.16 112.981 984.075 112.597 984.086 112.209C984.076 111.768 984.179 111.331 984.386 110.941C984.585 110.586 984.86 110.281 985.191 110.046C985.537 109.805 985.921 109.626 986.328 109.516C987.347 109.23 988.433 109.292 989.413 109.693C989.987 109.925 990.469 110.339 990.787 110.871L989.434 111.914Z" fill="white"/>
<path d="M998.956 104.964H1001.76L1006.17 115.5H1006.25L1010.62 104.964H1013.42V118.877H1011.54V107.436H1011.5L1006.82 118.878H1005.56L1000.88 107.436H1000.84V118.877H998.956V104.964Z" fill="white"/>
<path d="M1016.44 110.705C1016.94 110.245 1017.53 109.894 1018.18 109.672C1018.8 109.447 1019.47 109.33 1020.13 109.327C1020.73 109.313 1021.32 109.397 1021.89 109.576C1022.34 109.721 1022.75 109.956 1023.1 110.265C1023.4 110.539 1023.64 110.879 1023.79 111.26C1023.94 111.631 1024.02 112.028 1024.01 112.429V117.184C1024.01 117.513 1024.01 117.816 1024.03 118.087C1024.06 118.358 1024.07 118.624 1024.09 118.877H1022.53C1022.49 118.404 1022.47 117.932 1022.47 117.462H1022.43C1022.09 118.011 1021.61 118.453 1021.03 118.738C1020.45 118.997 1019.82 119.125 1019.18 119.11C1018.76 119.113 1018.34 119.054 1017.93 118.934C1017.56 118.825 1017.21 118.645 1016.91 118.404C1016.61 118.168 1016.38 117.869 1016.21 117.528C1015.89 116.871 1015.84 116.112 1016.07 115.416C1016.3 114.721 1016.8 114.146 1017.45 113.815C1017.96 113.544 1018.51 113.357 1019.08 113.263C1019.73 113.15 1020.4 113.094 1021.06 113.096H1022.36V112.703C1022.36 112.461 1022.31 112.222 1022.22 111.997C1022.13 111.758 1021.99 111.54 1021.81 111.357C1021.61 111.16 1021.38 111.006 1021.12 110.905C1020.81 110.788 1020.48 110.732 1020.14 110.738C1019.84 110.733 1019.54 110.766 1019.25 110.835C1019.01 110.897 1018.78 110.98 1018.55 111.084C1018.35 111.178 1018.16 111.294 1017.99 111.427L1017.49 111.8L1016.44 110.705ZM1021.42 114.401C1020.99 114.4 1020.56 114.424 1020.13 114.471C1019.73 114.508 1019.32 114.596 1018.94 114.734C1018.61 114.849 1018.31 115.037 1018.05 115.283C1017.94 115.403 1017.85 115.545 1017.79 115.701C1017.73 115.857 1017.71 116.023 1017.71 116.189C1017.69 116.412 1017.73 116.637 1017.83 116.84C1017.92 117.043 1018.07 117.217 1018.25 117.348C1018.69 117.606 1019.2 117.728 1019.71 117.701C1020.14 117.712 1020.56 117.627 1020.95 117.452C1021.27 117.303 1021.55 117.085 1021.78 116.813C1021.98 116.553 1022.14 116.256 1022.23 115.938C1022.31 115.627 1022.36 115.307 1022.37 114.985V114.403L1021.42 114.401Z" fill="white"/>
<path d="M1026.57 109.563H1028.34V110.998H1028.38C1028.49 110.747 1028.65 110.517 1028.85 110.319C1029.04 110.117 1029.26 109.941 1029.5 109.797C1029.75 109.65 1030.02 109.534 1030.3 109.454C1030.58 109.369 1030.87 109.327 1031.16 109.327C1031.42 109.324 1031.69 109.364 1031.94 109.443L1031.87 111.352C1031.72 111.312 1031.58 111.28 1031.44 111.252C1031.29 111.227 1031.15 111.215 1031 111.215C1030.64 111.191 1030.28 111.243 1029.93 111.368C1029.59 111.493 1029.28 111.688 1029.02 111.941C1028.51 112.578 1028.26 113.389 1028.34 114.204V118.877H1026.57L1026.57 109.563Z" fill="white"/>
<path d="M1033.82 104.022H1035.59V113.613L1039.59 109.584H1042.03L1037.71 113.812L1042.42 118.879H1039.9L1035.59 114.043V118.877H1033.82V104.022Z" fill="white"/>
<path d="M1045.33 114.871C1045.32 115.257 1045.42 115.639 1045.6 115.98C1045.77 116.309 1046 116.6 1046.29 116.836C1046.58 117.077 1046.92 117.263 1047.28 117.386C1047.66 117.517 1048.05 117.584 1048.45 117.582C1048.96 117.594 1049.45 117.461 1049.88 117.199C1050.31 116.927 1050.68 116.584 1051 116.187L1052.33 117.209C1051.85 117.835 1051.23 118.335 1050.51 118.666C1049.79 118.998 1049.01 119.152 1048.22 119.114C1047.54 119.124 1046.86 118.997 1046.23 118.741C1045.66 118.509 1045.15 118.157 1044.72 117.709C1044.3 117.261 1043.98 116.733 1043.77 116.157C1043.55 115.537 1043.43 114.882 1043.44 114.222C1043.43 113.559 1043.56 112.902 1043.8 112.287C1044.03 111.709 1044.36 111.182 1044.79 110.732C1045.22 110.288 1045.74 109.938 1046.31 109.702C1046.92 109.449 1047.57 109.322 1048.23 109.329C1048.95 109.306 1049.66 109.454 1050.32 109.76C1050.86 110.029 1051.34 110.415 1051.72 110.891C1052.09 111.357 1052.36 111.891 1052.51 112.463C1052.68 113.042 1052.76 113.64 1052.76 114.242V114.873L1045.33 114.871ZM1050.9 113.456C1050.89 113.088 1050.82 112.723 1050.71 112.374C1050.6 112.058 1050.44 111.767 1050.21 111.521C1049.98 111.27 1049.7 111.075 1049.38 110.948C1049.01 110.805 1048.61 110.735 1048.22 110.742C1047.81 110.738 1047.4 110.823 1047.03 110.991C1046.36 111.288 1045.83 111.83 1045.54 112.506C1045.41 112.806 1045.34 113.13 1045.34 113.458L1050.9 113.456Z" fill="white"/>
<path d="M1059.87 111.095H1057.34V115.324C1057.34 115.587 1057.34 115.846 1057.36 116.1C1057.37 116.336 1057.42 116.569 1057.51 116.789C1057.59 116.99 1057.72 117.163 1057.9 117.286C1058.14 117.426 1058.41 117.491 1058.68 117.473C1058.89 117.47 1059.11 117.45 1059.32 117.413C1059.54 117.376 1059.74 117.303 1059.93 117.197V118.808C1059.68 118.94 1059.4 119.024 1059.12 119.057C1058.86 119.096 1058.6 119.118 1058.34 119.124C1057.8 119.151 1057.26 119.054 1056.76 118.841C1056.42 118.676 1056.14 118.417 1055.94 118.094C1055.76 117.785 1055.65 117.439 1055.63 117.082C1055.59 116.709 1055.58 116.336 1055.58 115.953V111.095H1053.54V109.563H1055.58V106.939H1057.34V109.553H1059.87V111.095Z" fill="white"/>
<path d="M1062.14 109.563H1063.91V110.899H1063.95C1064.3 110.39 1064.79 109.989 1065.35 109.741C1065.92 109.471 1066.55 109.329 1067.18 109.328C1067.85 109.318 1068.51 109.445 1069.13 109.701C1069.7 109.939 1070.2 110.294 1070.62 110.743C1071.04 111.196 1071.36 111.727 1071.57 112.305C1072.02 113.55 1072.02 114.913 1071.57 116.158C1071.36 116.734 1071.04 117.262 1070.62 117.71C1070.2 118.154 1069.69 118.505 1069.13 118.742C1068.51 118.998 1067.85 119.125 1067.18 119.115C1066.53 119.118 1065.89 118.974 1065.3 118.694C1064.75 118.445 1064.28 118.047 1063.95 117.545H1063.91V124.425H1062.14V109.563ZM1066.96 110.978C1066.53 110.973 1066.1 111.058 1065.69 111.227C1065.33 111.378 1065 111.606 1064.73 111.896C1064.46 112.19 1064.25 112.538 1064.13 112.916C1063.84 113.763 1063.84 114.683 1064.13 115.53C1064.26 115.908 1064.46 116.256 1064.73 116.552C1065 116.842 1065.33 117.07 1065.69 117.222C1066.51 117.547 1067.42 117.547 1068.24 117.222C1068.6 117.067 1068.93 116.839 1069.2 116.552C1069.47 116.256 1069.67 115.908 1069.8 115.53C1070.09 114.683 1070.09 113.763 1069.8 112.916C1069.67 112.539 1069.47 112.192 1069.2 111.896C1068.93 111.608 1068.6 111.38 1068.24 111.227C1067.84 111.057 1067.4 110.972 1066.96 110.978V110.978Z" fill="white"/>
<path d="M1074.26 104.022H1076.02V118.877H1074.26V104.022Z" fill="white"/>
<path d="M1078.86 110.705C1079.36 110.244 1079.95 109.893 1080.6 109.672C1081.22 109.446 1081.89 109.329 1082.55 109.327C1083.15 109.312 1083.74 109.396 1084.31 109.576C1084.75 109.718 1085.16 109.953 1085.51 110.265C1085.82 110.54 1086.06 110.88 1086.21 111.26C1086.36 111.631 1086.44 112.028 1086.44 112.429V117.184C1086.44 117.513 1086.44 117.816 1086.45 118.087C1086.47 118.358 1086.49 118.624 1086.51 118.876H1084.94C1084.91 118.403 1084.89 117.929 1084.89 117.461H1084.83C1084.5 118.012 1084.01 118.455 1083.43 118.737C1082.85 118.997 1082.21 119.125 1081.57 119.11C1081.15 119.113 1080.74 119.054 1080.33 118.934C1079.96 118.825 1079.61 118.645 1079.31 118.404C1079.01 118.168 1078.77 117.869 1078.61 117.528C1078.29 116.871 1078.24 116.111 1078.47 115.416C1078.7 114.721 1079.2 114.145 1079.85 113.815C1080.36 113.543 1080.91 113.357 1081.48 113.262C1082.14 113.149 1082.8 113.093 1083.46 113.096H1084.76V112.703C1084.75 112.461 1084.71 112.222 1084.62 111.996C1084.53 111.757 1084.39 111.54 1084.21 111.357C1084.01 111.159 1083.78 111.005 1083.52 110.905C1083.21 110.788 1082.88 110.731 1082.54 110.738C1082.24 110.733 1081.94 110.766 1081.65 110.835C1081.41 110.895 1081.18 110.979 1080.95 111.084C1080.75 111.177 1080.56 111.292 1080.39 111.427L1079.89 111.8L1078.86 110.705ZM1083.83 114.401C1083.4 114.401 1082.98 114.424 1082.55 114.471C1082.14 114.51 1081.74 114.598 1081.35 114.734C1081.02 114.848 1080.72 115.036 1080.47 115.283C1080.36 115.403 1080.27 115.545 1080.21 115.701C1080.15 115.856 1080.12 116.022 1080.13 116.189C1080.11 116.412 1080.15 116.637 1080.24 116.84C1080.34 117.044 1080.49 117.219 1080.67 117.348C1081.11 117.606 1081.62 117.728 1082.13 117.701C1082.56 117.712 1082.98 117.627 1083.37 117.452C1083.69 117.303 1083.97 117.085 1084.19 116.813C1084.4 116.553 1084.55 116.255 1084.64 115.938C1084.73 115.627 1084.78 115.307 1084.78 114.985V114.403L1083.83 114.401Z" fill="white"/>
<path d="M1095.63 112.04C1095.34 111.724 1094.99 111.46 1094.61 111.262C1094.21 111.077 1093.77 110.987 1093.32 110.998C1092.89 110.988 1092.46 111.078 1092.06 111.262C1091.71 111.433 1091.4 111.683 1091.15 111.991C1090.91 112.308 1090.72 112.667 1090.61 113.05C1090.49 113.454 1090.42 113.873 1090.42 114.294C1090.42 114.713 1090.49 115.13 1090.64 115.523C1090.78 115.895 1090.98 116.239 1091.24 116.535C1091.51 116.825 1091.83 117.056 1092.19 117.214C1092.58 117.384 1093 117.469 1093.43 117.463C1093.87 117.473 1094.3 117.382 1094.7 117.197C1095.08 117.006 1095.42 116.742 1095.69 116.42L1096.95 117.677C1096.52 118.171 1095.97 118.55 1095.35 118.779C1094.73 119.004 1094.08 119.117 1093.42 119.112C1092.75 119.12 1092.08 119 1091.45 118.759C1090.88 118.534 1090.35 118.195 1089.91 117.764C1089.48 117.328 1089.14 116.806 1088.92 116.231C1088.68 115.601 1088.56 114.932 1088.56 114.257C1088.56 113.577 1088.68 112.902 1088.92 112.267C1089.14 111.686 1089.47 111.158 1089.91 110.716C1090.34 110.275 1090.86 109.929 1091.44 109.702C1092.07 109.454 1092.74 109.33 1093.42 109.339C1094.09 109.337 1094.75 109.46 1095.37 109.702C1095.99 109.943 1096.54 110.324 1096.99 110.814L1095.63 112.04Z" fill="white"/>
<path d="M1099.77 114.871C1099.77 115.257 1099.86 115.638 1100.04 115.98C1100.21 116.308 1100.44 116.599 1100.73 116.836C1101.03 117.076 1101.36 117.263 1101.73 117.386C1102.1 117.516 1102.5 117.583 1102.9 117.582C1103.4 117.594 1103.9 117.461 1104.33 117.199C1104.76 116.925 1105.13 116.583 1105.45 116.187L1106.78 117.209C1106.3 117.837 1105.68 118.34 1104.97 118.674C1104.25 119.008 1103.47 119.164 1102.68 119.127C1102 119.136 1101.33 119.009 1100.7 118.753C1100.13 118.52 1099.61 118.168 1099.19 117.721C1098.77 117.272 1098.45 116.744 1098.24 116.169C1098.01 115.549 1097.9 114.894 1097.91 114.234C1097.9 113.571 1098.02 112.914 1098.27 112.299C1098.5 111.722 1098.83 111.194 1099.26 110.745C1099.69 110.301 1100.21 109.95 1100.78 109.715C1101.39 109.46 1102.04 109.333 1102.7 109.342C1103.42 109.32 1104.14 109.467 1104.79 109.772C1105.33 110.042 1105.81 110.428 1106.19 110.904C1106.56 111.369 1106.83 111.904 1106.98 112.476C1107.15 113.054 1107.23 113.653 1107.23 114.254V114.886L1099.77 114.871ZM1105.34 113.456C1105.33 113.088 1105.27 112.723 1105.15 112.374C1105.05 112.059 1104.88 111.768 1104.66 111.521C1104.43 111.27 1104.14 111.075 1103.83 110.948C1103.45 110.804 1103.06 110.734 1102.66 110.742C1102.25 110.738 1101.84 110.823 1101.47 110.991C1101.13 111.142 1100.82 111.36 1100.56 111.63C1100.32 111.885 1100.12 112.181 1099.98 112.506C1099.85 112.806 1099.78 113.13 1099.78 113.458L1105.34 113.456Z" fill="white"/>
<path d="M1135.63 19.6039V22.3722H1134.97V19.6039H1133.9V18.977H1136.7V19.6039H1135.63Z" fill="white"/>
<path d="M1140.28 22.3722V19.9892L1139.31 22.367H1138.76L1137.79 20.0093V22.3722H1137.16V18.977H1138.03L1139.04 21.4242L1140.04 18.977H1140.93V22.3722H1140.28Z" fill="white"/>
<path d="M1107.38 103.664V106.425H1106.72V103.664H1105.66V103.038H1108.46V103.664H1107.38Z" fill="white"/>
<path d="M1112.04 106.424V104.049L1111.06 106.424H1110.52L1109.54 104.069V106.424H1108.91V103.037H1109.78L1110.8 105.484L1111.79 103.037H1112.69V106.424H1112.04Z" fill="white"/>
</svg>
