<svg id="_Original" data-name=" Original" xmlns="http://www.w3.org/2000/svg" width="185" height="37" viewBox="0 0 185 37">
  <g id="Group_3705" data-name="Group 3705">
    <g id="Rectangle_1254" data-name="Rectangle 1254" fill="#1149c2" stroke="rgba(255,255,255,0.62)" stroke-width="1">
      <path d="M0,0H183a2,2,0,0,1,2,2V35a2,2,0,0,1-2,2H0a0,0,0,0,1,0,0V0A0,0,0,0,1,0,0Z" stroke="none"/>
      <path d="M1,.5H183A1.5,1.5,0,0,1,184.5,2V35a1.5,1.5,0,0,1-1.5,1.5H1A.5.5,0,0,1,.5,36V1A.5.5,0,0,1,1,.5Z" fill="none"/>
    </g>
    <g id="Text" transform="translate(11.5 9)">
      <text id="Compare_Courses" data-name="Compare Courses" transform="translate(125 13)" fill="#fff" font-size="12" font-family="Poppins-Medium, Poppins" font-weight="500" letter-spacing="0.2em"><tspan x="-35.874" y="0">ORIGINAL</tspan></text>
      <line id="Line_46" data-name="Line 46" y2="17" transform="translate(80 1.5)" fill="none" stroke="#fff" stroke-width="1" opacity="0.53"/>
      <g id="Group_536" data-name="Group 536" transform="translate(-12.893 -12.975)">
        <g id="Group_187" data-name="Group 187" transform="translate(11.546 11.119)">
          <g id="Group_181" data-name="Group 181" transform="translate(0 6.527)">
            <path id="Path_338" data-name="Path 338" d="M10.269,22.7c-.9,1.663-1.2,4.2.538,4.491h8.161v-1.5a1.191,1.191,0,0,0-1.243-1.115H11.756c-.8-.059-1.36-.744-1.477-1.879Z" transform="translate(-9.546 -22.697)" fill="#fff"/>
            <path id="Path_339" data-name="Path 339" d="M10.62,34.4c-1.1-1.527-1.517-4.158.225-4.453h4.892v1.5a1.189,1.189,0,0,1-1.242,1.115h-2.7c-.8.058-1.047.724-1.164,1.859Z" transform="translate(-9.583 -24.951)" fill="#fff"/>
          </g>
          <g id="Group_182" data-name="Group 182" transform="translate(1.854 11.344)">
            <path id="Path_340" data-name="Path 340" d="M12.236,35.845c.99,1.611,3.035,3.141,4.158,1.779l4.08-7.067-1.3-.747a1.191,1.191,0,0,0-1.588.519L14.606,35.5c-.452.666-1.324.806-2.365.34Z" transform="translate(-12.236 -29.685)" fill="#fff"/>
            <path id="Path_341" data-name="Path 341" d="M22.609,42.058c-1.868.187-4.36-.766-3.743-2.42L21.312,35.4l1.3.747a1.188,1.188,0,0,1,.345,1.634l-1.35,2.34c-.35.724.1,1.268,1.027,1.937Z" transform="translate(-14.266 -31.461)" fill="#fff"/>
          </g>
          <g id="Group_183" data-name="Group 183" transform="translate(12.238 6.038)">
            <path id="Path_342" data-name="Path 342" d="M36,33.7c.9-1.664,1.2-4.2-.538-4.492H27.3v1.5a1.189,1.189,0,0,0,1.242,1.115h5.971c.8.059,1.361.744,1.478,1.879Z" transform="translate(-27.3 -24.233)" fill="#fff"/>
            <path id="Path_343" data-name="Path 343" d="M37.107,22.007c1.1,1.527,1.517,4.158-.225,4.452H31.99v-1.5a1.19,1.19,0,0,1,1.242-1.115h2.7c.8-.058,1.047-.724,1.164-1.859Z" transform="translate(-28.758 -21.988)" fill="#fff"/>
          </g>
          <g id="Group_184" data-name="Group 184" transform="translate(9.685 12.262)">
            <path id="Path_344" data-name="Path 344" d="M25.886,40.8c1.891-.052,4.237-1.057,3.621-2.712l-4.079-7.067-1.3.747a1.19,1.19,0,0,0-.345,1.635L26.77,38.57c.35.724.036,1.549-.887,2.219Z" transform="translate(-23.596 -31.018)" fill="#fff"/>
            <path id="Path_345" data-name="Path 345" d="M35.676,36.542c-.774,1.713-2.843,3.393-3.969,2.032l-2.446-4.237,1.3-.747a1.191,1.191,0,0,1,1.588.52l1.35,2.339c.452.665,1.15.544,2.195.078Z" transform="translate(-25.357 -31.779)" fill="#fff"/>
          </g>
          <g id="Group_185" data-name="Group 185" transform="translate(1.627)">
            <path id="Path_346" data-name="Path 346" d="M21.839,13.227c-1.892.052-4.237,1.057-3.621,2.711l4.08,7.067,1.3-.747a1.189,1.189,0,0,0,.345-1.634l-2.985-5.169c-.35-.724-.036-1.55.887-2.219Z" transform="translate(-13.837 -13.227)" fill="#fff"/>
            <path id="Path_347" data-name="Path 347" d="M11.918,19.364c.774-1.713,2.843-3.393,3.969-2.032l2.446,4.237-1.3.747a1.19,1.19,0,0,1-1.588-.519L14.1,19.461c-.452-.666-1.15-.544-2.192-.079Z" transform="translate(-11.906 -14.348)" fill="#fff"/>
          </g>
          <g id="Group_186" data-name="Group 186" transform="translate(10.885 0.006)">
            <path id="Path_348" data-name="Path 348" d="M34.5,18.669c-.991-1.61-3.035-3.141-4.16-1.779l-4.079,7.067,1.3.747a1.191,1.191,0,0,0,1.588-.518l2.985-5.17c.452-.665,1.324-.8,2.365-.34Z" transform="translate(-25.626 -14.208)" fill="#fff"/>
            <path id="Path_349" data-name="Path 349" d="M25.872,13.26c1.868-.187,4.36.766,3.742,2.421l-2.446,4.237-1.3-.747a1.189,1.189,0,0,1-.345-1.634l1.35-2.339c.35-.725-.1-1.27-1.027-1.938Z" transform="translate(-25.338 -13.236)" fill="#fff"/>
          </g>
        </g>
        <g id="Group_3725" data-name="Group 3725" transform="translate(37.016 8.975)">
          <path id="Path_350" data-name="Path 350" d="M51.715,25.811v-1.97h1.111c.868,0,1.233.27,1.233.924,0,.3,0,1.045-1.045,1.045Zm0,1.159h1.606a2.055,2.055,0,0,0,2.139-2.138,1.961,1.961,0,0,0-2.083-2.149H50.314v6.706h1.4Z" transform="translate(-49.526 -22.618)" fill="#fff"/>
          <path id="Path_351" data-name="Path 351" d="M61.967,24.369v4.967H60.659V24.369Zm0-.589H60.659V22.565h1.308Z" transform="translate(-54.173 -22.565)" fill="#fff"/>
          <path id="Path_352" data-name="Path 352" d="M71.559,30.692H70.251V27.676c0-.738-.327-.98-.709-.98-.654,0-.887.429-.887,1.018v2.979H67.346V27.7c0-.42,0-1.007-.783-1.007-.616,0-.812.429-.812.97v3.026H64.441V25.724h1.253v.729h.019a1.478,1.478,0,0,1,1.41-.86,1.421,1.421,0,0,1,1.382.794,1.55,1.55,0,0,1,1.325-.794,1.587,1.587,0,0,1,1.728,1.663Z" transform="translate(-55.873 -23.922)" fill="#fff"/>
          <path id="Path_353" data-name="Path 353" d="M81.156,28.916a1.082,1.082,0,0,1-1.167.98.57.57,0,0,1-.607-.6c0-.542.4-.663.887-.746a1.917,1.917,0,0,0,.888-.271Zm1.279-1.877c0-1.223-1.279-1.439-1.98-1.439-1.018,0-2.073.216-2.223,1.738h1.261a.7.7,0,0,1,.8-.694c.336,0,.858.028.858.579,0,.28-.252.364-.458.392l-1.177.178a1.517,1.517,0,0,0-1.447,1.587,1.394,1.394,0,0,0,1.513,1.448,2.023,2.023,0,0,0,1.607-.719,2.18,2.18,0,0,0,.121.588h1.41v-.2c-.159-.057-.289-.187-.289-.776Z" transform="translate(-61.996 -23.929)" fill="#fff"/>
          <path id="Path_354" data-name="Path 354" d="M91.489,24.736A1.363,1.363,0,0,0,90,23.579c-.672,0-1.662.448-1.662,2.344,0,1.2.476,2.288,1.662,2.288a1.431,1.431,0,0,0,1.485-1.261h1.4a2.791,2.791,0,0,1-2.914,2.475c-1.783,0-3.064-1.2-3.064-3.521,0-2.344,1.355-3.54,3.083-3.54a2.667,2.667,0,0,1,2.895,2.372Z" transform="translate(-86.912 -13.709)" fill="#fff"/>
          <path id="Path_355" data-name="Path 355" d="M101.878,28.216c0,.634-.187,1.512-1.194,1.512s-1.194-.877-1.194-1.512.187-1.513,1.194-1.513S101.878,27.58,101.878,28.216Zm1.346,0a2.542,2.542,0,1,0-5.081,0,2.541,2.541,0,1,0,5.081,0Z" transform="translate(-91.959 -15.162)" fill="#fff"/>
          <path id="Path_356" data-name="Path 356" d="M115.292,30.692h-1.306V27.676c0-.738-.327-.98-.711-.98-.652,0-.887.429-.887,1.018v2.979h-1.306V27.7c0-.42,0-1.007-.783-1.007-.616,0-.813.429-.813.97v3.026h-1.306V25.724h1.252v.729h.018a1.48,1.48,0,0,1,1.411-.86,1.421,1.421,0,0,1,1.38.794,1.55,1.55,0,0,1,1.326-.794,1.587,1.587,0,0,1,1.728,1.663Z" transform="translate(-96.471 -15.155)" fill="#fff"/>
          <path id="Path_357" data-name="Path 357" d="M129.515,30.692H128.21V27.675c0-.738-.326-.98-.709-.98-.655,0-.888.429-.888,1.018v2.979H125.3V27.7c0-.42,0-1.007-.783-1.007-.617,0-.813.429-.813.97v3.026H122.4V25.724h1.25v.729h.019a1.477,1.477,0,0,1,1.41-.86,1.42,1.42,0,0,1,1.383.794,1.549,1.549,0,0,1,1.324-.794,1.585,1.585,0,0,1,1.728,1.663Z" transform="translate(-102.858 -15.155)" fill="#fff"/>
          <path id="Path_358" data-name="Path 358" d="M140.8,30.806h-1.252v-.7h-.018a1.637,1.637,0,0,1-1.514.831,1.6,1.6,0,0,1-1.69-1.831V25.838h1.308V28.92c0,.766.448.915.849.915a.99.99,0,0,0,1.007-1.13V25.838H140.8Z" transform="translate(-109.113 -15.269)" fill="#fff"/>
          <path id="Path_359" data-name="Path 359" d="M150.316,30.7h-1.308V27.679c0-.364-.018-.98-.85-.98a1.017,1.017,0,0,0-1.027,1.149V30.7h-1.306V25.727h1.25v.729h.019a1.729,1.729,0,0,1,3.223.8Z" transform="translate(-113.383 -15.158)" fill="#fff"/>
          <path id="Path_360" data-name="Path 360" d="M156.709,24.369v4.967H155.4V24.369Zm0-.589H155.4V22.565h1.308Z" transform="translate(-117.684 -13.799)" fill="#fff"/>
          <path id="Path_361" data-name="Path 361" d="M160.251,24.743h.813v.933h-.813v2.7c0,.29.009.4.542.4.084,0,.177-.009.271-.019v.991c-.206.009-.41.019-.617.019h-.169c-1.13,0-1.335-.43-1.335-1.074V25.676h-.672v-.933h.672V23.4h1.306Z" transform="translate(-118.975 -14.174)" fill="#fff"/>
          <path id="Path_362" data-name="Path 362" d="M166.3,30.723c-.617,1.84-.783,2.083-1.924,2.083-.178,0-.4-.01-.589-.019V31.741a1.483,1.483,0,0,0,.253.019c.476,0,.738-.065.858-.746l-1.831-5.174h1.455l1.065,3.662h.018l1.018-3.662h1.382Z" transform="translate(-121.129 -15.269)" fill="#fff"/>
          <path id="Path_363" data-name="Path 363" d="M176.8,24.736a1.363,1.363,0,0,0-1.485-1.156c-.672,0-1.662.448-1.662,2.344,0,1.2.476,2.288,1.662,2.288a1.431,1.431,0,0,0,1.485-1.261h1.4a2.792,2.792,0,0,1-2.914,2.475c-1.784,0-3.063-1.2-3.063-3.521,0-2.344,1.354-3.54,3.082-3.54a2.667,2.667,0,0,1,2.895,2.372Z" transform="translate(-172.228 -4.943)" fill="#fff"/>
          <path id="Path_364" data-name="Path 364" d="M187.188,28.216c0,.634-.187,1.512-1.194,1.512s-1.194-.877-1.194-1.512.187-1.513,1.194-1.513S187.188,27.58,187.188,28.216Zm1.343,0a2.541,2.541,0,1,0-5.081,0,2.542,2.542,0,1,0,5.083,0Z" transform="translate(-177.269 -6.397)" fill="#fff"/>
          <path id="Path_365" data-name="Path 365" d="M194.871,29.389h-1.308V22.683h1.308Z" transform="translate(-181.814 -5.086)" fill="#fff"/>
          <path id="Path_366" data-name="Path 366" d="M198.739,29.389h-1.308V22.683h1.308Z" transform="translate(-183.552 -5.086)" fill="#fff"/>
          <path id="Path_367" data-name="Path 367" d="M201.862,27.721c.075-.654.4-1.045,1.018-1.045a1,1,0,0,1,1.007,1.045Zm1.97,1.522a.838.838,0,0,1-.839.542c-1.057,0-1.131-.841-1.168-1.214h3.409v-.234c0-2.27-1.353-2.737-2.335-2.737a2.309,2.309,0,0,0-2.381,2.513c0,2.045,1.075,2.718,2.476,2.718a2.153,2.153,0,0,0,2.185-1.588Z" transform="translate(-184.938 -6.398)" fill="#fff"/>
          <path id="Path_368" data-name="Path 368" d="M210.734,28.239c0-1.156.541-1.513,1.027-1.513.728,0,1.119.654,1.119,1.455,0,.682-.224,1.439-1.111,1.439C211,29.62,210.734,28.873,210.734,28.239Zm2.194-2.513v.738h-.019a1.5,1.5,0,0,0-1.457-.868c-1.093,0-2.063.842-2.063,2.56,0,1.737.943,2.569,2.138,2.569a1.349,1.349,0,0,0,1.326-.746l.02.019v.6c0,.8-.336,1.14-1.037,1.14-.757,0-.858-.253-.915-.5H209.5c.056,1.055,1.139,1.492,2.166,1.492,2.447,0,2.512-1.428,2.512-2.289V25.726Z" transform="translate(-188.924 -6.392)" fill="#fff"/>
          <path id="Path_369" data-name="Path 369" d="M220.125,27.721c.075-.654.4-1.045,1.018-1.045a1.006,1.006,0,0,1,1.01,1.045Zm1.971,1.522a.839.839,0,0,1-.84.542c-1.055,0-1.13-.841-1.168-1.214H223.5v-.234c0-2.27-1.355-2.737-2.335-2.737a2.309,2.309,0,0,0-2.382,2.513c0,2.045,1.074,2.718,2.475,2.718a2.151,2.151,0,0,0,2.185-1.588Z" transform="translate(-193.145 -6.398)" fill="#fff"/>
        </g>
      </g>
    </g>
  </g>
</svg>
