<svg xmlns="http://www.w3.org/2000/svg" xmlns:xlink="http://www.w3.org/1999/xlink" width="24" height="24" viewBox="0 0 24 24">
  <defs>
    <clipPath id="clip-CNM_Web">
      <rect width="24" height="24"/>
    </clipPath>
  </defs>
  <g id="CNM_Web" data-name="CNM Web" clip-path="url(#clip-CNM_Web)">
    <g id="globalization" transform="translate(3.999 2.332)">
      <path id="Path_1238" data-name="Path 1238" d="M273.9,141.4a16.557,16.557,0,0,1-2.93.334v2.813H274.3A15.26,15.26,0,0,0,273.9,141.4Z" transform="translate(-262.405 -135.317)" fill="#fff"/>
      <path id="Path_1239" data-name="Path 1239" d="M3.334,110.192a16.238,16.238,0,0,1,.433-3.372,10.678,10.678,0,0,1-2.25-.9A8.03,8.03,0,0,0,0,110.192Z" transform="translate(0 -100.96)" fill="#fff"/>
      <path id="Path_1240" data-name="Path 1240" d="M3.334,270.97H0a8.03,8.03,0,0,0,1.517,4.269,10.678,10.678,0,0,1,2.25-.9A16.236,16.236,0,0,1,3.334,270.97Z" transform="translate(0 -260.79)" fill="#fff"/>
      <path id="Path_1241" data-name="Path 1241" d="M271.86,2.163a2.387,2.387,0,0,0-.889-.5v3.8a15.659,15.659,0,0,0,2.671-.3,9.7,9.7,0,0,0-.536-1.32A5.278,5.278,0,0,0,271.86,2.163Z" transform="translate(-262.406)" fill="#fff"/>
      <path id="Path_1242" data-name="Path 1242" d="M69.248,406.48a9.9,9.9,0,0,0-1.892.733c.075.082.152.162.231.241a8.07,8.07,0,0,0,3.192,1.97A7.144,7.144,0,0,1,69.861,408,10.687,10.687,0,0,1,69.248,406.48Z" transform="translate(-65.227 -392.017)" fill="#fff"/>
      <path id="Path_1243" data-name="Path 1243" d="M156.992,3.852a9.7,9.7,0,0,0-.536,1.32,15.659,15.659,0,0,0,2.671.3v-3.8a2.388,2.388,0,0,0-.889.5A5.277,5.277,0,0,0,156.992,3.852Z" transform="translate(-151.511 0)" fill="#fff"/>
      <path id="Path_1244" data-name="Path 1244" d="M393.214,270.97a16.239,16.239,0,0,1-.433,3.372,10.678,10.678,0,0,1,2.25.9,8.03,8.03,0,0,0,1.517-4.269Z" transform="translate(-380.366 -260.79)" fill="#fff"/>
      <path id="Path_1245" data-name="Path 1245" d="M337.83,15.273a9.9,9.9,0,0,0,1.892-.733c-.075-.082-.152-.162-.231-.241a8.07,8.07,0,0,0-3.192-1.97,7.147,7.147,0,0,1,.918,1.423A10.69,10.69,0,0,1,337.83,15.273Z" transform="translate(-325.67 -10.324)" fill="#fff"/>
      <path id="Path_1246" data-name="Path 1246" d="M273.1,391.6a9.7,9.7,0,0,0,.536-1.32,15.661,15.661,0,0,0-2.671-.3v3.8a2.387,2.387,0,0,0,.889-.5A5.277,5.277,0,0,0,273.1,391.6Z" transform="translate(-262.405 -376.038)" fill="#fff"/>
      <path id="Path_1247" data-name="Path 1247" d="M392.781,106.822a16.239,16.239,0,0,1,.433,3.372h3.334a8.03,8.03,0,0,0-1.517-4.269A10.68,10.68,0,0,1,392.781,106.822Z" transform="translate(-380.366 -100.962)" fill="#fff"/>
      <path id="Path_1248" data-name="Path 1248" d="M270.97,270.97v2.813a16.565,16.565,0,0,1,2.93.334,15.262,15.262,0,0,0,.4-3.147Z" transform="translate(-262.405 -260.79)" fill="#fff"/>
      <path id="Path_1249" data-name="Path 1249" d="M138.811,144.549v-2.813a16.557,16.557,0,0,1-2.93-.334,15.26,15.26,0,0,0-.4,3.147Z" transform="translate(-131.195 -135.317)" fill="#fff"/>
      <path id="Path_1250" data-name="Path 1250" d="M69.248,15.273a10.684,10.684,0,0,1,.612-1.521,7.144,7.144,0,0,1,.918-1.423,8.07,8.07,0,0,0-3.192,1.97c-.079.079-.156.159-.231.241A9.906,9.906,0,0,0,69.248,15.273Z" transform="translate(-65.227 -10.324)" fill="#fff"/>
      <path id="Path_1251" data-name="Path 1251" d="M337.831,406.48a10.685,10.685,0,0,1-.612,1.521,7.145,7.145,0,0,1-.918,1.423,8.07,8.07,0,0,0,3.192-1.97c.079-.079.156-.159.231-.241A9.9,9.9,0,0,0,337.831,406.48Z" transform="translate(-325.671 -392.017)" fill="#fff"/>
      <path id="Path_1252" data-name="Path 1252" d="M138.811,270.97h-3.334a15.258,15.258,0,0,0,.4,3.147,16.564,16.564,0,0,1,2.93-.334Z" transform="translate(-131.195 -260.79)" fill="#fff"/>
      <path id="Path_1253" data-name="Path 1253" d="M158.238,393.288a2.388,2.388,0,0,0,.889.5v-3.8a15.661,15.661,0,0,0-2.671.3,9.7,9.7,0,0,0,.536,1.32A5.278,5.278,0,0,0,158.238,393.288Z" transform="translate(-151.511 -376.039)" fill="#fff"/>
    </g>
  </g>
</svg>
