<svg width="722" height="141" viewBox="0 0 722 141" fill="none" xmlns="http://www.w3.org/2000/svg">
<path d="M140.816 48.69V36.79H147.536C152.786 36.79 154.986 38.43 154.986 42.38C154.986 44.19 154.986 48.7 148.666 48.7H140.816V48.69ZM140.816 55.69H150.516C161.406 55.69 163.436 46.44 163.436 42.77C163.436 34.81 158.696 29.79 150.856 29.79H132.356V70.3H140.816V55.69ZM174.676 40.29V70.3H166.776V40.29H174.676ZM174.676 36.73H166.776V29.4H174.676V36.73ZM222.346 70.3H214.446V52.08C214.446 47.62 212.476 46.16 210.156 46.16C206.206 46.16 204.796 48.76 204.796 52.31V70.31H196.896V52.25C196.896 49.71 196.896 46.16 192.156 46.16C188.436 46.16 187.246 48.76 187.246 52.03V70.3H179.346V40.29H186.906V44.69H187.016C188.036 42.72 190.236 39.5 195.536 39.5C199.886 39.5 201.856 41.08 203.886 44.3C204.906 42.83 207.106 39.5 211.896 39.5C217.766 39.5 222.336 42.94 222.336 49.54V70.3H222.346ZM243.346 59.53C243.346 63.2 239.786 65.45 236.296 65.45C234.776 65.45 232.626 64.6 232.626 61.84C232.626 58.57 235.056 57.83 237.986 57.33C241.256 56.82 242.556 56.31 243.346 55.69V59.53ZM251.076 48.18C251.076 40.79 243.346 39.49 239.116 39.49C232.966 39.49 226.586 40.79 225.686 49.99H233.306C233.536 48.24 234.206 45.81 238.156 45.81C240.186 45.81 243.346 45.98 243.346 49.31C243.346 51 241.826 51.51 240.586 51.68L233.476 52.75C228.456 53.48 224.726 56.47 224.726 62.34C224.726 68.55 229.356 71.08 233.866 71.08C239.226 71.08 241.766 68.6 243.576 66.74C243.746 68.43 243.856 68.88 244.306 70.29H252.826V69.11C251.866 68.77 251.076 67.98 251.076 64.43V48.18ZM281.766 43.05C281.086 40.62 279.786 36.05 272.796 36.05C268.736 36.05 262.756 38.76 262.756 50.21C262.756 57.49 265.636 64.03 272.796 64.03C277.476 64.03 280.756 61.38 281.766 56.41H290.226C288.536 65.21 282.776 71.36 272.626 71.36C261.846 71.36 254.116 64.08 254.116 50.09C254.116 35.93 262.296 28.71 272.736 28.71C284.866 28.71 289.776 37.06 290.226 43.04H281.766V43.05ZM314.046 55.29C314.046 59.13 312.916 64.43 306.826 64.43C300.736 64.43 299.606 59.13 299.606 55.29C299.606 51.45 300.736 46.15 306.826 46.15C312.916 46.15 314.046 51.46 314.046 55.29ZM322.166 55.29C322.166 44.46 314.886 39.49 306.816 39.49C298.746 39.49 291.466 44.46 291.466 55.29C291.466 66.12 298.746 71.09 306.816 71.09C314.886 71.09 322.166 66.13 322.166 55.29ZM367.816 70.3H359.916V52.08C359.916 47.62 357.946 46.16 355.626 46.16C351.676 46.16 350.266 48.76 350.266 52.31V70.31H342.366V52.25C342.366 49.71 342.366 46.16 337.626 46.16C333.906 46.16 332.716 48.76 332.716 52.03V70.3H324.816V40.29H332.376V44.69H332.486C333.506 42.72 335.706 39.5 341.006 39.5C345.356 39.5 347.326 41.08 349.356 44.3C350.376 42.83 352.576 39.5 357.366 39.5C363.236 39.5 367.806 42.94 367.806 49.54V70.3H367.816ZM415.156 70.3H407.256V52.08C407.256 47.62 405.286 46.16 402.966 46.16C399.016 46.16 397.606 48.76 397.606 52.31V70.31H389.706V52.25C389.706 49.71 389.706 46.16 384.966 46.16C381.246 46.16 380.056 48.76 380.056 52.03V70.3H372.156V40.29H379.716V44.69H379.826C380.846 42.72 383.046 39.5 388.346 39.5C392.696 39.5 394.666 41.08 396.696 44.3C397.716 42.83 399.916 39.5 404.706 39.5C410.576 39.5 415.146 42.94 415.146 49.54V70.3H415.156ZM445.526 70.3H437.966V66.07H437.856C436.046 69.29 432.886 71.09 428.716 71.09C422.796 71.09 418.506 67.71 418.506 60.03V40.29H426.406V58.9C426.406 63.53 429.116 64.43 431.536 64.43C434.126 64.43 437.626 62.96 437.626 57.6V40.29H445.526V70.3V70.3ZM477.236 70.3H469.336V52.08C469.336 49.88 469.226 46.16 464.206 46.16C460.706 46.16 457.996 48.53 457.996 53.1V70.3H450.096V40.29H457.656V44.69H457.766C458.836 42.88 461.096 39.5 466.796 39.5C472.666 39.5 477.236 42.94 477.236 49.54V70.3ZM489.876 40.29V70.3H481.976V40.29H489.876ZM489.876 36.73H481.976V29.4H489.876V36.73ZM503.476 40.29H508.386V45.93H503.476V62.24C503.476 63.99 503.536 64.67 506.756 64.67C507.266 64.67 507.826 64.61 508.396 64.56V70.54C507.156 70.59 505.916 70.65 504.676 70.65H503.656C496.826 70.65 495.586 68.05 495.586 64.16V45.93H491.526V40.29H495.586V32.16H503.486V40.29H503.476ZM527.006 69.79C523.286 80.91 522.266 82.37 515.386 82.37C514.316 82.37 512.956 82.31 511.836 82.26V75.94C512.176 76 512.686 76.05 513.356 76.05C516.236 76.05 517.816 75.66 518.546 71.54L507.486 40.28H516.286L522.716 62.4H522.826L528.976 40.28H537.326L527.006 69.79ZM565.596 43.05C564.916 40.62 563.616 36.05 556.626 36.05C552.566 36.05 546.586 38.76 546.586 50.21C546.586 57.49 549.466 64.03 556.626 64.03C561.306 64.03 564.586 61.38 565.596 56.41H574.056C572.366 65.21 566.606 71.36 556.456 71.36C545.676 71.36 537.946 64.08 537.946 50.09C537.946 35.93 546.126 28.71 556.566 28.71C568.696 28.71 573.606 37.06 574.056 43.04H565.596V43.05ZM597.876 55.29C597.876 59.13 596.746 64.43 590.656 64.43C584.556 64.43 583.436 59.13 583.436 55.29C583.436 51.45 584.566 46.15 590.656 46.15C596.746 46.15 597.876 51.46 597.876 55.29ZM605.996 55.29C605.996 44.46 598.716 39.49 590.646 39.49C582.576 39.49 575.296 44.46 575.296 55.29C575.296 66.12 582.576 71.09 590.646 71.09C598.716 71.09 605.996 66.13 605.996 55.29ZM616.826 70.3H608.926V29.79H616.826V70.3ZM629.696 70.3H621.796V29.79H629.696V70.3ZM640.196 52.3C640.646 48.35 642.616 45.98 646.346 45.98C648.886 45.98 651.986 47.45 652.446 52.3H640.196ZM652.096 61.5C651.476 63.64 649.216 64.77 647.016 64.77C640.636 64.77 640.186 59.69 639.956 57.43H660.556V56.02C660.556 42.31 652.376 39.49 646.446 39.49C633.296 39.49 632.056 51.06 632.056 54.67C632.056 67.03 638.546 71.09 647.006 71.09C652.136 71.09 658.126 68.72 660.206 61.5H652.096ZM669.706 55.46C669.706 48.46 672.976 46.32 675.916 46.32C680.316 46.32 682.686 50.27 682.686 55.12C682.686 59.24 681.336 63.81 675.976 63.81C671.286 63.81 669.706 59.3 669.706 55.46ZM682.966 40.29V44.75H682.856C681.896 42.77 679.636 39.5 674.056 39.5C667.456 39.5 661.586 44.58 661.586 54.96C661.586 65.45 667.286 70.48 674.506 70.48C679.246 70.48 681.226 68.28 682.516 65.97L682.626 66.08V69.69C682.626 74.54 680.596 76.58 676.366 76.58C671.796 76.58 671.176 75.05 670.836 73.53H662.256C662.596 79.91 669.136 82.56 675.346 82.56C690.126 82.56 690.526 73.93 690.526 68.74V40.29H682.966ZM700.946 52.3C701.396 48.35 703.376 45.98 707.096 45.98C709.636 45.98 712.736 47.45 713.196 52.3H700.946ZM712.856 61.5C712.236 63.64 709.976 64.77 707.776 64.77C701.396 64.77 700.946 59.69 700.726 57.43H721.326V56.02C721.326 42.31 713.146 39.49 707.216 39.49C694.066 39.49 692.826 51.06 692.826 54.67C692.826 67.03 699.316 71.09 707.776 71.09C712.916 71.09 718.896 68.72 720.976 61.5H712.856Z" fill="white"/>
<path d="M3.43677 30.52C3.98677 35.83 6.59677 39.03 10.3468 39.3H38.2568C42.2368 39.3 43.9268 42.32 44.0668 44.52V51.52H5.89677C-2.24323 50.15 -0.823231 38.3 3.37677 30.52H3.43677V30.52ZM4.89677 74.8C5.44677 69.49 6.58677 66.38 10.3368 66.11H22.9668C26.9468 66.11 28.6368 63.09 28.7768 60.9V53.9H5.89677C-2.24323 55.27 -0.283234 67.58 4.84677 74.72L4.89677 74.8ZM8.66677 81.84C13.2968 89.37 22.8468 96.53 28.1068 90.16L47.1868 57.12L41.1268 53.62C39.1568 52.64 35.6968 52.6 33.7068 56.04L19.7568 80.2C17.6468 83.31 13.5668 83.97 8.69677 81.79L8.66677 81.84ZM47.7768 102.58C43.4568 99.45 41.3368 96.91 42.9668 93.52L49.2768 82.58C51.2668 79.13 49.4968 76.16 47.6668 74.94L41.6068 71.44L30.1668 91.25C27.2868 98.99 38.9268 103.44 47.6668 102.57L47.7768 102.58ZM97.9068 72.51C102.117 64.73 103.537 52.88 95.3868 51.51H57.2368V58.51C57.3768 60.71 59.0668 63.72 63.0468 63.72H90.9568C94.7068 64 97.3168 67.2 97.8668 72.51H97.9068ZM96.2068 28.23C95.6568 33.54 94.5168 36.65 90.7668 36.92H78.1368C74.1568 36.92 72.4668 39.94 72.3268 42.14V49.14H95.1968C103.337 47.77 101.377 35.46 96.2468 28.32L96.2068 28.23ZM55.9968 103.05C64.8368 102.81 75.8068 98.11 72.9268 90.37L53.8468 57.33L47.7868 60.83C45.9568 62.05 44.1868 65.02 46.1768 68.47L60.1268 92.64C61.7668 96.03 60.2968 99.89 55.9768 103.01L55.9968 103.05ZM93.5868 79.52C88.7168 81.7 85.4468 82.26 83.3368 79.15L77.0268 68.21C75.0368 64.76 71.5768 64.81 69.6068 65.79L63.5468 69.29L74.9868 89.1C80.2468 95.47 89.9168 87.61 93.5368 79.6L93.5868 79.52ZM45.0168 0C36.1768 0.24 25.2068 4.94 28.0868 12.68L47.1668 45.72L53.2268 42.22C55.0568 41 56.8268 38.03 54.8368 34.58L40.8868 10.41C39.2468 7.02 40.7168 3.16 45.0368 0.0400009L45.0168 0ZM7.60677 23.53C12.4768 21.35 15.7468 20.79 17.8568 23.9L24.1668 34.83C26.1568 38.28 29.6168 38.23 31.5868 37.25L37.6468 33.75L26.2168 13.95C20.9568 7.58 11.2868 15.44 7.66677 23.45L7.60677 23.53ZM92.3968 20.88C87.7668 13.35 78.2168 6.19 72.9568 12.56L53.8768 45.6L59.9368 49.1C61.9068 50.08 65.3668 50.12 67.3568 46.68L81.3068 22.51C83.4168 19.4 87.4968 18.74 92.3668 20.92L92.3968 20.88ZM53.2868 0.130001C57.6068 3.26 59.7268 5.8 58.0968 9.19L51.7868 20.12C49.7968 23.57 51.5668 26.54 53.3968 27.76L59.4568 31.26L70.8968 11.45C73.7768 3.71 62.1368 -0.739999 53.3968 0.130001H53.2868Z" fill="#00539B"/>
<path d="M447.007 130.22H447.977C448.377 130.22 448.907 129.62 448.907 129.25V116.2C448.907 115.83 448.377 115.27 447.977 115.27H447.007V111.01H458.467V115.27H456.697V121.2L461.027 117C461.997 116.1 461.697 115.27 460.597 115.27H460.067V111.01H470.897V115.27H470.467C469.897 115.27 469.397 115.6 468.737 116.34L464.277 120.84L469.547 129.34C469.847 129.74 470.147 130.24 470.647 130.24H471.017V134.34H461.617V130.74L458.317 125.24L456.717 126.57V130.23H458.587V134.33H447.027V130.22H447.007Z" fill="white"/>
<path d="M479.267 127.09C479.497 129.32 480.367 130.29 482.367 130.29C484.167 130.29 485.067 129.66 485.737 128.79H489.567V133.02C487.967 133.92 485.637 134.62 481.607 134.62C474.747 134.62 471.977 131.19 471.977 125.62C471.977 119.99 475.607 116.39 481.507 116.39C487.467 116.39 490.267 119.19 490.267 125.35C490.267 126.18 490.197 126.85 490.197 127.08H479.267V127.09ZM479.297 123.66H483.497C483.327 121.39 482.767 120.56 481.497 120.56C480.197 120.56 479.537 121.4 479.297 123.66Z" fill="white"/>
<path d="M499.396 127.09C499.626 129.32 500.496 130.29 502.496 130.29C504.296 130.29 505.196 129.66 505.866 128.79H509.696V133.02C508.096 133.92 505.766 134.62 501.736 134.62C494.876 134.62 492.106 131.19 492.106 125.62C492.106 119.99 495.736 116.39 501.636 116.39C507.596 116.39 510.396 119.19 510.396 125.35C510.396 126.18 510.326 126.85 510.326 127.08H499.396V127.09ZM499.426 123.66H503.626C503.456 121.39 502.896 120.56 501.626 120.56C500.326 120.56 499.666 121.4 499.426 123.66Z" fill="white"/>
<path d="M512.227 135.89H513.057C513.387 135.89 513.887 135.42 513.887 135.09V121.93C513.887 121.63 513.387 121.1 513.057 121.1H512.127V116.73H519.757C520.387 116.73 520.827 117.2 521.027 118.83C522.327 117.43 523.927 116.4 526.257 116.4C529.617 116.4 532.787 118.43 532.787 125C532.787 131.53 529.187 133.9 525.257 133.9C523.357 133.9 522.087 133.47 521.157 132.73V135.9H522.687V139.73H512.227V135.89ZM521.157 121.86V129.56C521.557 129.76 522.027 129.89 522.687 129.89C524.117 129.89 525.387 129.19 525.387 125.63C525.387 122.37 524.187 121.63 522.687 121.63C522.187 121.63 521.657 121.73 521.157 121.86Z" fill="white"/>
<path d="M540.557 133.66V128.76H544.387C544.917 129.73 546.117 130.32 547.457 130.32C548.627 130.32 549.427 129.99 549.427 129.25C549.427 128.51 548.857 128.32 546.597 128.08C542.767 127.65 540.537 126.28 540.537 122.32C540.537 118.25 543.667 116.39 548.597 116.39C551.827 116.39 553.827 116.76 555.527 117.29V121.89H551.727C551.197 121.12 550.297 120.66 548.927 120.66C547.457 120.66 546.957 120.99 546.957 121.59C546.957 122.19 547.487 122.39 549.587 122.66C553.947 123.19 556.187 124.22 556.187 128.32C556.187 132.42 553.717 134.62 547.857 134.62C544.317 134.62 542.117 134.16 540.557 133.66Z" fill="white"/>
<path d="M557.587 116.73H559.317V112.17H566.607V116.73H569.537V121.1H566.607V128.26C566.607 129.76 567.107 130.23 568.707 130.23H569.607V134.19C568.737 134.42 567.407 134.69 565.737 134.69C561.877 134.69 559.307 133.59 559.307 129.49V121.09H557.577V116.73H557.587Z" fill="white"/>
<path d="M571.416 130.22H572.246C572.576 130.22 573.076 129.72 573.076 129.39V121.93C573.076 121.63 572.576 121.1 572.246 121.1H571.316V116.73H578.946C579.616 116.73 580.076 117.23 580.246 119.13C581.346 117.63 582.546 116.53 584.776 116.53C585.076 116.53 585.346 116.56 585.846 116.73V122.13H585.116C582.846 122.13 581.316 122.4 580.346 122.66V130.22H582.176V134.32H571.416V130.22V130.22Z" fill="white"/>
<path d="M587.876 130.22H588.746C589.076 130.22 589.546 129.72 589.546 129.39V121.93C589.546 121.63 589.086 121.1 588.746 121.1H587.776V116.73H595.806C596.476 116.73 596.836 117.33 596.836 118.43V129.39C596.836 129.72 597.336 130.22 597.666 130.22H598.536V134.32H587.876V130.22ZM589.816 112.93C589.816 111.03 591.216 109.76 593.176 109.76C595.176 109.76 596.576 111.03 596.576 112.93C596.576 114.8 595.176 116.03 593.176 116.03C591.206 116.03 589.816 114.8 589.816 112.93Z" fill="white"/>
<path d="M600.576 121.86C600.446 121.49 599.976 121.1 599.606 121.1H599.106V116.73H609.336V121.1H607.706L609.906 127.33H610.006L611.776 122.6C612.106 121.73 611.946 121.1 610.976 121.1H610.676V116.73H619.376V121.1H619.006C618.536 121.1 617.936 121.6 617.736 122.13L612.376 134.32H605.876L600.576 121.86Z" fill="white"/>
<path d="M621.007 130.22H621.877C622.207 130.22 622.677 129.72 622.677 129.39V121.93C622.677 121.63 622.217 121.1 621.877 121.1H620.907V116.73H628.937C629.607 116.73 629.967 117.33 629.967 118.43V129.39C629.967 129.72 630.467 130.22 630.797 130.22H631.667V134.32H621.007V130.22ZM622.937 112.93C622.937 111.03 624.337 109.76 626.297 109.76C628.297 109.76 629.697 111.03 629.697 112.93C629.697 114.8 628.297 116.03 626.297 116.03C624.337 116.03 622.937 114.8 622.937 112.93Z" fill="white"/>
<path d="M633.437 130.22H634.267C634.597 130.22 635.097 129.69 635.097 129.39V121.93C635.097 121.6 634.597 121.1 634.267 121.1H633.337V116.73H640.967C641.637 116.73 642.097 117.23 642.267 119.16C643.797 117.56 645.827 116.4 648.597 116.4C650.927 116.4 653.127 117.37 653.127 120.6V129.4C653.127 129.73 653.627 130.23 653.957 130.23H654.487V134.33H645.857V123.4C645.857 122.1 645.227 121.83 643.727 121.83C643.427 121.83 642.897 121.86 642.357 121.93V130.23H644.327V134.33H633.427V130.22H633.437Z" fill="white"/>
<path d="M655.427 136.32C655.427 134.32 657.157 133.19 658.627 132.66C657.757 132.19 657.097 131.36 657.097 130.16C657.097 128.59 657.997 127.56 659.267 126.79C657.567 125.86 656.667 124.33 656.667 122.26C656.667 118.56 659.667 116.4 664.767 116.4C665.937 116.4 666.997 116.53 667.967 116.73H674.167V121.1H673.497C673.267 121.1 672.967 121.33 672.827 121.57C672.827 121.8 672.857 122.03 672.857 122.27C672.857 125.97 669.887 127.97 664.757 127.97C663.587 127.97 662.527 127.87 661.587 127.67V127.9C661.587 128.6 661.757 129.03 662.657 129.03H668.717C672.547 129.03 674.217 130.43 674.217 133.66C674.217 137.66 671.317 140.36 664.157 140.36C657.597 140.35 655.427 138.85 655.427 136.32ZM661.357 134.29C661.327 134.49 661.327 134.66 661.327 134.76C661.327 136.16 661.827 136.53 664.197 136.53C666.167 136.53 667.897 136.23 667.897 135.2C667.897 134.57 667.527 134.3 666.467 134.3H661.357V134.29ZM666.457 122.3C666.457 120.57 665.827 120 664.827 120C663.827 120 663.157 120.57 663.157 122.3C663.157 124 663.827 124.66 664.827 124.66C665.827 124.66 666.457 123.99 666.457 122.3Z" fill="white"/>
<path d="M676.087 131.36C676.087 129.53 677.587 128.1 679.487 128.1C681.357 128.1 682.847 129.53 682.847 131.36C682.847 133.16 681.347 134.56 679.487 134.56C677.587 134.56 676.087 133.16 676.087 131.36Z" fill="white"/>
<path d="M368.527 115.12H353.307L337.837 130.33H353.047L368.527 115.12Z" fill="white"/>
<path d="M400.836 115.12H385.626L370.146 130.33H385.357L400.836 115.12Z" fill="white"/>
<path d="M431.527 115.12H416.317L400.837 130.33H416.047L431.527 115.12Z" fill="white"/>
</svg>
