<svg id="star" xmlns="http://www.w3.org/2000/svg" xmlns:xlink="http://www.w3.org/1999/xlink" width="16.042" height="16" viewBox="0 0 16.042 16">
  <defs>
    <clipPath id="clip-path">
      <path id="_Icon_color" data-name="🎨 Icon color" d="M3.559,16a.766.766,0,0,1-.472-.162.862.862,0,0,1-.318-.826l.78-4.75L.243,6.9a.879.879,0,0,1-.205-.866.818.818,0,0,1,.648-.576l4.573-.7L7.3.431a.815.815,0,0,1,1.437,0l2.043,4.326,4.574.7A.818.818,0,0,1,16,6.032.879.879,0,0,1,15.8,6.9l-3.305,3.364.78,4.75a.862.862,0,0,1-.318.826.761.761,0,0,1-.471.162.775.775,0,0,1-.372-.095l-4.09-2.249L3.931,15.9A.778.778,0,0,1,3.559,16Zm4.462-4.141a.773.773,0,0,1,.371.1l3.024,1.663-.575-3.509a.873.873,0,0,1,.232-.751L13.509,6.88l-3.372-.517a.807.807,0,0,1-.6-.46L8.021,2.7,6.508,5.9a.807.807,0,0,1-.6.46L2.533,6.88,4.969,9.358a.873.873,0,0,1,.232.751l-.575,3.509L7.65,11.955A.775.775,0,0,1,8.021,11.859Z" fill="#656565"/>
    </clipPath>
  </defs>
  <g id="Group_32" data-name="Group 32">
    <path id="_Icon_color-2" data-name="🎨 Icon color" d="M3.559,16a.766.766,0,0,1-.472-.162.862.862,0,0,1-.318-.826l.78-4.75L.243,6.9a.879.879,0,0,1-.205-.866.818.818,0,0,1,.648-.576l4.573-.7L7.3.431a.815.815,0,0,1,1.437,0l2.043,4.326,4.574.7A.818.818,0,0,1,16,6.032.879.879,0,0,1,15.8,6.9l-3.305,3.364.78,4.75a.862.862,0,0,1-.318.826.761.761,0,0,1-.471.162.775.775,0,0,1-.372-.095l-4.09-2.249L3.931,15.9A.778.778,0,0,1,3.559,16Zm4.462-4.141a.773.773,0,0,1,.371.1l3.024,1.663-.575-3.509a.873.873,0,0,1,.232-.751L13.509,6.88l-3.372-.517a.807.807,0,0,1-.6-.46L8.021,2.7,6.508,5.9a.807.807,0,0,1-.6.46L2.533,6.88,4.969,9.358a.873.873,0,0,1,.232.751l-.575,3.509L7.65,11.955A.775.775,0,0,1,8.021,11.859Z" fill="#656565"/>
  </g>
</svg>
