<svg width="241" height="40" viewBox="0 0 241 40" fill="none" xmlns="http://www.w3.org/2000/svg">
<rect x="0.651282" y="0.651282" width="239.697" height="38.6974" rx="1.81026" fill="#333333"/>
<path d="M43.6129 18.0113L42.6986 17.4587C42.2262 17.1989 41.8098 16.8495 41.473 16.4303C41.229 16.0916 41.1012 15.6838 41.1086 15.2674C41.0984 14.9666 41.1548 14.6673 41.2738 14.3905C41.3927 14.1138 41.5714 13.8663 41.7972 13.6656C42.2562 13.2555 42.8534 13.0505 43.5887 13.0505C44.2788 13.0455 44.9539 13.25 45.5237 13.6368V14.9951C44.9131 14.4163 44.26 14.1264 43.5645 14.1253C43.2212 14.1108 42.8822 14.2057 42.597 14.396C42.4803 14.4708 42.3844 14.5735 42.3182 14.6947C42.252 14.8159 42.2175 14.9517 42.218 15.0896C42.2218 15.3499 42.321 15.5999 42.497 15.7928C42.7574 16.0693 43.0613 16.3019 43.3968 16.4816L44.3159 17.023C45.3415 17.6317 45.8548 18.4064 45.8559 19.3472C45.8671 19.6519 45.8122 19.9555 45.6951 20.2373C45.578 20.5192 45.4013 20.7728 45.177 20.981C44.6951 21.4107 44.0631 21.636 43.4161 21.6089C42.5954 21.6118 41.7969 21.3442 41.1457 20.8481V19.3312C41.7972 20.1502 42.5497 20.5592 43.4032 20.5581C43.7458 20.5678 44.0803 20.454 44.345 20.2378C44.4643 20.1449 44.5604 20.0258 44.6259 19.89C44.6913 19.7541 44.7243 19.6051 44.7223 19.4545C44.7223 18.9451 44.3525 18.4641 43.6129 18.0113Z" fill="white"/>
<path d="M49.8657 13.1082H50.7122L54.484 21.5128H53.252L52.1232 19.0364H48.5418L47.4904 21.5128H46.252L49.8657 13.1082ZM51.6395 17.9712L50.2833 14.9438L49.0239 17.9712H51.6395Z" fill="white"/>
<path d="M62.0906 13.1561H63.2339V21.5127H62.1986L56.5741 15.0767V21.5127H55.4453V13.1561H56.4209L62.0906 19.6514V13.1561Z" fill="white"/>
<path d="M68.4725 13.1561H69.677V21.4134C69.677 22.1823 69.598 22.7515 69.44 23.1209C69.2821 23.4877 69.014 23.797 68.6724 24.0067C68.2874 24.2363 67.8442 24.3514 67.3953 24.3383C67.2641 24.3331 67.1333 24.3209 67.0034 24.3015L66.7793 23.1754H67.0857C67.3561 23.1888 67.6264 23.1457 67.8791 23.0489C68.0706 22.956 68.2234 22.7996 68.3112 22.6068C68.4187 22.3932 68.4725 21.9447 68.4725 21.2612V13.1561Z" fill="white"/>
<path d="M77.3969 13.1561H78.6079V17.8991C78.6239 18.3879 78.5762 18.8768 78.466 19.3535C78.3886 19.6403 78.2708 19.9148 78.1161 20.1688C77.9768 20.3876 77.8056 20.5846 77.6081 20.7535C76.9405 21.3237 76.0692 21.6088 74.9942 21.6088C73.8977 21.6088 73.0183 21.3253 72.3561 20.7583C72.1592 20.587 71.9881 20.3885 71.8481 20.1688C71.6953 19.9197 71.5796 19.65 71.5046 19.3679C71.3995 18.8824 71.3561 18.3857 71.3756 17.8894V13.1561H72.5851V17.8991C72.5851 18.685 72.6754 19.2318 72.856 19.5393C73.0526 19.8603 73.3396 20.117 73.6816 20.2777C74.0891 20.4706 74.5365 20.5655 74.9877 20.5548C75.7021 20.5548 76.2858 20.3706 76.7341 19.999C76.9633 19.8112 77.1399 19.568 77.2469 19.2926C77.3544 19.0214 77.4082 18.5569 77.4082 17.8991L77.3969 13.1561Z" fill="white"/>
<path d="M82.6531 13.1082H83.4997L87.273 21.5128H86.0394L84.9107 19.0364H81.3292L80.2778 21.5128H79.041L82.6531 13.1082ZM84.4269 17.9712L83.0691 14.9438L81.8097 17.9712H84.4269Z" fill="white"/>
<path d="M94.88 13.1561H96.0249V21.5127H94.9896L89.3651 15.0767V21.5127H88.2363V13.1561H89.2119L94.88 19.6514V13.1561Z" fill="white"/>
<path d="M108.502 19.5747V20.8898C107.559 21.3836 106.505 21.6311 105.438 21.609C104.605 21.6348 103.78 21.4408 103.047 21.0467C102.4 20.6754 101.865 20.1382 101.499 19.4914C101.12 18.8433 100.922 18.1059 100.927 17.3562C100.915 16.7819 101.026 16.2117 101.252 15.6829C101.477 15.154 101.813 14.6784 102.236 14.2871C102.665 13.879 103.17 13.5591 103.724 13.3458C104.277 13.1325 104.868 13.03 105.461 13.0441C106.344 13.0441 107.325 13.2732 108.406 13.7313V15.0128C107.422 14.4543 106.46 14.175 105.521 14.175C105.08 14.1612 104.641 14.2342 104.23 14.3898C103.818 14.5454 103.441 14.7805 103.121 15.0816C102.81 15.3736 102.566 15.7277 102.403 16.1206C102.24 16.5135 102.163 16.9363 102.176 17.361C102.163 17.7826 102.24 18.2023 102.402 18.5922C102.564 18.9821 102.807 19.3333 103.116 19.6227C103.742 20.2122 104.543 20.5075 105.519 20.5085C106.584 20.493 107.621 20.1684 108.502 19.5747V19.5747Z" fill="white"/>
<path d="M114.108 13.0361C115.408 13.0361 116.49 13.4451 117.354 14.2631C117.775 14.656 118.108 15.1331 118.33 15.6629C118.553 16.1927 118.66 16.7632 118.644 17.337C118.659 17.9103 118.55 18.4802 118.324 19.008C118.098 19.5359 117.761 20.0093 117.335 20.3964C116.464 21.2048 115.364 21.609 114.035 21.609C112.767 21.609 111.711 21.2048 110.867 20.3964C110.452 20.0062 110.125 19.5334 109.906 19.009C109.688 18.4846 109.583 17.9203 109.599 17.353C109.606 16.1089 110.034 15.079 110.883 14.2631C111.732 13.4473 112.807 13.0383 114.108 13.0361ZM114.156 14.1734C113.189 14.1734 112.398 14.4724 111.783 15.0704C111.475 15.3664 111.233 15.7232 111.073 16.1177C110.913 16.5123 110.838 16.9358 110.852 17.361C110.842 17.7786 110.92 18.1938 111.08 18.58C111.24 18.9661 111.48 19.3147 111.784 19.6035C112.425 20.1825 113.26 20.5019 114.126 20.4987C114.992 20.4954 115.825 20.1697 116.461 19.5859C116.768 19.2915 117.01 18.9369 117.173 18.5445C117.335 18.1521 117.413 17.7305 117.402 17.3065C117.412 16.8881 117.333 16.4724 117.171 16.0861C117.009 15.6998 116.767 15.3517 116.461 15.064C116.156 14.7715 115.795 14.5422 115.4 14.3893C115.005 14.2364 114.583 14.163 114.16 14.1734H114.156Z" fill="white"/>
<path d="M120.137 13.1561H121.342V20.4235H125.13V21.5127H120.131L120.137 13.1561Z" fill="white"/>
<path d="M126.184 13.1561H127.387V20.4235H131.175V21.5127H126.176L126.184 13.1561Z" fill="white"/>
<path d="M132.229 13.1561H137.006V14.2213H133.433V16.7682H136.877V17.8398H133.433V20.4363H137.113V21.4999H132.229V13.1561Z" fill="white"/>
<path d="M142.943 17.3977H145.766V20.9329C144.796 21.3659 143.746 21.5944 142.683 21.604C141.285 21.604 140.172 21.1999 139.343 20.3915C138.938 20.0077 138.618 19.5443 138.403 19.0308C138.188 18.5172 138.083 17.9649 138.095 17.4089C138.08 16.8288 138.186 16.2518 138.409 15.715C138.631 15.1782 138.963 14.6934 139.385 14.2918C140.245 13.4632 141.327 13.0488 142.631 13.0488C143.086 13.0487 143.539 13.1025 143.981 13.209C144.532 13.354 145.071 13.5409 145.594 13.768V14.9886C144.693 14.4397 143.662 14.14 142.605 14.1204C142.175 14.1106 141.746 14.1884 141.347 14.349C140.947 14.5096 140.585 14.7496 140.282 15.0543C139.974 15.3512 139.732 15.7078 139.569 16.1019C139.407 16.4959 139.328 16.9191 139.337 17.3449C139.321 17.7769 139.398 18.2074 139.56 18.6083C139.723 19.0093 139.969 19.3718 140.282 19.6723C140.911 20.2746 141.722 20.5757 142.715 20.5757C143.305 20.5555 143.887 20.4442 144.442 20.2457L144.557 20.2105V18.4613H142.944L142.943 17.3977Z" fill="white"/>
<path d="M147.525 13.1561H152.294V14.2213H148.73V16.7682H152.174V17.8398H148.73V20.4363H152.408V21.4999H147.525V13.1561Z" fill="white"/>
<path d="M19.8245 4.68103H4.76172V19.6434H19.8245V4.68103Z" fill="#542F90"/>
<path d="M35.9635 4.68103H20.9023V19.6434H35.9635V4.68103Z" fill="#542F90"/>
<path d="M19.8245 20.7135H4.76172V35.6759H19.8245V20.7135Z" fill="#542F90"/>
<path d="M35.9635 20.7135H20.9023V35.6759H35.9635V20.7135Z" fill="#542F90"/>
<path d="M11.4967 9.37273C11.4967 10.9185 14.2864 12.3985 14.2864 14.7291C14.2912 16.4479 12.7561 17.5852 12.7561 17.5852H11.0823C11.0823 17.5852 13.0931 16.4639 13.0931 14.7291C13.0931 12.9944 10.3034 11.4471 10.3034 9.39996C10.2922 8.86847 10.4213 8.34332 10.6779 7.87681C10.9345 7.41029 11.3096 7.01868 11.766 6.74097H13.485C13.485 6.74097 11.4967 7.64919 11.4967 9.37273Z" fill="#FFDA02"/>
<path d="M35.7636 28.3012L32.474 28.0674C32.474 27.9921 32.4627 27.9072 32.453 27.8399L35.6781 26.8388L32.3515 27.2681C32.3305 27.1944 32.3111 27.1207 32.2886 27.0486L35.8781 25.2002L32.0676 26.5152C32.0338 26.4464 32.0015 26.3759 31.9628 26.3086L33.5238 24.8782L31.6484 25.8393C31.5871 25.7576 31.5242 25.6791 31.4581 25.6038L33.8414 22.7766L31.0485 25.197C30.9905 25.1473 30.9324 25.0992 30.8711 25.0528L32.1015 22.6949L30.3858 24.7244C30.3196 24.6876 30.2535 24.6507 30.1858 24.6171L31.4952 20.8833L29.6504 24.3912C29.5795 24.3672 29.5069 24.3432 29.4344 24.3224L29.7891 21.3366L28.8684 24.2038C28.77 24.191 28.67 24.1798 28.57 24.1734L28.3104 21.013L27.9879 24.1734C27.9121 24.1734 27.8363 24.183 27.7605 24.1926L27.0526 21.9389L27.1945 24.3031C27.1204 24.3224 27.0462 24.34 26.9752 24.364L25.5336 21.5577L26.4383 24.5819C26.3705 24.6139 26.3012 24.6459 26.2367 24.6828L24.1001 21.8748L25.7513 24.9983C25.6707 25.0576 25.5901 25.1185 25.5191 25.1825L22.1505 22.1663L25.1063 25.591C25.0563 25.6471 25.0079 25.7047 24.9628 25.7624L22.3182 24.2887L24.6371 26.2397C24.5984 26.3038 24.5613 26.3695 24.5274 26.4367L21.9231 25.6246L24.3 26.9653C24.2758 27.0374 24.2517 27.1079 24.2307 27.18L21.0266 26.6994L24.1098 27.7486C24.0952 27.8479 24.084 27.9456 24.0775 28.0466L21.362 28.3012L24.0775 28.6216C24.0775 28.6969 24.0872 28.7722 24.0952 28.8475L21.0233 29.6996L24.2049 29.4113C24.2242 29.485 24.2436 29.5587 24.2662 29.6291L21.0137 31.2405L24.4839 30.1625C24.5177 30.2314 24.55 30.3019 24.5855 30.3676L22.7407 31.8845L24.9015 30.8465C24.9628 30.9266 25.0241 31.0067 25.0902 31.082L23.3615 33.1643L25.4965 31.4824C25.5546 31.5337 25.6126 31.5817 25.6739 31.6298L23.5954 35.2787L26.1528 31.955C26.219 31.9934 26.2867 32.0302 26.3544 32.0655L25.4949 34.8366L26.8849 32.2913C26.9575 32.3154 27.0301 32.341 27.1059 32.3618L26.8156 35.2643L27.6751 32.4803C27.7767 32.4948 27.8766 32.5076 27.9799 32.514L28.3104 35.6695L28.5507 32.5236C28.6281 32.5236 28.7055 32.5172 28.7829 32.5044L29.6569 34.9407L29.3473 32.3954C29.4231 32.3762 29.4973 32.357 29.5714 32.333L31.1259 35.2675L30.1052 32.1183C30.1761 32.0847 30.2455 32.0511 30.3132 32.0142L32.366 34.5387L30.7954 31.7003C30.8776 31.6394 30.9566 31.5769 31.034 31.5113L34.5477 34.4874L31.4452 31.1044C31.4952 31.0467 31.5452 30.9875 31.5919 30.9282L34.2591 32.2993L31.9145 30.4541C31.9548 30.3868 31.9919 30.3195 32.0273 30.2506L34.9734 31.1028L32.2531 29.7236C32.2789 29.65 32.3031 29.5763 32.324 29.501L34.609 29.6339L32.4418 28.942C32.4563 28.8427 32.4676 28.7417 32.474 28.6408L35.7636 28.3012Z" fill="url(#paint0_radial_108_51)"/>
<path d="M32.5134 28.3461C32.5121 29.1768 32.2631 29.9885 31.7977 30.6787C31.3324 31.3689 30.6715 31.9066 29.8987 32.224C29.1259 32.5414 28.2758 32.6241 27.4556 32.4619C26.6355 32.2996 25.8821 31.8996 25.2907 31.3123C24.6992 30.7251 24.2963 29.9769 24.1326 29.1623C23.9689 28.3476 24.052 27.5031 24.3712 26.7353C24.6904 25.9675 25.2315 25.3109 25.9261 24.8484C26.6207 24.3859 27.4378 24.1382 28.274 24.1366C28.8309 24.1355 29.3825 24.2437 29.8972 24.4549C30.412 24.666 30.8797 24.976 31.2735 25.3671C31.6674 25.7582 31.9796 26.2226 32.1924 26.7339C32.4052 27.2451 32.5142 27.793 32.5134 28.3461Z" fill="url(#paint1_radial_108_51)"/>
<path d="M26.7864 16.3966C28.2377 16.3198 28.8827 16.1323 28.8827 14.074V6.73938H30.076V14.074C30.076 16.0442 29.5729 17.5163 26.7832 17.5852L26.7864 16.3966Z" fill="#FFDA02"/>
<path d="M13.9026 32.4113C13.8462 32.4113 13.7898 32.4194 13.7317 32.4194C12.2804 32.4194 11.1081 30.5292 11.1081 28.1954C11.1081 25.8616 12.282 23.9763 13.7317 23.9763C13.7915 23.9762 13.8512 23.9794 13.9107 23.9859L14.717 22.9367C14.4045 22.8202 14.0735 22.7605 13.7398 22.7605C11.6144 22.7605 9.89062 25.1952 9.89062 28.2066C9.89062 31.218 11.6144 33.6527 13.7398 33.6527C14.0703 33.6516 14.3979 33.5919 14.7073 33.4765L13.9026 32.4113Z" fill="#FFDA02"/>
<line opacity="0.8" x1="164.001" y1="7.67139" x2="164.001" y2="32.2868" stroke="white" stroke-width="0.615385"/>
<path d="M177.025 21.2174C176.373 21.2174 175.773 21.1047 175.225 20.8792C174.678 20.6457 174.207 20.3275 173.812 19.9249C173.425 19.5222 173.119 19.0471 172.894 18.4994C172.676 17.9518 172.568 17.3599 172.568 16.7237C172.568 16.0875 172.676 15.4955 172.894 14.9479C173.119 14.4003 173.425 13.9251 173.812 13.5225C174.207 13.1198 174.678 12.8057 175.225 12.5802C175.773 12.3467 176.373 12.2299 177.025 12.2299C177.678 12.2299 178.278 12.3467 178.825 12.5802C179.373 12.8057 179.84 13.1198 180.226 13.5225C180.621 13.9251 180.927 14.4003 181.145 14.9479C181.37 15.4955 181.483 16.0875 181.483 16.7237C181.483 17.3599 181.37 17.9518 181.145 18.4994C180.927 19.0471 180.621 19.5222 180.226 19.9249C179.84 20.3275 179.373 20.6457 178.825 20.8792C178.278 21.1047 177.678 21.2174 177.025 21.2174ZM177.025 20.1302C177.517 20.1302 177.959 20.0417 178.354 19.8645C178.749 19.6793 179.087 19.4336 179.369 19.1276C179.651 18.8216 179.868 18.4632 180.021 18.0525C180.174 17.6337 180.251 17.1908 180.251 16.7237C180.251 16.2566 180.174 15.8177 180.021 15.407C179.868 14.9882 179.651 14.6258 179.369 14.3198C179.087 14.0137 178.749 13.7721 178.354 13.595C177.959 13.4097 177.517 13.3171 177.025 13.3171C176.534 13.3171 176.091 13.4097 175.696 13.595C175.302 13.7721 174.964 14.0137 174.682 14.3198C174.4 14.6258 174.182 14.9882 174.029 15.407C173.876 15.8177 173.8 16.2566 173.8 16.7237C173.8 17.1908 173.876 17.6337 174.029 18.0525C174.182 18.4632 174.4 18.8216 174.682 19.1276C174.964 19.4336 175.302 19.6793 175.696 19.8645C176.091 20.0417 176.534 20.1302 177.025 20.1302ZM183.754 12.4474H186.762C187.31 12.4474 187.761 12.5239 188.115 12.6769C188.469 12.8218 188.747 13.0111 188.949 13.2446C189.158 13.4701 189.303 13.7278 189.383 14.0178C189.464 14.2996 189.504 14.5734 189.504 14.8392C189.504 15.113 189.456 15.3788 189.359 15.6365C189.263 15.8861 189.122 16.1157 188.937 16.325C188.759 16.5264 188.538 16.6995 188.272 16.8445C188.014 16.9814 187.725 17.0659 187.402 17.0982L189.83 21H188.381L186.206 17.231H184.914V21H183.754V12.4474ZM184.914 16.2163H186.436C186.661 16.2163 186.883 16.2002 187.1 16.168C187.326 16.1277 187.523 16.0593 187.692 15.9626C187.869 15.866 188.01 15.7291 188.115 15.5519C188.22 15.3667 188.272 15.1291 188.272 14.8392C188.272 14.5493 188.22 14.3157 188.115 14.1386C188.01 13.9533 187.869 13.8124 187.692 13.7158C187.523 13.6191 187.326 13.5547 187.1 13.5225C186.883 13.4822 186.661 13.4621 186.436 13.4621H184.914V16.2163ZM191.743 12.4474H192.903V21H191.743V12.4474ZM202.993 16.2163V20.4322C202.784 20.5611 202.546 20.6738 202.281 20.7705C202.015 20.8671 201.737 20.9477 201.447 21.0121C201.165 21.0846 200.875 21.1369 200.577 21.1691C200.287 21.2013 200.014 21.2174 199.756 21.2174C199.031 21.2174 198.383 21.0966 197.811 20.855C197.247 20.6134 196.768 20.2873 196.374 19.8766C195.987 19.4658 195.689 18.9907 195.48 18.4511C195.278 17.9035 195.178 17.3277 195.178 16.7237C195.178 16.0875 195.286 15.4955 195.504 14.9479C195.729 14.4003 196.035 13.9251 196.422 13.5225C196.817 13.1198 197.288 12.8057 197.835 12.5802C198.383 12.3467 198.983 12.2299 199.635 12.2299C200.424 12.2299 201.069 12.3306 201.568 12.5319C202.067 12.7252 202.486 12.995 202.824 13.3413L202.003 14.2231C201.649 13.8849 201.274 13.6513 200.879 13.5225C200.485 13.3856 200.07 13.3171 199.635 13.3171C199.144 13.3171 198.701 13.4097 198.306 13.595C197.912 13.7721 197.574 14.0137 197.292 14.3198C197.01 14.6258 196.792 14.9882 196.639 15.407C196.486 15.8177 196.41 16.2566 196.41 16.7237C196.41 17.2069 196.494 17.6579 196.663 18.0766C196.833 18.4874 197.066 18.8457 197.364 19.1518C197.662 19.4578 198.012 19.6994 198.415 19.8766C198.818 20.0457 199.257 20.1302 199.732 20.1302C200.143 20.1302 200.529 20.094 200.891 20.0215C201.262 19.941 201.576 19.8282 201.834 19.6833V17.3035H199.937V16.2163H202.993ZM205.715 12.4474H206.875V21H205.715V12.4474ZM209.681 12.4474H211.203L215.915 19.4779H215.939V12.4474H217.099V21H215.625L210.865 13.9694H210.841V21H209.681V12.4474ZM222.582 12.4474H223.633L227.293 21H225.94L225.082 18.886H221.011L220.166 21H218.813L222.582 12.4474ZM224.659 17.8713L223.065 13.9453H223.041L221.422 17.8713H224.659ZM229.009 12.4474H230.169V19.9128H234.095V21H229.009V12.4474Z" fill="white"/>
<rect x="0.651282" y="0.651282" width="239.697" height="38.6974" rx="1.81026" stroke="white" stroke-width="1.30256"/>
<defs>
<radialGradient id="paint0_radial_108_51" cx="0" cy="0" r="1" gradientUnits="userSpaceOnUse" gradientTransform="translate(29.3919 28.7157) scale(13.2187 13.1307)">
<stop offset="0.33" stop-color="#FFDA02"/>
<stop offset="0.61" stop-color="#FAAB11"/>
<stop offset="0.89" stop-color="#F47721"/>
</radialGradient>
<radialGradient id="paint1_radial_108_51" cx="0" cy="0" r="1" gradientUnits="userSpaceOnUse" gradientTransform="translate(29.1407 28.8603) scale(7.52541 7.47529)">
<stop stop-color="#FFDA02"/>
<stop offset="0.17" stop-color="#FFD703"/>
<stop offset="0.31" stop-color="#FECD06"/>
<stop offset="0.43" stop-color="#FCBC0B"/>
<stop offset="0.55" stop-color="#F9A413"/>
<stop offset="0.66" stop-color="#F6861C"/>
<stop offset="0.71" stop-color="#F47721"/>
</radialGradient>
</defs>
</svg>
