<svg width="24" height="18" viewBox="0 0 24 18" fill="none" xmlns="http://www.w3.org/2000/svg">
<path d="M23.4952 3.20044C23.3562 2.7022 23.091 2.24826 22.7252 1.88249C22.3594 1.51672 21.9055 1.25149 21.4072 1.11244C19.5372 0.612441 12.0072 0.612441 12.0072 0.612441C12.0072 0.612441 4.50023 0.602441 2.60723 1.11244C2.10955 1.25194 1.65623 1.51737 1.29101 1.88311C0.925794 2.24885 0.661018 2.70256 0.522235 3.20044C0.167445 5.11659 -0.00731663 7.06173 0.000234594 9.01044C-0.00563627 10.9501 0.169118 12.8862 0.522235 14.7934C0.661285 15.2917 0.926514 15.7456 1.29228 16.1114C1.65805 16.4772 2.112 16.7424 2.61023 16.8814C4.47823 17.3814 12.0102 17.3814 12.0102 17.3814C12.0102 17.3814 19.5162 17.3814 21.4102 16.8814C21.9079 16.7419 22.3612 16.4765 22.7265 16.1108C23.0917 15.745 23.3565 15.2913 23.4952 14.7934C23.8409 12.8855 24.0083 10.9494 23.9952 9.01044C24.01 7.06242 23.8426 5.11729 23.4952 3.20044ZM9.60423 12.6004V5.40844L15.8682 9.00844L9.60423 12.6004Z" fill="white"/>
</svg>
