<svg width="21" height="22" viewBox="0 0 21 22" fill="none" xmlns="http://www.w3.org/2000/svg">
<g clip-path="url(#clip0_13:16)">
<path d="M17.8911 18.3955H14.7814V13.5226C14.7814 12.3606 14.7578 10.8652 13.1609 10.8652C11.5395 10.8652 11.2919 12.1296 11.2919 13.4369V18.3955H8.18213V8.375H11.1694V9.74088H11.2096C11.5089 9.22974 11.9412 8.80929 12.4604 8.52425C12.9797 8.23922 13.5665 8.10025 14.1584 8.12213C17.3084 8.12213 17.892 10.1959 17.892 12.8953V18.3955H17.8911ZM4.66988 7.00388C4.25247 7.00268 3.84838 6.8568 3.52647 6.59108C3.20456 6.32536 2.98474 5.95625 2.90446 5.54663C2.82419 5.13702 2.88842 4.71223 3.08621 4.34466C3.28401 3.97709 3.60313 3.68947 3.98921 3.53081C4.37529 3.37215 4.80444 3.35226 5.20355 3.47453C5.60265 3.5968 5.94701 3.85366 6.17795 4.20136C6.4089 4.54906 6.51215 4.96608 6.47011 5.38137C6.42806 5.79666 6.24333 6.18452 5.94737 6.47888C5.60792 6.81623 5.14845 7.00505 4.66988 7.00388ZM6.22913 18.3955H3.11063V8.375H6.22913V18.3955ZM19.4469 0.500001H1.54963C1.34853 0.497573 1.14894 0.534781 0.962225 0.609499C0.775516 0.684217 0.605353 0.794982 0.461454 0.935468C0.317555 1.07595 0.202739 1.24341 0.123562 1.42827C0.0443852 1.61314 0.00239861 1.81178 0 2.01288L0 19.9871C0.00228395 20.1882 0.0441926 20.387 0.123329 20.5719C0.202466 20.7568 0.317278 20.9243 0.4612 21.0648C0.605123 21.2053 0.775331 21.3161 0.962092 21.3907C1.14885 21.4654 1.3485 21.5025 1.54963 21.5H19.4443C19.851 21.5051 20.2432 21.3488 20.5349 21.0652C20.8265 20.7816 20.9938 20.3939 21 19.9871V2.01288C20.9938 1.60612 20.8265 1.21844 20.5349 0.934836C20.2432 0.651232 19.851 0.494857 19.4443 0.500001H19.4469Z" fill="white"/>
</g>
<defs>
<clipPath id="clip0_13:16">
<rect width="21" height="21" fill="white" transform="translate(0 0.5)"/>
</clipPath>
</defs>
</svg>
