<svg width="20" height="20" viewBox="0 0 20 20" fill="none" xmlns="http://www.w3.org/2000/svg">
<path d="M10 0C7.28333 0 6.94417 0.0125 5.8775 0.06C5.04794 0.0773242 4.22724 0.234532 3.45 0.525C2.78251 0.77586 2.17787 1.16948 1.67833 1.67833C1.16904 2.17751 0.775352 2.78226 0.525 3.45C0.23413 4.22713 0.0769093 5.04789 0.06 5.8775C0.01 6.94417 0 7.28333 0 10C0 12.7167 0.0125 13.0558 0.06 14.1225C0.0774037 14.9521 0.234609 15.7727 0.525 16.55C0.776077 17.2174 1.16966 17.822 1.67833 18.3217C2.17773 18.8307 2.78241 19.2243 3.45 19.475C4.22729 19.7653 5.04795 19.9225 5.8775 19.94C6.94417 19.99 7.28333 20 10 20C12.7167 20 13.0558 19.9875 14.1225 19.94C14.952 19.9222 15.7726 19.765 16.55 19.475C17.2145 19.2182 17.8179 18.8254 18.3216 18.3216C18.8254 17.8179 19.2182 17.2145 19.475 16.55C19.7654 15.7727 19.9226 14.9521 19.94 14.1225C19.99 13.0558 20 12.7167 20 10C20 7.28333 19.9875 6.94417 19.94 5.8775C19.9223 5.04798 19.7651 4.22735 19.475 3.45C19.2238 2.78268 18.8302 2.17811 18.3217 1.67833C17.8226 1.16887 17.2178 0.775158 16.55 0.525C15.7728 0.234208 14.9521 0.0769893 14.1225 0.06C13.0558 0.01 12.7167 0 10 0ZM10 1.8C12.6667 1.8 12.9875 1.81333 14.0417 1.85917C14.6756 1.86681 15.3034 1.9838 15.8975 2.205C16.3295 2.37013 16.7218 2.62447 17.0489 2.95142C17.376 3.27836 17.6305 3.67058 17.7958 4.1025C18.0162 4.69677 18.1327 5.32455 18.14 5.95833C18.1875 7.01333 18.1983 7.33 18.1983 10C18.1983 12.67 18.1858 12.9875 18.1367 14.0417C18.1251 14.6756 18.0065 15.3031 17.7858 15.8975C17.6229 16.3315 17.3669 16.7246 17.0358 17.0492C16.7129 17.3815 16.3201 17.6377 15.8858 17.7992C15.2892 18.0195 14.6593 18.1359 14.0233 18.1433C12.9617 18.1908 12.6492 18.2017 9.97417 18.2017C7.29917 18.2017 6.98583 18.1892 5.925 18.14C5.28859 18.1285 4.65867 18.0099 4.06167 17.7892C3.62734 17.6283 3.23465 17.372 2.9125 17.0392C2.57798 16.7181 2.32143 16.3247 2.1625 15.8892C1.94227 15.2923 1.82395 14.6627 1.8125 14.0267C1.775 12.9767 1.76167 12.6525 1.76167 9.99C1.76167 7.3275 1.775 7.00167 1.8125 5.93917C1.82494 5.30229 1.94467 4.67207 2.16667 4.075C2.32311 3.63795 2.58 3.24376 2.91667 2.92417C3.23562 2.58753 3.62927 2.33061 4.06583 2.17417C4.6583 1.95289 5.2843 1.83479 5.91667 1.825C6.97917 1.7875 7.29167 1.775 9.96583 1.775L10 1.8ZM10 4.865C8.98439 4.865 7.99159 5.16616 7.14715 5.7304C6.3027 6.29464 5.64453 7.09662 5.25588 8.03492C4.86722 8.97322 4.76553 10.0057 4.96367 11.0018C5.1618 11.9979 5.65086 12.9128 6.36901 13.631C7.08715 14.3491 8.00212 14.8382 8.99821 15.0363C9.9943 15.2345 11.0268 15.1328 11.9651 14.7441C12.9034 14.3555 13.7054 13.6973 14.2696 12.8529C14.8338 12.0084 15.135 11.0156 15.135 10C15.135 8.63811 14.594 7.33201 13.631 6.36901C12.668 5.40601 11.3619 4.865 10 4.865ZM10 13.3333C9.34073 13.3333 8.69626 13.1378 8.1481 12.7716C7.59994 12.4053 7.17269 11.8847 6.9204 11.2756C6.66811 10.6665 6.6021 9.9963 6.73072 9.3497C6.85933 8.7031 7.1768 8.10915 7.64298 7.64298C8.10915 7.1768 8.7031 6.85933 9.3497 6.73072C9.9963 6.6021 10.6665 6.66811 11.2756 6.9204C11.8847 7.17269 12.4053 7.59994 12.7716 8.1481C13.1378 8.69626 13.3333 9.34073 13.3333 10C13.3333 10.8841 12.9821 11.7319 12.357 12.357C11.7319 12.9821 10.8841 13.3333 10 13.3333ZM16.5383 4.6625C16.5385 4.89987 16.4683 5.13196 16.3365 5.32941C16.2047 5.52686 16.0174 5.6808 15.7981 5.77175C15.5789 5.8627 15.3376 5.88658 15.1047 5.84038C14.8719 5.79417 14.658 5.67995 14.4901 5.51216C14.3222 5.34437 14.2078 5.13055 14.1615 4.89775C14.1151 4.66495 14.1388 4.42363 14.2296 4.20431C14.3204 3.98499 14.4742 3.79752 14.6716 3.66563C14.8689 3.53373 15.101 3.46333 15.3383 3.46333C15.6564 3.46355 15.9614 3.58994 16.1863 3.81475C16.4113 4.03957 16.5379 4.34445 16.5383 4.6625Z" fill="white"/>
</svg>
