<svg id="Satisfied" xmlns="http://www.w3.org/2000/svg" width="24" height="24" viewBox="0 0 24 24">
  <path id="Path_222" data-name="Path 222" d="M0,0H24V24H0Z" fill="none"/>
  <circle id="Ellipse_11" data-name="Ellipse 11" cx="1.5" cy="1.5" r="1.5" transform="translate(14 8)" fill="#532a6e"/>
  <circle id="Ellipse_12" data-name="Ellipse 12" cx="1.5" cy="1.5" r="1.5" transform="translate(7 8)" fill="#532a6e"/>
  <path id="Path_223" data-name="Path 223" d="M11.99,2A10,10,0,1,0,22,12,10,10,0,0,0,11.99,2ZM12,20a8,8,0,1,1,8-8A8,8,0,0,1,12,20Zm0-4a3.8,3.8,0,0,1-1.96-.52c-.12.14-.86.98-1.01,1.15a5.5,5.5,0,0,0,5.95-.01c-.97-1.09-.01-.02-1.01-1.15A3.775,3.775,0,0,1,12,16Z" fill="#532a6e"/>
</svg>
