<svg id="Schedule" xmlns="http://www.w3.org/2000/svg" width="18.533" height="18.533" viewBox="0 0 18.533 18.533">
  <path id="Path_5153" data-name="Path 5153" d="M0,0H18.533V18.533H0Z" fill="none"/>
  <path id="Path_5154" data-name="Path 5154" d="M15.356,2.544h-.772V1H13.039V2.544H6.861V1H5.317V2.544H4.544A1.544,1.544,0,0,0,3,4.089V14.9a1.544,1.544,0,0,0,1.544,1.544H15.356A1.549,1.549,0,0,0,16.9,14.9V4.089A1.549,1.549,0,0,0,15.356,2.544Zm0,12.356H4.544V7.178H15.356Zm0-9.267H4.544V4.089H15.356ZM6.089,8.722H9.95v3.861H6.089Z" transform="translate(-0.683 -0.228)" fill="#656565"/>
</svg>
