<svg xmlns="http://www.w3.org/2000/svg" width="18" height="18" viewBox="0 0 18 18">
  <g id="Group_1599" data-name="Group 1599" transform="translate(0 0)">
    <g id="Group_1538" data-name="Group 1538" transform="translate(0 0)">
      <path id="Shape_Copy_2" data-name="Shape Copy 2" d="M14.032,18a1.411,1.411,0,0,1-.836-.332l-3.5-2.58a1.35,1.35,0,0,0-1.389,0L4.8,17.669c-.62.458-1.213.414-1.519-.021a1.355,1.355,0,0,1-.086-1.2l1.265-4.282a1.455,1.455,0,0,0-.431-1.382L.6,8.095C-.069,7.568-.038,7.066.041,6.812s.336-.678,1.175-.691L5.5,6.057A1.367,1.367,0,0,0,6.628,5.2L8.008.957C8.28.124,8.746,0,9,0s.72.124.99.956L11.376,5.2a1.36,1.36,0,0,0,1.124.857l4.283.065c.84.013,1.1.438,1.177.69s.112.753-.558,1.283l-3.434,2.69a1.455,1.455,0,0,0-.428,1.382L14.8,16.451a1.354,1.354,0,0,1-.087,1.2A.832.832,0,0,1,14.032,18Z" transform="translate(0 0)" fill="#532a6e"/>
    </g>
  </g>
</svg>
