<svg xmlns="http://www.w3.org/2000/svg" width="16.749" height="17.501" viewBox="0 0 16.749 17.501">
  <g id="Topics" transform="translate(1.749)">
    <path id="Subtraction_1" data-name="Subtraction 1" d="M1200-9688.5v-11.251a1.251,1.251,0,0,1,1.249-1.25h.75v5.75a1.251,1.251,0,0,0,1.249,1.249H1212l.5.5v1.252a1.251,1.251,0,0,1-1.249,1.249h-8.75l-2.5,2.5Z" transform="translate(-1201.75 9706)" fill="#532a6e"/>
    <path id="Path_5382" data-name="Path 5382" d="M0,0H15V15H0Z" fill="none"/>
    <path id="Path_5381" data-name="Path 5381" d="M3.25,2h10A1.254,1.254,0,0,1,14.5,3.25V14.5L12,12H3.25A1.254,1.254,0,0,1,2,10.75V3.25A1.254,1.254,0,0,1,3.25,2Z" transform="translate(-0.75 -1)" fill="#532a6e"/>
  </g>
</svg>
