<svg xmlns="http://www.w3.org/2000/svg" width="18.333" height="14.896" viewBox="0 0 18.333 14.896">
  <path id="Twitter" d="M18.333,49.763a7.836,7.836,0,0,1-2.166.594,3.737,3.737,0,0,0,1.653-2.077,7.511,7.511,0,0,1-2.383.91,3.758,3.758,0,0,0-6.5,2.57,3.87,3.87,0,0,0,.087.857,10.638,10.638,0,0,1-7.747-3.931,3.759,3.759,0,0,0,1.155,5.023,3.712,3.712,0,0,1-1.7-.463v.041A3.776,3.776,0,0,0,3.745,56.98a3.751,3.751,0,0,1-.985.124,3.323,3.323,0,0,1-.712-.064A3.794,3.794,0,0,0,5.56,59.658a7.552,7.552,0,0,1-4.66,1.6,7.04,7.04,0,0,1-.9-.052A10.581,10.581,0,0,0,5.766,62.9a10.624,10.624,0,0,0,10.7-10.7c0-.166-.006-.327-.014-.486A7.5,7.5,0,0,0,18.333,49.763Z" transform="translate(0 -48)" fill="#532a6e"/>
</svg>
