<svg xmlns="http://www.w3.org/2000/svg" width="15.1" height="12.269" viewBox="0 0 15.1 12.269">
  <path id="Twitter_Blue" data-name="Twitter Blue" d="M15.1,49.452a6.454,6.454,0,0,1-1.784.489,3.078,3.078,0,0,0,1.362-1.711,6.186,6.186,0,0,1-1.963.749A3.1,3.1,0,0,0,7.36,51.1a3.188,3.188,0,0,0,.072.706,8.762,8.762,0,0,1-6.381-3.238A3.1,3.1,0,0,0,2,52.7,3.057,3.057,0,0,1,.6,52.32v.034A3.11,3.11,0,0,0,3.084,55.4a3.09,3.09,0,0,1-.812.1,2.737,2.737,0,0,1-.586-.053A3.125,3.125,0,0,0,4.579,57.6a6.22,6.22,0,0,1-3.838,1.32A5.8,5.8,0,0,1,0,58.88a8.715,8.715,0,0,0,4.749,1.389A8.75,8.75,0,0,0,13.56,51.46c0-.137,0-.269-.011-.4A6.176,6.176,0,0,0,15.1,49.452Z" transform="translate(0 -48)" fill="#007bff"/>
</svg>
