<svg xmlns="http://www.w3.org/2000/svg" width="15.4" height="12.513" viewBox="0 0 15.4 12.513">
  <g id="Twitter" transform="translate(0 0.244)">
    <path id="Path_5475" data-name="Path 5475" d="M15.4,49.481a6.583,6.583,0,0,1-1.819.5,3.139,3.139,0,0,0,1.389-1.745,6.31,6.31,0,0,1-2,.764,3.157,3.157,0,0,0-5.461,2.159,3.251,3.251,0,0,0,.073.72,8.937,8.937,0,0,1-6.508-3.3,3.158,3.158,0,0,0,.97,4.22,3.118,3.118,0,0,1-1.426-.389v.035a3.172,3.172,0,0,0,2.53,3.1,3.151,3.151,0,0,1-.828.1,2.792,2.792,0,0,1-.6-.054,3.187,3.187,0,0,0,2.95,2.2A6.344,6.344,0,0,1,.756,59.139,5.913,5.913,0,0,1,0,59.1a8.888,8.888,0,0,0,4.843,1.417,8.924,8.924,0,0,0,8.986-8.984c0-.14,0-.274-.012-.408A6.3,6.3,0,0,0,15.4,49.481Z" transform="translate(0 -48.244)" fill="#fff"/>
  </g>
</svg>
