<svg xmlns="http://www.w3.org/2000/svg" xmlns:xlink="http://www.w3.org/1999/xlink" width="55" height="55" viewBox="0 0 55 55">
  <defs>
    <filter id="Ellipse_53" x="0" y="0" width="55" height="55" filterUnits="userSpaceOnUse">
      <feOffset dy="3" input="SourceAlpha"/>
      <feGaussianBlur stdDeviation="3" result="blur"/>
      <feFlood flood-opacity="0.02"/>
      <feComposite operator="in" in2="blur"/>
      <feComposite in="SourceGraphic"/>
    </filter>
  </defs>
  <g id="Twitter_Share" data-name="Twitter Share" transform="translate(-36 -812)">
    <g transform="matrix(1, 0, 0, 1, 36, 812)" filter="url(#Ellipse_53)">
      <g id="Ellipse_53-2" data-name="Ellipse 53" transform="translate(9 6)" fill="#fff" stroke="#532a6e" stroke-width="1">
        <circle cx="18.5" cy="18.5" r="18.5" stroke="none"/>
        <circle cx="18.5" cy="18.5" r="18" fill="none"/>
      </g>
    </g>
    <g id="twitter" transform="translate(54 781.305)">
      <g id="Group_2845" data-name="Group 2845" transform="translate(0 48)">
        <path id="Path_5160" data-name="Path 5160" d="M18.333,49.763a7.836,7.836,0,0,1-2.166.594,3.737,3.737,0,0,0,1.653-2.077,7.511,7.511,0,0,1-2.383.91,3.758,3.758,0,0,0-6.5,2.57,3.87,3.87,0,0,0,.087.857,10.638,10.638,0,0,1-7.747-3.931,3.759,3.759,0,0,0,1.155,5.023,3.712,3.712,0,0,1-1.7-.463v.041A3.776,3.776,0,0,0,3.745,56.98a3.751,3.751,0,0,1-.985.124,3.323,3.323,0,0,1-.712-.064A3.794,3.794,0,0,0,5.56,59.658a7.552,7.552,0,0,1-4.66,1.6,7.04,7.04,0,0,1-.9-.052A10.581,10.581,0,0,0,5.766,62.9a10.624,10.624,0,0,0,10.7-10.7c0-.166-.006-.327-.014-.486A7.5,7.5,0,0,0,18.333,49.763Z" transform="translate(0 -48)" fill="#532a6e"/>
      </g>
    </g>
  </g>
</svg>
