<svg id="Logo" xmlns="http://www.w3.org/2000/svg" width="105.306" height="24.324" viewBox="0 0 105.306 24.324">
  <path id="Path_193" data-name="Path 193" d="M429.855,315.528h3.138a.58.58,0,0,1,.58.58v1.39h.06a3.624,3.624,0,0,1,.6-.836,4.355,4.355,0,0,1,.925-.746,5.3,5.3,0,0,1,1.224-.537,5.116,5.116,0,0,1,1.492-.209,6.17,6.17,0,0,1,2.746.522,3.973,3.973,0,0,1,1.627,1.447,5.864,5.864,0,0,1,.791,2.179,16.6,16.6,0,0,1,.209,2.716v7.419a.58.58,0,0,1-.58.58h-3.317a.58.58,0,0,1-.58-.58V322.93q0-.627-.045-1.3a4.1,4.1,0,0,0-.269-1.239,1.925,1.925,0,0,0-2.015-1.283,2.766,2.766,0,0,0-1.4.313,2.137,2.137,0,0,0-.821.836,3.41,3.41,0,0,0-.373,1.179,10.155,10.155,0,0,0-.089,1.373v6.643a.58.58,0,0,1-.58.58h-3.317a.58.58,0,0,1-.58-.58V316.108A.58.58,0,0,1,429.855,315.528Z" transform="translate(-406.951 -306.067)" fill="#232323"/>
  <path id="Path_194" data-name="Path 194" d="M662.153,315.528h3.1a.58.58,0,0,1,.58.58v1.39h.06a3.622,3.622,0,0,1,.6-.836,4.353,4.353,0,0,1,.925-.746,5.3,5.3,0,0,1,1.224-.537,5.115,5.115,0,0,1,1.492-.209,5.666,5.666,0,0,1,2.7.627,3.971,3.971,0,0,1,1.776,1.97,4.839,4.839,0,0,1,1.88-2,5.652,5.652,0,0,1,2.716-.6,5.542,5.542,0,0,1,2.462.492,4.03,4.03,0,0,1,1.582,1.343,5.666,5.666,0,0,1,.836,2,11.424,11.424,0,0,1,.254,2.462v7.986a.58.58,0,0,1-.58.58h-3.317a.58.58,0,0,1-.58-.58v-7.866a3.371,3.371,0,0,0-.433-1.746,1.637,1.637,0,0,0-1.537-.731,2.965,2.965,0,0,0-1.3.254,2.142,2.142,0,0,0-.836.7,2.918,2.918,0,0,0-.448,1.045,5.7,5.7,0,0,0-.134,1.254v7.09a.58.58,0,0,1-.58.58h-3.317a.58.58,0,0,1-.58-.58v-7.09q0-.388-.03-.955a3.814,3.814,0,0,0-.209-1.075,2.056,2.056,0,0,0-.582-.866,1.722,1.722,0,0,0-1.179-.358,2.765,2.765,0,0,0-1.4.313,2.137,2.137,0,0,0-.821.836,3.41,3.41,0,0,0-.373,1.179,10.15,10.15,0,0,0-.09,1.373v6.643a.58.58,0,0,1-.58.58h-3.317a.58.58,0,0,1-.58-.58v-13.3A.621.621,0,0,1,662.153,315.528Z" transform="translate(-622.223 -306.067)" fill="#232323"/>
  <path id="Path_195" data-name="Path 195" d="M1027.985,334.572h-3.138a.58.58,0,0,1-.58-.58V332.6h-.06a4.962,4.962,0,0,1-.612.836,4.013,4.013,0,0,1-.91.746,5.3,5.3,0,0,1-1.224.537,5.119,5.119,0,0,1-1.492.209,6.272,6.272,0,0,1-2.761-.522,3.947,3.947,0,0,1-1.641-1.448,5.673,5.673,0,0,1-.776-2.179,17.755,17.755,0,0,1-.194-2.716v-7.419a.58.58,0,0,1,.58-.58h3.317a.58.58,0,0,1,.58.58v6.523q0,.627.045,1.3a4.092,4.092,0,0,0,.269,1.239,1.925,1.925,0,0,0,2.015,1.283,2.761,2.761,0,0,0,1.4-.313,2.135,2.135,0,0,0,.821-.836,3.417,3.417,0,0,0,.373-1.179,10.165,10.165,0,0,0,.089-1.373v-6.643a.58.58,0,0,1,.58-.58h3.317a.58.58,0,0,1,.58.58v13.345A.58.58,0,0,1,1027.985,334.572Z" transform="translate(-949.469 -310.606)" fill="#232323"/>
  <path id="Path_196" data-name="Path 196" d="M1261.688,232.437h-2.959a.58.58,0,0,1-.58-.58v-1.33h-.06a4.974,4.974,0,0,1-.7.791,5.3,5.3,0,0,1-1.015.731,6.211,6.211,0,0,1-1.283.537,5.061,5.061,0,0,1-1.448.209,7.478,7.478,0,0,1-2.925-.552,6.512,6.512,0,0,1-2.253-1.552,6.91,6.91,0,0,1-1.447-2.373,8.624,8.624,0,0,1-.508-3.014,9.131,9.131,0,0,1,.463-2.91,8.013,8.013,0,0,1,1.313-2.462,6.416,6.416,0,0,1,2.074-1.716,5.889,5.889,0,0,1,2.776-.642,7.7,7.7,0,0,1,2.611.433,4.183,4.183,0,0,1,1.985,1.477h.059v-9.03a.58.58,0,0,1,.58-.58h3.317a.58.58,0,0,1,.58.58v21.4A.58.58,0,0,1,1261.688,232.437Zm-3.539-7.252a3.754,3.754,0,0,0-.94-2.656,3.945,3.945,0,0,0-5.283,0,4.222,4.222,0,0,0,0,5.313,3.946,3.946,0,0,0,5.283,0A3.753,3.753,0,0,0,1258.149,225.185Z" transform="translate(-1164.421 -208.471)" fill="#232323"/>
  <path id="Path_197" data-name="Path 197" d="M1503.362,209.874h3.317a.58.58,0,0,1,.58.58v21.4a.58.58,0,0,1-.58.58h-3.317a.58.58,0,0,1-.58-.58v-21.4A.58.58,0,0,1,1503.362,209.874Z" transform="translate(-1401.953 -208.471)" fill="#232323"/>
  <path id="Path_198" data-name="Path 198" d="M149.413,321.58a10.745,10.745,0,0,1-.6,3.652,8.029,8.029,0,0,1-1.779,2.9,8.152,8.152,0,0,1-2.946,1.92,12.334,12.334,0,0,1-8.157,0,8.151,8.151,0,0,1-2.946-1.92,8.028,8.028,0,0,1-1.779-2.9,10.744,10.744,0,0,1-.6-3.652l.007-3.271a2.459,2.459,0,0,1,4.918,0l-.012,3.08a5.43,5.43,0,0,0,.332,1.923,4.574,4.574,0,0,0,.929,1.526,4.2,4.2,0,0,0,1.432,1.008,4.478,4.478,0,0,0,1.811.362,4.374,4.374,0,0,0,1.8-.362,4.242,4.242,0,0,0,1.417-1.008,4.574,4.574,0,0,0,.929-1.526,5.429,5.429,0,0,0,.33-1.923v-3.08h0a2.454,2.454,0,1,1,4.908,0Z" transform="translate(-130.124 -306.698)" fill="#5e2f79"/>
  <circle id="Ellipse_6" data-name="Ellipse 6" cx="3.097" cy="3.097" r="3.097" transform="translate(0 0.697)" fill="#5e2f79"/>
  <path id="Path_199" data-name="Path 199" d="M311.105,194.408v2.8a.371.371,0,0,1-.6.291l-2.585-2.042a.856.856,0,0,0-1.062,0l-2.585,2.042a.371.371,0,0,1-.6-.291v-2.8a.371.371,0,0,1,.1-.254l2.991-3.191a.857.857,0,0,1,1.25,0L311,194.155A.371.371,0,0,1,311.105,194.408Z" transform="translate(-290.533 -190.693)" fill="#ff7101"/>
</svg>
