<svg id="Layer_1" data-name="Layer 1" xmlns="http://www.w3.org/2000/svg" viewBox="0 0 1388 582"><defs><style>.cls-1{fill:#fff;}.cls-2{fill:#ff7101;}</style></defs><title>White Contrast Logo - Transparent BG - Trademark R</title><g id="Group_1" data-name="Group 1"><g id="Group_3" data-name="Group 3"><g id="Group_3-2" data-name="Group 3-2"><g id="Group_206-3" data-name="Group 206-3"><path id="Path_193-3" data-name="Path 193-3" class="cls-1" d="M344,181.47h34.29a6.32,6.32,0,0,1,6.32,6.32h0V203h.67a39.23,39.23,0,0,1,6.52-9.14,47.91,47.91,0,0,1,10-8.13,58.29,58.29,0,0,1,13.3-5.87,56.16,56.16,0,0,1,16.3-2.28q18.58,0,30,5.7a43.34,43.34,0,0,1,17.77,15.83,64.08,64.08,0,0,1,8.64,23.78,182.13,182.13,0,0,1,2.28,29.68v81.06A6.35,6.35,0,0,1,483.8,340H447.72a6.34,6.34,0,0,1-6.35-6.34h0V262.37q0-6.84-.47-14.18A44.85,44.85,0,0,0,438,234.67a23.28,23.28,0,0,0-7.49-10.11c-3.37-2.62-8.2-3.91-14.51-3.91a30.25,30.25,0,0,0-15.33,3.42,23.27,23.27,0,0,0-9,9.12,37.42,37.42,0,0,0-4.06,12.88,110.75,110.75,0,0,0-1,15v72.58a6.33,6.33,0,0,1-6.33,6.32H344a6.32,6.32,0,0,1-6.33-6.32h0V187.85a6.33,6.33,0,0,1,6.27-6.38Z"/><path id="Path_194-3" data-name="Path 194-3" class="cls-1" d="M530,181.47h33.84a6.37,6.37,0,0,1,6.35,6.35V203H571a39.69,39.69,0,0,1,6.52-9.13,47.82,47.82,0,0,1,10.1-8.16,58.73,58.73,0,0,1,13.3-5.87,56.62,56.62,0,0,1,16.31-2.28,62.34,62.34,0,0,1,29.5,6.84,43.48,43.48,0,0,1,19.4,21.53q8.49-15.31,20.54-21.85t29.66-6.42a60.78,60.78,0,0,1,26.9,5.38,44,44,0,0,1,17.29,14.68,62,62,0,0,1,9.12,21.85,124.52,124.52,0,0,1,2.76,26.81v87.25A6.34,6.34,0,0,1,766,340H729.79a6.35,6.35,0,0,1-6.35-6.32h0v-86a36.63,36.63,0,0,0-4.73-19q-4.73-8-16.79-8a32.47,32.47,0,0,0-14.18,2.78,23.65,23.65,0,0,0-9.14,7.6,32.35,32.35,0,0,0-4.88,11.4,62.47,62.47,0,0,0-1.46,13.7v77.44a6.36,6.36,0,0,1-6.35,6.34H629.68a6.34,6.34,0,0,1-6.33-6.34h0V256.18c0-2.82-.12-6.29-.32-10.44A42.41,42.41,0,0,0,620.75,234a22.36,22.36,0,0,0-6.37-9.5c-2.92-2.62-7.22-3.91-12.88-3.91A30.21,30.21,0,0,0,586.18,224a23.24,23.24,0,0,0-9,9.12A37.54,37.54,0,0,0,573.13,246a110.84,110.84,0,0,0-1,15V333.6a6.33,6.33,0,0,1-6.32,6.33H529.58a6.35,6.35,0,0,1-6.34-6.33V188.29a6.79,6.79,0,0,1,6.74-6.82h0Z"/><path id="Path_195-3" data-name="Path 195-3" class="cls-1" d="M951.59,340h-34.2a6.35,6.35,0,0,1-6.34-6.34v-15.2h-.65a53.86,53.86,0,0,1-6.69,9.14,43.9,43.9,0,0,1-9.93,8.13,57,57,0,0,1-13.3,5.87,55.21,55.21,0,0,1-16.3,2.28q-18.58,0-30.16-5.7a43,43,0,0,1-17.93-15.81,62.34,62.34,0,0,1-8.5-23.8,195.36,195.36,0,0,1-2.26-29.68v-81a6.33,6.33,0,0,1,6.29-6.36h36.29a6.33,6.33,0,0,1,6.33,6.32h0v71.26q0,6.84.49,14.2a44.82,44.82,0,0,0,2.93,13.52,23.45,23.45,0,0,0,7.6,10.12q5,3.89,14.51,3.91a30.21,30.21,0,0,0,15.32-3.42,23.32,23.32,0,0,0,9-9.14,37.56,37.56,0,0,0,4.08-12.86,110.84,110.84,0,0,0,1-15V187.84a6.33,6.33,0,0,1,6.25-6.37h36.23a6.32,6.32,0,0,1,6.33,6.33h0V333.6a6.33,6.33,0,0,1-6.27,6.38Z"/><path id="Path_196-3" data-name="Path 196-3" class="cls-1" d="M1156.45,340h-32.3a6.35,6.35,0,0,1-6.33-6.34V319.1h-.66a53.48,53.48,0,0,1-7.6,8.65,57.32,57.32,0,0,1-11.08,8,68.4,68.4,0,0,1-14,5.87,55.1,55.1,0,0,1-15.83,2.28,82,82,0,0,1-32-6,71.47,71.47,0,0,1-24.7-17A75.85,75.85,0,0,1,996.15,295a94.22,94.22,0,0,1-5.53-32.92,99.36,99.36,0,0,1,5-31.81,87.79,87.79,0,0,1,14.35-26.9,70.4,70.4,0,0,1,22.63-18.74,64.23,64.23,0,0,1,30.39-6.93,83.36,83.36,0,0,1,28.51,4.73,45.65,45.65,0,0,1,21.68,16.13h.66V99.77a6.35,6.35,0,0,1,6.33-6.35h36.23a6.35,6.35,0,0,1,6.33,6.35V333.64A6.34,6.34,0,0,1,1156.45,340Zm-38.67-79.23q0-17.91-10.27-29t-28.86-11.07q-18.59,0-28.85,11.07t-10.28,29q0,17.94,10.28,29t28.85,11.07q18.6,0,28.86-11.07t10.27-29Z"/><path id="Path_197-3" data-name="Path 197-3" class="cls-1" d="M1201.75,93.46H1238a6.34,6.34,0,0,1,6.29,6.31h0V333.64a6.34,6.34,0,0,1-6.33,6.34h-36.19a6.34,6.34,0,0,1-6.35-6.34h0V99.77A6.35,6.35,0,0,1,1201.75,93.46Z"/><path id="Path_198-6" data-name="Path 198-6" class="cls-1" d="M304.52,240.73a117.51,117.51,0,0,1-6.54,39.9,88,88,0,0,1-19.44,31.67,89.21,89.21,0,0,1-32.18,20.9A120.4,120.4,0,0,1,202,340.8a121.56,121.56,0,0,1-44.71-7.6,88.86,88.86,0,0,1-32.18-20.9,88,88,0,0,1-19.44-31.67,117.52,117.52,0,0,1-6.55-39.9V205a26.85,26.85,0,0,1,26.85-26.87h0A26.86,26.86,0,0,1,152.8,205v0l-.14,33.65a59.75,59.75,0,0,0,3.63,21,50.06,50.06,0,0,0,10.15,16.66,45.79,45.79,0,0,0,15.66,11,48.85,48.85,0,0,0,19.77,4,47.51,47.51,0,0,0,19.63-4,46.24,46.24,0,0,0,15.49-11,49.7,49.7,0,0,0,10.14-16.66,59.06,59.06,0,0,0,3.61-21V205h0a26.82,26.82,0,0,1,26.1-27.53h0a26.83,26.83,0,0,1,27.54,26.1h0c0,.48,0,.95,0,1.43h0Z"/><circle id="Ellipse_6-6" data-name="Ellipse 6-6" class="cls-1" cx="127.63" cy="119.59" r="33.84"/><path id="Path_199-6" data-name="Path 199-6" class="cls-2" d="M318.54,118.77v30.61a4.05,4.05,0,0,1-6.56,3.17l-28.23-22.38a9.33,9.33,0,0,0-11.61,0L243.9,152.55a4,4,0,0,1-6.55-3.18v-30.6a4.09,4.09,0,0,1,1.08-2.78l32.68-34.84a9.36,9.36,0,0,1,13.24-.5h0l.06.06.42.44L317.51,116A4.06,4.06,0,0,1,318.54,118.77Z"/></g><path class="cls-1" d="M1273.85,129.75a17.88,17.88,0,1,1,17.88-17.88A17.9,17.9,0,0,1,1273.85,129.75Zm0-33.37a15.5,15.5,0,1,0,15.5,15.49A15.51,15.51,0,0,0,1273.85,96.38Z"/><path class="cls-1" d="M1273.48,112.5h-2v6.22h-2.69V103h6.05a4.65,4.65,0,0,1,4.94,4.78,4.45,4.45,0,0,1-3.56,4.49l3.56,6.49h-3Zm.91-2.36a2.43,2.43,0,1,0,0-4.83h-2.87v4.83Z"/></g><path id="Path_5" data-name="Path 5" class="cls-2" d="M199.24,466.67h-95a8.55,8.55,0,1,1,0-17.1h95a8.55,8.55,0,0,1,8.55,8.55h0a8.55,8.55,0,0,1-8.55,8.55Z"/><path id="Path_6" data-name="Path 6" class="cls-2" d="M1280.2,466.67h-95a8.55,8.55,0,0,1-8.55-8.55h0a8.55,8.55,0,0,1,8.55-8.55h95a8.55,8.55,0,0,1,0,17.1Z"/><g id="Group_4" data-name="Group 4"><path id="Path_7" data-name="Path 7" class="cls-1" d="M242.58,470.69a12.17,12.17,0,0,0,5.12,4.44,15.42,15.42,0,0,0,6.44,1.42,13.08,13.08,0,0,0,3.78-.58,11.5,11.5,0,0,0,3.51-1.73,9.41,9.41,0,0,0,2.58-2.86,7.51,7.51,0,0,0,1-3.93,5.94,5.94,0,0,0-2-4.82,17.48,17.48,0,0,0-5-2.78q-3-1.11-6.48-2.16a26.15,26.15,0,0,1-6.48-2.89,15.72,15.72,0,0,1-5-5,15.47,15.47,0,0,1-2-8.45,14.37,14.37,0,0,1,1-5.09,14.16,14.16,0,0,1,3.28-4.93,18.12,18.12,0,0,1,5.75-3.74,21.36,21.36,0,0,1,8.44-1.51,29.55,29.55,0,0,1,8.56,1.24,14.61,14.61,0,0,1,7.17,5l-6,5.48a10.07,10.07,0,0,0-3.93-3.48,12.62,12.62,0,0,0-5.79-1.31,14,14,0,0,0-5.13.81,9.17,9.17,0,0,0-3.27,2.08,7.4,7.4,0,0,0-1.74,2.74,8.6,8.6,0,0,0-.5,2.7,6.87,6.87,0,0,0,2,5.32,15.43,15.43,0,0,0,5,3,61.08,61.08,0,0,0,6.48,2.08,27.85,27.85,0,0,1,6.47,2.58,15,15,0,0,1,5,4.48c1.34,1.87,2,4.46,2,7.75a16.2,16.2,0,0,1-1.5,7.09,15.54,15.54,0,0,1-4.05,5.32,17.81,17.81,0,0,1-6,3.32,23.55,23.55,0,0,1-7.4,1.16,27.06,27.06,0,0,1-9.95-1.85,16.39,16.39,0,0,1-7.48-5.71Z"/><path id="Path_8" data-name="Path 8" class="cls-1" d="M282.07,423.8H289v37.64l15.73-15.81h9.64l-17,16.58,18.5,19.89H306l-17-19v19h-6.94Z"/><path id="Path_9" data-name="Path 9" class="cls-1" d="M321,432.44a5.14,5.14,0,1,1,1.5,3.58A4.87,4.87,0,0,1,321,432.44Zm1.61,13.11h6.95V482.1h-6.95Z"/><path id="Path_10" data-name="Path 10" class="cls-1" d="M341.14,423.8h6.94v58.3h-6.94Z"/><path id="Path_11" data-name="Path 11" class="cls-1" d="M359.65,423.8h6.93v58.3h-6.93Z"/><path id="Path_12" data-name="Path 12" class="cls-1" d="M397.05,454.73a10.68,10.68,0,0,0-3.05-2.59,8.79,8.79,0,0,0-4.44-1,8.37,8.37,0,0,0-4.27,1,3.3,3.3,0,0,0-1.81,3.05,3.47,3.47,0,0,0,1,2.62,8.45,8.45,0,0,0,2.47,1.62,14.72,14.72,0,0,0,3,.93l2.78.54a32.91,32.91,0,0,1,4.2,1.31,11.84,11.84,0,0,1,3.39,2,8.49,8.49,0,0,1,2.23,3,10.29,10.29,0,0,1,.82,4.32,10.18,10.18,0,0,1-1.31,5.28,11.08,11.08,0,0,1-3.4,3.58,14.31,14.31,0,0,1-4.74,2,23.64,23.64,0,0,1-5.36.62,21.28,21.28,0,0,1-8-1.39,14.41,14.41,0,0,1-6.13-5.09l5.24-4.32a21,21,0,0,0,3.78,3,9.39,9.39,0,0,0,5.09,1.32,14.9,14.9,0,0,0,2.66-.27,8.42,8.42,0,0,0,2.39-.85,5.22,5.22,0,0,0,1.7-1.47,3.4,3.4,0,0,0,.65-2,3.55,3.55,0,0,0-1-2.55,7.24,7.24,0,0,0-2.32-1.58,16.62,16.62,0,0,0-2.85-.92c-1-.23-1.89-.42-2.66-.58-1.49-.36-2.9-.77-4.24-1.23a13,13,0,0,1-3.55-1.86,8.44,8.44,0,0,1-2.47-2.93,9.5,9.5,0,0,1-.92-4.39,10,10,0,0,1,1.19-5,10.74,10.74,0,0,1,3.16-3.51,14.31,14.31,0,0,1,4.48-2.08A18.87,18.87,0,0,1,397,446a11.25,11.25,0,0,1,5.4,4.63Z"/><path id="Path_13" data-name="Path 13" class="cls-1" d="M428.28,466.68h-19V460.2h19Z"/><path id="Path_14" data-name="Path 14" class="cls-1" d="M455.81,451.56h-9.95v16.59c0,1,0,2,.08,3a8,8,0,0,0,.57,2.7,4.38,4.38,0,0,0,1.55,1.93,5.23,5.23,0,0,0,3,.73,14.48,14.48,0,0,0,2.55-.23,7.27,7.27,0,0,0,2.39-.85v6.33a9.19,9.19,0,0,1-3.2,1,22.3,22.3,0,0,1-3,.27,14,14,0,0,1-6.21-1.12,7.67,7.67,0,0,1-3.24-2.89,9.41,9.41,0,0,1-1.23-4c-.13-1.47-.19-2.94-.19-4.44V451.56h-8v-6h8V435.29h6.94v10.26h9.95Z"/><path id="Path_15" data-name="Path 15" class="cls-1" d="M463,463.82a18.53,18.53,0,0,1,1.51-7.48,19.68,19.68,0,0,1,25.56-10.21,19.19,19.19,0,0,1,6.17,4.12,19.6,19.6,0,0,1,4.13,6.09,19.5,19.5,0,0,1,0,15,19,19,0,0,1-4.13,6.1,19.46,19.46,0,0,1-6.17,4.08,19.24,19.24,0,0,1-7.63,1.51,19.46,19.46,0,0,1-7.64-1.5,19.66,19.66,0,0,1-6.17-4.09A19.06,19.06,0,0,1,463,463.82Zm7.41,0a14.88,14.88,0,0,0,.84,5.13,11.73,11.73,0,0,0,2.39,4,11,11,0,0,0,3.78,2.62,13.58,13.58,0,0,0,10,0,11,11,0,0,0,3.78-2.62,11.73,11.73,0,0,0,2.39-4,15.88,15.88,0,0,0,0-10.25,11.73,11.73,0,0,0-2.39-4,11.17,11.17,0,0,0-3.78-2.62,13.58,13.58,0,0,0-10,0,11.27,11.27,0,0,0-3.78,2.62,11.73,11.73,0,0,0-2.39,4A14.87,14.87,0,0,0,470.39,463.82Z"/><path id="Path_16" data-name="Path 16" class="cls-1" d="M527,466.68H508V460.2h19Z"/><path id="Path_17" data-name="Path 17" class="cls-1" d="M553.75,427.5h7.41v39a19.13,19.13,0,0,1-1.63,8.44,14.59,14.59,0,0,1-4,5.17,14.39,14.39,0,0,1-5.21,2.62,19.93,19.93,0,0,1-5.09.73,15.82,15.82,0,0,1-9.75-3q-4-3-5.05-9l7.24-1.62a8.67,8.67,0,0,0,2.55,4.85,7.09,7.09,0,0,0,5,1.78,8,8,0,0,0,4.44-1.08,7.61,7.61,0,0,0,2.58-2.82,11.76,11.76,0,0,0,1.23-4,33,33,0,0,0,.31-4.55Z"/><path id="Path_18" data-name="Path 18" class="cls-1" d="M570.33,463.82a18.69,18.69,0,0,1,1.5-7.48,19.6,19.6,0,0,1,4.13-6.09,19.5,19.5,0,0,1,31.73,6.09,19.38,19.38,0,0,1,0,15,18.79,18.79,0,0,1-4.12,6.1,19.46,19.46,0,0,1-6.17,4.08,19.24,19.24,0,0,1-7.63,1.51,19.46,19.46,0,0,1-7.64-1.5,19.66,19.66,0,0,1-6.17-4.09,19,19,0,0,1-5.63-13.62Zm7.4,0a14.89,14.89,0,0,0,.85,5.13,11.64,11.64,0,0,0,2.39,4,11,11,0,0,0,3.78,2.62,13.58,13.58,0,0,0,10,0,11,11,0,0,0,3.77-2.62,11.34,11.34,0,0,0,2.39-4,15.88,15.88,0,0,0,0-10.25,11.58,11.58,0,0,0-2.39-4,11.23,11.23,0,0,0-3.77-2.62,13.58,13.58,0,0,0-10,0,11.17,11.17,0,0,0-3.78,2.62,11.73,11.73,0,0,0-2.39,4,14.87,14.87,0,0,0-.84,5.12Z"/><path id="Path_19" data-name="Path 19" class="cls-1" d="M617.92,423.8h6.94v27H625a12.73,12.73,0,0,1,5.32-4.51,17.06,17.06,0,0,1,7.4-1.66,19.48,19.48,0,0,1,7.68,1.47,17.22,17.22,0,0,1,5.86,4.05,17.88,17.88,0,0,1,3.73,6.09,21.42,21.42,0,0,1,1.32,7.6,21.18,21.18,0,0,1-1.32,7.55,18.34,18.34,0,0,1-3.73,6.1,17,17,0,0,1-5.86,4.08,19.3,19.3,0,0,1-7.68,1.47,17,17,0,0,1-7.21-1.62,13.2,13.2,0,0,1-5.51-4.55h-.16v5.25h-6.94Zm19,52.75a12.49,12.49,0,0,0,5-1,11.06,11.06,0,0,0,3.78-2.63,11.6,11.6,0,0,0,2.39-4,15.91,15.91,0,0,0,0-10.26,11.69,11.69,0,0,0-2.39-4,11.17,11.17,0,0,0-3.78-2.62,13.58,13.58,0,0,0-10,0,11.27,11.27,0,0,0-3.78,2.62,11.69,11.69,0,0,0-2.39,4,16.08,16.08,0,0,0,0,10.26,11.6,11.6,0,0,0,2.39,4,11.15,11.15,0,0,0,3.78,2.63,12.53,12.53,0,0,0,5,1Z"/><path id="Path_20" data-name="Path 20" class="cls-1" d="M684.47,454.73a10.68,10.68,0,0,0-3.05-2.59,8.77,8.77,0,0,0-4.43-1,8.4,8.4,0,0,0-4.28,1,3.32,3.32,0,0,0-1.82,3.05,3.48,3.48,0,0,0,1,2.62,8.45,8.45,0,0,0,2.47,1.62,14.72,14.72,0,0,0,3.05.93c1.08.2,2,.38,2.78.54a32.91,32.91,0,0,1,4.2,1.31,11.71,11.71,0,0,1,3.39,2,8.64,8.64,0,0,1,2.24,3,10.28,10.28,0,0,1,.8,4.32,10.08,10.08,0,0,1-1.31,5.28,10.94,10.94,0,0,1-3.39,3.58,14.4,14.4,0,0,1-4.74,2,23.64,23.64,0,0,1-5.36.62,21.28,21.28,0,0,1-8-1.39,14.43,14.43,0,0,1-6.14-5.09l5.25-4.32a21,21,0,0,0,3.78,3,9.37,9.37,0,0,0,5.09,1.32,14.9,14.9,0,0,0,2.66-.27,8.53,8.53,0,0,0,2.39-.85,5.32,5.32,0,0,0,1.7-1.47,3.4,3.4,0,0,0,.65-2,3.55,3.55,0,0,0-1-2.55,7.24,7.24,0,0,0-2.32-1.58,16.62,16.62,0,0,0-2.85-.92c-1-.23-1.89-.43-2.66-.58-1.49-.36-2.91-.77-4.24-1.23a13,13,0,0,1-3.55-1.86,8.44,8.44,0,0,1-2.47-2.93,9.38,9.38,0,0,1-.92-4.39,10,10,0,0,1,1.19-5,10.66,10.66,0,0,1,3.17-3.51,14.37,14.37,0,0,1,4.47-2.08,18.87,18.87,0,0,1,12.14.69,11.3,11.3,0,0,1,5.4,4.63Z"/><path id="Path_21" data-name="Path 21" class="cls-1" d="M722,427.5h11l17.35,41.34h.31l17.19-41.34h11v54.6h-7.4V437.22h-.15L752.88,482.1h-4.94L729.5,437.22h-.15V482.1H722Z"/><path id="Path_22" data-name="Path 22" class="cls-1" d="M790.74,450a19.4,19.4,0,0,1,6.79-4,23.25,23.25,0,0,1,7.71-1.35,21.24,21.24,0,0,1,6.9,1,13.56,13.56,0,0,1,4.74,2.7,10.67,10.67,0,0,1,2.74,3.9,12.22,12.22,0,0,1,.89,4.59v18.66c0,1.28,0,2.47.08,3.55s.12,2.1.23,3.08h-6.17c-.16-1.85-.23-3.7-.23-5.55h-.16a13.28,13.28,0,0,1-5.47,5,17.29,17.29,0,0,1-7.33,1.47,17.05,17.05,0,0,1-4.86-.7,11.82,11.82,0,0,1-4.05-2.08,9.91,9.91,0,0,1-2.73-3.43,11.81,11.81,0,0,1,.57-10.68,12,12,0,0,1,4.33-3.89,20.43,20.43,0,0,1,6.4-2.16,44.55,44.55,0,0,1,7.82-.66H814v-1.54a7.59,7.59,0,0,0-.53-2.78,7.41,7.41,0,0,0-1.63-2.5,7.71,7.71,0,0,0-2.69-1.78,10.35,10.35,0,0,0-3.86-.65,14.31,14.31,0,0,0-3.51.38,15.66,15.66,0,0,0-2.74,1,11.52,11.52,0,0,0-2.23,1.35l-1.93,1.46Zm19.59,14.5a47.18,47.18,0,0,0-5.05.27,19.45,19.45,0,0,0-4.71,1A9.11,9.11,0,0,0,797.1,468a4.91,4.91,0,0,0-1.35,3.55,5,5,0,0,0,2.12,4.55,10.43,10.43,0,0,0,5.75,1.39,11.3,11.3,0,0,0,4.86-1,9.12,9.12,0,0,0,3.24-2.51,9.83,9.83,0,0,0,1.77-3.43,13.86,13.86,0,0,0,.54-3.74v-2.31Z"/><path id="Path_23" data-name="Path 23" class="cls-1" d="M830.61,445.55h6.94v5.63h.15a9.72,9.72,0,0,1,1.86-2.66,11.88,11.88,0,0,1,2.58-2,13.7,13.7,0,0,1,3.12-1.35,11.84,11.84,0,0,1,3.39-.5,9.81,9.81,0,0,1,3.09.46l-.31,7.48c-.56-.15-1.13-.28-1.7-.38A9.58,9.58,0,0,0,848,452c-3.4,0-6,1-7.79,2.86s-2.7,4.85-2.7,8.87V482.1h-6.94Z"/><path id="Path_24" data-name="Path 24" class="cls-1" d="M859.14,423.8h6.94v37.64l15.74-15.81h9.64l-17.05,16.58,18.51,19.89h-9.87l-17-19v19h-7Z"/><path id="Path_25" data-name="Path 25" class="cls-1" d="M904.41,466.37a9.19,9.19,0,0,0,1,4.36,10.83,10.83,0,0,0,2.74,3.35,12.58,12.58,0,0,0,3.93,2.16,13.8,13.8,0,0,0,4.63.77,10.33,10.33,0,0,0,5.63-1.5,18.29,18.29,0,0,0,4.4-4l5.24,4Q926.23,483,915.83,483a20,20,0,0,1-7.83-1.47,17,17,0,0,1-5.94-4,17.92,17.92,0,0,1-3.73-6.1,21.35,21.35,0,0,1-1.31-7.59,20,20,0,0,1,1.42-7.6,19,19,0,0,1,3.93-6.09,18,18,0,0,1,6-4.05,19.43,19.43,0,0,1,7.56-1.47,18.18,18.18,0,0,1,8.21,1.7,16.24,16.24,0,0,1,5.51,4.43,17.74,17.74,0,0,1,3.13,6.17,26.12,26.12,0,0,1,1,7v2.47Zm21.91-5.55a15,15,0,0,0-.74-4.25,9.37,9.37,0,0,0-2-3.35,9.22,9.22,0,0,0-3.28-2.24,12.18,12.18,0,0,0-4.59-.81,11.05,11.05,0,0,0-4.67,1,11.44,11.44,0,0,0-3.59,2.5,11.82,11.82,0,0,0-2.27,3.44,9.41,9.41,0,0,0-.81,3.73Z"/><path id="Path_26" data-name="Path 26" class="cls-1" d="M961.64,451.56h-9.95v16.59c0,1,0,2,.07,3a8.06,8.06,0,0,0,.58,2.7,4.36,4.36,0,0,0,1.54,1.93,5.26,5.26,0,0,0,3,.73,14.45,14.45,0,0,0,2.54-.23,7.41,7.41,0,0,0,2.4-.85v6.33a9.25,9.25,0,0,1-3.21,1,22,22,0,0,1-3,.27,13.89,13.89,0,0,1-6.21-1.12,7.61,7.61,0,0,1-3.24-2.89,9.27,9.27,0,0,1-1.23-4c-.13-1.47-.19-2.94-.2-4.44V451.56h-8v-6h8V435.29h7v10.26h9.95Z"/><path id="Path_27" data-name="Path 27" class="cls-1" d="M970.58,445.55h6.94v5.24h.16a13.2,13.2,0,0,1,5.51-4.55,17.14,17.14,0,0,1,7.21-1.62,19.3,19.3,0,0,1,7.68,1.47,16.87,16.87,0,0,1,5.86,4.09,18.37,18.37,0,0,1,3.73,6.13,21.37,21.37,0,0,1,1.32,7.51,21.6,21.6,0,0,1-1.32,7.6,17.88,17.88,0,0,1-3.73,6.09,17.08,17.08,0,0,1-5.86,4.05A19.3,19.3,0,0,1,990.4,483a17.06,17.06,0,0,1-7.4-1.66,12.73,12.73,0,0,1-5.32-4.51h-.15v27h-6.95Zm19,5.55a12.66,12.66,0,0,0-5,1,11.06,11.06,0,0,0-3.78,2.63,11.6,11.6,0,0,0-2.39,4,15.91,15.91,0,0,0,0,10.26,11.69,11.69,0,0,0,2.39,4,11,11,0,0,0,3.78,2.62,13.58,13.58,0,0,0,10,0,11.13,11.13,0,0,0,3.78-2.62,11.69,11.69,0,0,0,2.39-4,15.91,15.91,0,0,0,0-10.26,11.6,11.6,0,0,0-2.39-4,11.15,11.15,0,0,0-3.78-2.63,12.71,12.71,0,0,0-5-1Z"/><path id="Path_28" data-name="Path 28" class="cls-1" d="M1018.24,423.8h6.94v58.3h-6.94Z"/><path id="Path_29" data-name="Path 29" class="cls-1" d="M1036.36,450a19.4,19.4,0,0,1,6.79-4,23.3,23.3,0,0,1,7.71-1.35,21.21,21.21,0,0,1,6.9,1,13.6,13.6,0,0,1,4.75,2.7,10.79,10.79,0,0,1,2.74,3.9,12.41,12.41,0,0,1,.88,4.59v18.66c0,1.28,0,2.47.08,3.55s.12,2.1.23,3.08h-6.17c-.16-1.85-.23-3.7-.23-5.55h-.16a13.28,13.28,0,0,1-5.47,5,17.29,17.29,0,0,1-7.33,1.47,17,17,0,0,1-4.86-.7,11.73,11.73,0,0,1-4-2.08,9.94,9.94,0,0,1-2.74-3.43,10.77,10.77,0,0,1-1-4.74,10.61,10.61,0,0,1,1.58-5.94,12,12,0,0,1,4.32-3.89,20.43,20.43,0,0,1,6.4-2.16,44.74,44.74,0,0,1,7.83-.66h5.09v-1.54a7.81,7.81,0,0,0-.54-2.78,7.64,7.64,0,0,0-1.62-2.5,7.84,7.84,0,0,0-2.7-1.78,10.35,10.35,0,0,0-3.86-.65,14.23,14.23,0,0,0-3.5.38,15.66,15.66,0,0,0-2.74,1,11.91,11.91,0,0,0-2.24,1.35l-1.93,1.46Zm19.59,14.5a47.46,47.46,0,0,0-5,.27,19.48,19.48,0,0,0-4.7,1,9,9,0,0,0-3.47,2.16,4.87,4.87,0,0,0-1.35,3.55,5,5,0,0,0,2.12,4.55,10.39,10.39,0,0,0,5.74,1.39,11.3,11.3,0,0,0,4.86-1,9.15,9.15,0,0,0,3.24-2.51,9.67,9.67,0,0,0,1.77-3.43,13.11,13.11,0,0,0,.54-3.74v-2.31Z"/><path id="Path_30" data-name="Path 30" class="cls-1" d="M1102.38,455.27a14.68,14.68,0,0,0-4.05-3,12.61,12.61,0,0,0-10,0,10.13,10.13,0,0,0-3.54,2.86,12.61,12.61,0,0,0-2.16,4.16,16.31,16.31,0,0,0-.74,4.9,13.68,13.68,0,0,0,.85,4.82,12.21,12.21,0,0,0,2.39,4,11.06,11.06,0,0,0,3.7,2.66,11.78,11.78,0,0,0,4.86,1,11,11,0,0,0,5-1,12.81,12.81,0,0,0,3.86-3l4.94,4.93a15.55,15.55,0,0,1-6.29,4.32,21.9,21.9,0,0,1-7.6,1.31,21,21,0,0,1-7.75-1.39,17.85,17.85,0,0,1-6-3.89,17.21,17.21,0,0,1-3.93-6,20.93,20.93,0,0,1-1.39-7.75,21.17,21.17,0,0,1,1.39-7.79,17.34,17.34,0,0,1,9.91-10.06,20.73,20.73,0,0,1,7.82-1.43,21,21,0,0,1,7.68,1.43,16.8,16.8,0,0,1,6.36,4.36Z"/><path id="Path_31" data-name="Path 31" class="cls-1" d="M1118.65,466.37a9.19,9.19,0,0,0,1,4.36,10.83,10.83,0,0,0,2.74,3.35,12.58,12.58,0,0,0,3.93,2.16,13.76,13.76,0,0,0,4.63.77,10.33,10.33,0,0,0,5.63-1.5,18.29,18.29,0,0,0,4.4-4l5.24,4q-5.79,7.49-16.19,7.48a20,20,0,0,1-7.83-1.47,17,17,0,0,1-5.94-4,17.92,17.92,0,0,1-3.73-6.1,21.36,21.36,0,0,1-1.32-7.59,20,20,0,0,1,1.43-7.6,18.69,18.69,0,0,1,3.93-6.09,17.94,17.94,0,0,1,6-4.05,19.43,19.43,0,0,1,7.56-1.47,18.12,18.12,0,0,1,8.2,1.7,16.27,16.27,0,0,1,5.52,4.43,17.55,17.55,0,0,1,3.12,6.17,25.73,25.73,0,0,1,1,7v2.47Zm21.9-5.55a14.64,14.64,0,0,0-.73-4.25,9.25,9.25,0,0,0-2-3.35,9.05,9.05,0,0,0-3.28-2.24,12.16,12.16,0,0,0-4.58-.81,11.36,11.36,0,0,0-8.25,3.47,11.66,11.66,0,0,0-2.28,3.44,9.41,9.41,0,0,0-.81,3.73Z"/></g><path class="cls-1" d="M1149.58,426.67v10.86H1147V426.67h-4.21v-2.46h11v2.46Z"/><path class="cls-1" d="M1167.91,437.53v-9.34l-3.83,9.34h-2.16l-3.83-9.26v9.26h-2.48V424.21H1159l4,9.62,3.91-9.62h3.53v13.32Z"/></g></g></svg>