<svg id="Visa" xmlns="http://www.w3.org/2000/svg" width="73.976" height="24" viewBox="0 0 73.976 24">
  <g id="Group_6" data-name="Group 6">
    <path id="Path_18" data-name="Path 18" d="M32.069,23.6H26.032L29.8.415h6.037ZM20.955.415,15.2,16.36l-.682-3.435h0L12.489,2.5A2.584,2.584,0,0,0,9.627.415H.113L0,.805A22.575,22.575,0,0,1,6.315,3.456L11.561,23.6h6.29L27.453.415ZM68.431,23.6h5.545L69.142.415H64.289A2.778,2.778,0,0,0,61.5,2.141L52.5,23.6h6.294l1.259-3.442h7.672l.707,3.442ZM61.79,15.4l3.171-8.677L66.744,15.4ZM52.972,5.991l.861-4.979A17.4,17.4,0,0,0,48.4,0C45.409,0,38.3,1.308,38.3,7.675c0,5.991,8.35,6.065,8.35,9.212s-7.489,2.581-9.961.6l-.9,5.207A16.939,16.939,0,0,0,42.6,24c4.121,0,10.333-2.134,10.333-7.939,0-6.03-8.424-6.589-8.424-9.212s5.879-2.282,8.459-.858Z" transform="translate(0 0)" fill="#2566af"/>
  </g>
  <path id="Path_19" data-name="Path 19" d="M14.544,24.237,12.508,13.792A2.588,2.588,0,0,0,9.642,11.7H.113L0,12.094a23.451,23.451,0,0,1,8.973,4.5A18.123,18.123,0,0,1,14.544,24.237Z" transform="translate(0 -11.288)" fill="#e6a540"/>
</svg>
