<svg xmlns="http://www.w3.org/2000/svg" width="17.8" height="12.439" viewBox="0 0 17.8 12.439">
  <path id="Yputube" d="M17.433,5.537a2.231,2.231,0,0,0-1.549-1.549,53.454,53.454,0,0,0-6.971-.372,52.261,52.261,0,0,0-6.971.372A2.231,2.231,0,0,0,.392,5.537,23.183,23.183,0,0,0,0,9.844a23.183,23.183,0,0,0,.387,4.291,2.231,2.231,0,0,0,1.549,1.549,53.337,53.337,0,0,0,6.971.372,53.465,53.465,0,0,0,6.971-.372,2.231,2.231,0,0,0,1.549-1.549A23.188,23.188,0,0,0,17.8,9.844a23.183,23.183,0,0,0-.371-4.307Zm-10.3,6.971V7.171l4.647,2.672Z" transform="translate(-0.005 -3.616)" fill="#fff"/>
</svg>
